%TF.GenerationSoftware,KiCad,Pcbnew,8.0.6*%
%TF.CreationDate,2024-12-15T17:57:45+01:00*%
%TF.ProjectId,debugboard,64656275-6762-46f6-9172-642e6b696361,rev?*%
%TF.SameCoordinates,Original*%
%TF.FileFunction,Copper,L1,Top*%
%TF.FilePolarity,Positive*%
%FSLAX46Y46*%
G04 Gerber Fmt 4.6, Leading zero omitted, Abs format (unit mm)*
G04 Created by KiCad (PCBNEW 8.0.6) date 2024-12-15 17:57:45*
%MOMM*%
%LPD*%
G01*
G04 APERTURE LIST*
%TA.AperFunction,ComponentPad*%
%ADD10C,3.100000*%
%TD*%
%TA.AperFunction,ConnectorPad*%
%ADD11C,5.400000*%
%TD*%
%TA.AperFunction,ComponentPad*%
%ADD12R,1.303000X1.303000*%
%TD*%
%TA.AperFunction,ComponentPad*%
%ADD13C,1.303000*%
%TD*%
%TA.AperFunction,ComponentPad*%
%ADD14C,1.365000*%
%TD*%
%TA.AperFunction,ComponentPad*%
%ADD15R,1.700000X1.700000*%
%TD*%
%TA.AperFunction,ComponentPad*%
%ADD16O,1.700000X1.700000*%
%TD*%
%TA.AperFunction,ComponentPad*%
%ADD17R,1.200000X1.200000*%
%TD*%
%TA.AperFunction,ComponentPad*%
%ADD18C,1.200000*%
%TD*%
%TA.AperFunction,ComponentPad*%
%ADD19C,1.600000*%
%TD*%
%TA.AperFunction,ComponentPad*%
%ADD20O,1.600000X1.600000*%
%TD*%
%TA.AperFunction,ComponentPad*%
%ADD21R,2.032000X2.032000*%
%TD*%
%TA.AperFunction,ComponentPad*%
%ADD22C,2.032000*%
%TD*%
%TA.AperFunction,ViaPad*%
%ADD23C,0.700000*%
%TD*%
%TA.AperFunction,Conductor*%
%ADD24C,0.200000*%
%TD*%
%TA.AperFunction,Conductor*%
%ADD25C,1.000000*%
%TD*%
G04 APERTURE END LIST*
D10*
%TO.P,hole1,1*%
%TO.N,N/C*%
X193900000Y-41000000D03*
D11*
X193900000Y-41000000D03*
%TD*%
D10*
%TO.P,hole1,1*%
%TO.N,N/C*%
X43900000Y-41000000D03*
D11*
X43900000Y-41000000D03*
%TD*%
D10*
%TO.P,hole1,1*%
%TO.N,N/C*%
X43900000Y-101000000D03*
D11*
X43900000Y-101000000D03*
%TD*%
D10*
%TO.P,hole1,1*%
%TO.N,N/C*%
X193900000Y-101000000D03*
D11*
X193900000Y-101000000D03*
%TD*%
D12*
%TO.P,RN3,1,1*%
%TO.N,GND*%
X67720000Y-90700000D03*
D13*
%TO.P,RN3,2,2*%
%TO.N,Net-(DS3-CATHODE_A)*%
X65180000Y-90700000D03*
%TO.P,RN3,3,3*%
%TO.N,Net-(DS3-CATHODE_B)*%
X62640000Y-90700000D03*
%TO.P,RN3,4,4*%
%TO.N,Net-(DS3-CATHODE_C)*%
X60100000Y-90700000D03*
%TO.P,RN3,5,5*%
%TO.N,Net-(DS3-CATHODE_D)*%
X57560000Y-90700000D03*
%TO.P,RN3,6,6*%
%TO.N,Net-(DS3-CATHODE_E)*%
X55020000Y-90700000D03*
%TO.P,RN3,7,7*%
%TO.N,Net-(DS3-CATHODE_F)*%
X52480000Y-90700000D03*
%TO.P,RN3,8,8*%
%TO.N,Net-(DS3-CATHODE_G)*%
X49940000Y-90700000D03*
%TO.P,RN3,9,9*%
%TO.N,Net-(DS3-CATHODE_H)*%
X47400000Y-90700000D03*
%TO.P,RN3,10,10*%
%TO.N,Net-(DS3-CATHODE_J)*%
X44860000Y-90700000D03*
%TO.P,RN3,11,11*%
%TO.N,Net-(DS3-CATHODE_K)*%
X42320000Y-90700000D03*
%TD*%
D12*
%TO.P,RN2,1,1*%
%TO.N,GND*%
X99100000Y-90700000D03*
D13*
%TO.P,RN2,2,2*%
%TO.N,Net-(DS2-CATHODE_A)*%
X96560000Y-90700000D03*
%TO.P,RN2,3,3*%
%TO.N,Net-(DS2-CATHODE_B)*%
X94020000Y-90700000D03*
%TO.P,RN2,4,4*%
%TO.N,Net-(DS2-CATHODE_C)*%
X91480000Y-90700000D03*
%TO.P,RN2,5,5*%
%TO.N,Net-(DS2-CATHODE_D)*%
X88940000Y-90700000D03*
%TO.P,RN2,6,6*%
%TO.N,Net-(DS2-CATHODE_E)*%
X86400000Y-90700000D03*
%TO.P,RN2,7,7*%
%TO.N,Net-(DS2-CATHODE_F)*%
X83860000Y-90700000D03*
%TO.P,RN2,8,8*%
%TO.N,Net-(DS2-CATHODE_G)*%
X81320000Y-90700000D03*
%TO.P,RN2,9,9*%
%TO.N,Net-(DS2-CATHODE_H)*%
X78780000Y-90700000D03*
%TO.P,RN2,10,10*%
%TO.N,Net-(DS2-CATHODE_J)*%
X76240000Y-90700000D03*
%TO.P,RN2,11,11*%
%TO.N,Net-(DS2-CATHODE_K)*%
X73700000Y-90700000D03*
%TD*%
D14*
%TO.P,RN1,1,1*%
%TO.N,GND*%
X129980000Y-90800000D03*
%TO.P,RN1,2,2*%
%TO.N,Net-(DS1-CATHODE_A)*%
X127440000Y-90800000D03*
%TO.P,RN1,3,3*%
%TO.N,Net-(DS1-CATHODE_B)*%
X124900000Y-90800000D03*
%TO.P,RN1,4,4*%
%TO.N,Net-(DS1-CATHODE_C)*%
X122360000Y-90800000D03*
%TO.P,RN1,5,5*%
%TO.N,Net-(DS1-CATHODE_D)*%
X119820000Y-90800000D03*
%TO.P,RN1,6,6*%
%TO.N,Net-(DS1-CATHODE_E)*%
X117280000Y-90800000D03*
%TO.P,RN1,7,7*%
%TO.N,Net-(DS1-CATHODE_F)*%
X114740000Y-90800000D03*
%TO.P,RN1,8,8*%
%TO.N,Net-(DS1-CATHODE_G)*%
X112200000Y-90800000D03*
%TO.P,RN1,9,9*%
%TO.N,Net-(DS1-CATHODE_H)*%
X109660000Y-90800000D03*
%TD*%
D15*
%TO.P,J4,1,Pin_1*%
%TO.N,GND*%
X192000000Y-86120000D03*
D16*
%TO.P,J4,2,Pin_2*%
%TO.N,BE*%
X192000000Y-83580000D03*
%TO.P,J4,3,Pin_3*%
%TO.N,RDY*%
X192000000Y-81040000D03*
%TO.P,J4,4,Pin_4*%
%TO.N,SYNC*%
X192000000Y-78500000D03*
%TO.P,J4,5,Pin_5*%
%TO.N,CLK*%
X192000000Y-75960000D03*
%TD*%
D17*
%TO.P,DS3,1,ANODE_A*%
%TO.N,/A10*%
X69130000Y-75190000D03*
D18*
%TO.P,DS3,2,ANODE_B*%
%TO.N,/A11*%
X66590000Y-75190000D03*
%TO.P,DS3,3,ANODE_C*%
%TO.N,/A12*%
X64050000Y-75190000D03*
%TO.P,DS3,4,ANODE_D*%
%TO.N,/A13*%
X61510000Y-75190000D03*
%TO.P,DS3,5,ANODE_E*%
%TO.N,/A14*%
X58970000Y-75190000D03*
%TO.P,DS3,6,ANODE_F*%
%TO.N,/A15*%
X56430000Y-75190000D03*
%TO.P,DS3,7,ANODE_G*%
%TO.N,unconnected-(DS3-ANODE_G-Pad7)*%
X53890000Y-75190000D03*
%TO.P,DS3,8,ANODE_H*%
%TO.N,unconnected-(DS3-ANODE_H-Pad8)*%
X51350000Y-75190000D03*
%TO.P,DS3,9,ANODE_J*%
%TO.N,unconnected-(DS3-ANODE_J-Pad9)*%
X48810000Y-75190000D03*
%TO.P,DS3,10,ANODE_K*%
%TO.N,unconnected-(DS3-ANODE_K-Pad10)*%
X46270000Y-75190000D03*
%TO.P,DS3,11,CATHODE_K*%
%TO.N,Net-(DS3-CATHODE_K)*%
X46270000Y-82810000D03*
%TO.P,DS3,12,CATHODE_J*%
%TO.N,Net-(DS3-CATHODE_J)*%
X48810000Y-82810000D03*
%TO.P,DS3,13,CATHODE_H*%
%TO.N,Net-(DS3-CATHODE_H)*%
X51350000Y-82810000D03*
%TO.P,DS3,14,CATHODE_G*%
%TO.N,Net-(DS3-CATHODE_G)*%
X53890000Y-82810000D03*
%TO.P,DS3,15,CATHODE_F*%
%TO.N,Net-(DS3-CATHODE_F)*%
X56430000Y-82810000D03*
%TO.P,DS3,16,CATHODE_E*%
%TO.N,Net-(DS3-CATHODE_E)*%
X58970000Y-82810000D03*
%TO.P,DS3,17,CATHODE_D*%
%TO.N,Net-(DS3-CATHODE_D)*%
X61510000Y-82810000D03*
%TO.P,DS3,18,CATHODE_C*%
%TO.N,Net-(DS3-CATHODE_C)*%
X64050000Y-82810000D03*
%TO.P,DS3,19,CATHODE_B*%
%TO.N,Net-(DS3-CATHODE_B)*%
X66590000Y-82810000D03*
%TO.P,DS3,20,CATHODE_A*%
%TO.N,Net-(DS3-CATHODE_A)*%
X69130000Y-82810000D03*
%TD*%
D17*
%TO.P,DS2,1,ANODE_A*%
%TO.N,/A0*%
X95180000Y-75200000D03*
D18*
%TO.P,DS2,2,ANODE_B*%
%TO.N,/A1*%
X92640000Y-75200000D03*
%TO.P,DS2,3,ANODE_C*%
%TO.N,/A2*%
X90100000Y-75200000D03*
%TO.P,DS2,4,ANODE_D*%
%TO.N,/A3*%
X87560000Y-75200000D03*
%TO.P,DS2,5,ANODE_E*%
%TO.N,/A4*%
X85020000Y-75200000D03*
%TO.P,DS2,6,ANODE_F*%
%TO.N,/A5*%
X82480000Y-75200000D03*
%TO.P,DS2,7,ANODE_G*%
%TO.N,/A6*%
X79940000Y-75200000D03*
%TO.P,DS2,8,ANODE_H*%
%TO.N,/A7*%
X77400000Y-75200000D03*
%TO.P,DS2,9,ANODE_J*%
%TO.N,/A8*%
X74860000Y-75200000D03*
%TO.P,DS2,10,ANODE_K*%
%TO.N,/A9*%
X72320000Y-75200000D03*
%TO.P,DS2,11,CATHODE_K*%
%TO.N,Net-(DS2-CATHODE_K)*%
X72320000Y-82820000D03*
%TO.P,DS2,12,CATHODE_J*%
%TO.N,Net-(DS2-CATHODE_J)*%
X74860000Y-82820000D03*
%TO.P,DS2,13,CATHODE_H*%
%TO.N,Net-(DS2-CATHODE_H)*%
X77400000Y-82820000D03*
%TO.P,DS2,14,CATHODE_G*%
%TO.N,Net-(DS2-CATHODE_G)*%
X79940000Y-82820000D03*
%TO.P,DS2,15,CATHODE_F*%
%TO.N,Net-(DS2-CATHODE_F)*%
X82480000Y-82820000D03*
%TO.P,DS2,16,CATHODE_E*%
%TO.N,Net-(DS2-CATHODE_E)*%
X85020000Y-82820000D03*
%TO.P,DS2,17,CATHODE_D*%
%TO.N,Net-(DS2-CATHODE_D)*%
X87560000Y-82820000D03*
%TO.P,DS2,18,CATHODE_C*%
%TO.N,Net-(DS2-CATHODE_C)*%
X90100000Y-82820000D03*
%TO.P,DS2,19,CATHODE_B*%
%TO.N,Net-(DS2-CATHODE_B)*%
X92640000Y-82820000D03*
%TO.P,DS2,20,CATHODE_A*%
%TO.N,Net-(DS2-CATHODE_A)*%
X95180000Y-82820000D03*
%TD*%
D17*
%TO.P,DS1,1,ANODE_A*%
%TO.N,/D0*%
X127430000Y-75290000D03*
D18*
%TO.P,DS1,2,ANODE_B*%
%TO.N,/D1*%
X124890000Y-75290000D03*
%TO.P,DS1,3,ANODE_C*%
%TO.N,/D2*%
X122350000Y-75290000D03*
%TO.P,DS1,4,ANODE_D*%
%TO.N,/D3*%
X119810000Y-75290000D03*
%TO.P,DS1,5,ANODE_E*%
%TO.N,/D4*%
X117270000Y-75290000D03*
%TO.P,DS1,6,ANODE_F*%
%TO.N,/D5*%
X114730000Y-75290000D03*
%TO.P,DS1,7,ANODE_G*%
%TO.N,/D6*%
X112190000Y-75290000D03*
%TO.P,DS1,8,ANODE_H*%
%TO.N,/D7*%
X109650000Y-75290000D03*
%TO.P,DS1,9,ANODE_J*%
%TO.N,unconnected-(DS1-ANODE_J-Pad9)*%
X107110000Y-75290000D03*
%TO.P,DS1,10,ANODE_K*%
%TO.N,unconnected-(DS1-ANODE_K-Pad10)*%
X104570000Y-75290000D03*
%TO.P,DS1,11,CATHODE_K*%
%TO.N,unconnected-(DS1-CATHODE_K-Pad11)*%
X104570000Y-82910000D03*
%TO.P,DS1,12,CATHODE_J*%
%TO.N,unconnected-(DS1-CATHODE_J-Pad12)*%
X107110000Y-82910000D03*
%TO.P,DS1,13,CATHODE_H*%
%TO.N,Net-(DS1-CATHODE_H)*%
X109650000Y-82910000D03*
%TO.P,DS1,14,CATHODE_G*%
%TO.N,Net-(DS1-CATHODE_G)*%
X112190000Y-82910000D03*
%TO.P,DS1,15,CATHODE_F*%
%TO.N,Net-(DS1-CATHODE_F)*%
X114730000Y-82910000D03*
%TO.P,DS1,16,CATHODE_E*%
%TO.N,Net-(DS1-CATHODE_E)*%
X117270000Y-82910000D03*
%TO.P,DS1,17,CATHODE_D*%
%TO.N,Net-(DS1-CATHODE_D)*%
X119810000Y-82910000D03*
%TO.P,DS1,18,CATHODE_C*%
%TO.N,Net-(DS1-CATHODE_C)*%
X122350000Y-82910000D03*
%TO.P,DS1,19,CATHODE_B*%
%TO.N,Net-(DS1-CATHODE_B)*%
X124890000Y-82910000D03*
%TO.P,DS1,20,CATHODE_A*%
%TO.N,Net-(DS1-CATHODE_A)*%
X127430000Y-82910000D03*
%TD*%
D16*
%TO.P,J5,12,Pin_12*%
%TO.N,Net-(J5-Pin_12)*%
X148897500Y-65722500D03*
%TO.P,J5,11,Pin_11*%
%TO.N,Net-(J5-Pin_11)*%
X148897500Y-63182500D03*
%TO.P,J5,10,Pin_10*%
%TO.N,Net-(J5-Pin_10)*%
X151437500Y-65722500D03*
%TO.P,J5,9,Pin_9*%
%TO.N,Net-(J5-Pin_9)*%
X151437500Y-63182500D03*
%TO.P,J5,8,Pin_8*%
%TO.N,Net-(J5-Pin_8)*%
X153977500Y-65722500D03*
%TO.P,J5,7,Pin_7*%
%TO.N,Net-(J5-Pin_7)*%
X153977500Y-63182500D03*
%TO.P,J5,6,Pin_6*%
%TO.N,Net-(J5-Pin_6)*%
X156517500Y-65722500D03*
%TO.P,J5,5,Pin_5*%
%TO.N,Net-(J5-Pin_5)*%
X156517500Y-63182500D03*
%TO.P,J5,4,Pin_4*%
%TO.N,Net-(J5-Pin_4)*%
X159057500Y-65722500D03*
%TO.P,J5,3,Pin_3*%
%TO.N,SYNC*%
X159057500Y-63182500D03*
%TO.P,J5,2,Pin_2*%
%TO.N,Net-(J5-Pin_2)*%
X161597500Y-65722500D03*
D15*
%TO.P,J5,1,Pin_1*%
%TO.N,CLK*%
X161597500Y-63182500D03*
%TD*%
D19*
%TO.P,R6,1*%
%TO.N,VDD*%
X145367500Y-47172500D03*
D20*
%TO.P,R6,2*%
%TO.N,Net-(J5-Pin_11)*%
X145367500Y-54792500D03*
%TD*%
D19*
%TO.P,R5,1*%
%TO.N,VDD*%
X149417500Y-47172500D03*
D20*
%TO.P,R5,2*%
%TO.N,Net-(J5-Pin_9)*%
X149417500Y-54792500D03*
%TD*%
D19*
%TO.P,R4,1*%
%TO.N,VDD*%
X153467500Y-47172500D03*
D20*
%TO.P,R4,2*%
%TO.N,Net-(J5-Pin_7)*%
X153467500Y-54792500D03*
%TD*%
D19*
%TO.P,R3,1*%
%TO.N,VDD*%
X157517500Y-47172500D03*
D20*
%TO.P,R3,2*%
%TO.N,Net-(J5-Pin_5)*%
X157517500Y-54792500D03*
%TD*%
%TO.P,R2,2*%
%TO.N,GND*%
X166517500Y-47272500D03*
D19*
%TO.P,R2,1*%
%TO.N,Net-(BAR1-K-Pad19)*%
X166517500Y-54892500D03*
%TD*%
D20*
%TO.P,R1,2*%
%TO.N,GND*%
X170317500Y-47272500D03*
D19*
%TO.P,R1,1*%
%TO.N,Net-(BAR1-K-Pad20)*%
X170317500Y-54892500D03*
%TD*%
D21*
%TO.P,BAR1,1,A*%
%TO.N,Net-(J5-Pin_2)*%
X161740000Y-75280000D03*
D22*
%TO.P,BAR1,2,A*%
%TO.N,Net-(J5-Pin_4)*%
X159200000Y-75280000D03*
%TO.P,BAR1,3,A*%
%TO.N,Net-(J5-Pin_6)*%
X156660000Y-75280000D03*
%TO.P,BAR1,4,A*%
%TO.N,Net-(J5-Pin_8)*%
X154120000Y-75280000D03*
%TO.P,BAR1,5,A*%
%TO.N,Net-(J5-Pin_10)*%
X151580000Y-75280000D03*
%TO.P,BAR1,6,A*%
%TO.N,Net-(J5-Pin_12)*%
X149040000Y-75280000D03*
%TO.P,BAR1,7,A*%
%TO.N,unconnected-(BAR1-A-Pad7)*%
X146500000Y-75280000D03*
%TO.P,BAR1,8,A*%
%TO.N,unconnected-(BAR1-A-Pad8)*%
X143960000Y-75280000D03*
%TO.P,BAR1,9,A*%
%TO.N,unconnected-(BAR1-A-Pad9)*%
X141420000Y-75280000D03*
%TO.P,BAR1,10,A*%
%TO.N,unconnected-(BAR1-A-Pad10)*%
X138880000Y-75280000D03*
%TO.P,BAR1,11,K*%
%TO.N,unconnected-(BAR1-K-Pad11)*%
X138880000Y-82900000D03*
%TO.P,BAR1,12,K*%
%TO.N,unconnected-(BAR1-K-Pad12)*%
X141420000Y-82900000D03*
%TO.P,BAR1,13,K*%
%TO.N,unconnected-(BAR1-K-Pad13)*%
X143960000Y-82900000D03*
%TO.P,BAR1,14,K*%
%TO.N,unconnected-(BAR1-K-Pad14)*%
X146500000Y-82900000D03*
%TO.P,BAR1,15,K*%
%TO.N,RESB*%
X149040000Y-82900000D03*
%TO.P,BAR1,16,K*%
%TO.N,BE*%
X151580000Y-82900000D03*
%TO.P,BAR1,17,K*%
%TO.N,~{NMI}*%
X154120000Y-82900000D03*
%TO.P,BAR1,18,K*%
%TO.N,~{IRQ}*%
X156660000Y-82900000D03*
%TO.P,BAR1,19,K*%
%TO.N,Net-(BAR1-K-Pad19)*%
X159200000Y-82900000D03*
%TO.P,BAR1,20,K*%
%TO.N,Net-(BAR1-K-Pad20)*%
X161740000Y-82900000D03*
%TD*%
D16*
%TO.P,J3,8,Pin_8*%
%TO.N,/D7*%
X192000000Y-48040000D03*
%TO.P,J3,7,Pin_7*%
%TO.N,/D6*%
X192000000Y-50580000D03*
%TO.P,J3,6,Pin_6*%
%TO.N,/D5*%
X192000000Y-53120000D03*
%TO.P,J3,5,Pin_5*%
%TO.N,/D4*%
X192000000Y-55660000D03*
%TO.P,J3,4,Pin_4*%
%TO.N,/D3*%
X192000000Y-58200000D03*
%TO.P,J3,3,Pin_3*%
%TO.N,/D2*%
X192000000Y-60740000D03*
%TO.P,J3,2,Pin_2*%
%TO.N,/D1*%
X192000000Y-63280000D03*
D15*
%TO.P,J3,1,Pin_1*%
%TO.N,/D0*%
X192000000Y-65820000D03*
%TD*%
%TO.P,J2,1,Pin_1*%
%TO.N,/A0*%
X181100000Y-86120000D03*
D16*
%TO.P,J2,2,Pin_2*%
%TO.N,/A1*%
X181100000Y-83580000D03*
%TO.P,J2,3,Pin_3*%
%TO.N,/A2*%
X181100000Y-81040000D03*
%TO.P,J2,4,Pin_4*%
%TO.N,/A3*%
X181100000Y-78500000D03*
%TO.P,J2,5,Pin_5*%
%TO.N,/A4*%
X181100000Y-75960000D03*
%TO.P,J2,6,Pin_6*%
%TO.N,/A5*%
X181100000Y-73420000D03*
%TO.P,J2,7,Pin_7*%
%TO.N,/A6*%
X181100000Y-70880000D03*
%TO.P,J2,8,Pin_8*%
%TO.N,/A7*%
X181100000Y-68340000D03*
%TO.P,J2,9,Pin_9*%
%TO.N,/A8*%
X181100000Y-65800000D03*
%TO.P,J2,10,Pin_10*%
%TO.N,/A9*%
X181100000Y-63260000D03*
%TO.P,J2,11,Pin_11*%
%TO.N,/A10*%
X181100000Y-60720000D03*
%TO.P,J2,12,Pin_12*%
%TO.N,/A11*%
X181100000Y-58180000D03*
%TO.P,J2,13,Pin_13*%
%TO.N,/A12*%
X181100000Y-55640000D03*
%TO.P,J2,14,Pin_14*%
%TO.N,/A13*%
X181100000Y-53100000D03*
%TO.P,J2,15,Pin_15*%
%TO.N,/A14*%
X181100000Y-50560000D03*
%TO.P,J2,16,Pin_16*%
%TO.N,/A15*%
X181100000Y-48020000D03*
%TD*%
D15*
%TO.P,J1,1,Pin_1*%
%TO.N,VDD*%
X94540000Y-50100000D03*
D16*
%TO.P,J1,2,Pin_2*%
%TO.N,GND*%
X94540000Y-52640000D03*
%TO.P,J1,3,Pin_3*%
%TO.N,/D0*%
X92000000Y-50100000D03*
%TO.P,J1,4,Pin_4*%
%TO.N,/D1*%
X92000000Y-52640000D03*
%TO.P,J1,5,Pin_5*%
%TO.N,/D2*%
X89460000Y-50100000D03*
%TO.P,J1,6,Pin_6*%
%TO.N,/D3*%
X89460000Y-52640000D03*
%TO.P,J1,7,Pin_7*%
%TO.N,/D4*%
X86920000Y-50100000D03*
%TO.P,J1,8,Pin_8*%
%TO.N,/D5*%
X86920000Y-52640000D03*
%TO.P,J1,9,Pin_9*%
%TO.N,/D6*%
X84380000Y-50100000D03*
%TO.P,J1,10,Pin_10*%
%TO.N,/D7*%
X84380000Y-52640000D03*
%TO.P,J1,11,Pin_11*%
%TO.N,/A0*%
X81840000Y-50100000D03*
%TO.P,J1,12,Pin_12*%
%TO.N,/A1*%
X81840000Y-52640000D03*
%TO.P,J1,13,Pin_13*%
%TO.N,/A2*%
X79300000Y-50100000D03*
%TO.P,J1,14,Pin_14*%
%TO.N,/A3*%
X79300000Y-52640000D03*
%TO.P,J1,15,Pin_15*%
%TO.N,/A4*%
X76760000Y-50100000D03*
%TO.P,J1,16,Pin_16*%
%TO.N,/A5*%
X76760000Y-52640000D03*
%TO.P,J1,17,Pin_17*%
%TO.N,/A6*%
X74220000Y-50100000D03*
%TO.P,J1,18,Pin_18*%
%TO.N,/A7*%
X74220000Y-52640000D03*
%TO.P,J1,19,Pin_19*%
%TO.N,/A8*%
X71680000Y-50100000D03*
%TO.P,J1,20,Pin_20*%
%TO.N,/A9*%
X71680000Y-52640000D03*
%TO.P,J1,21,Pin_21*%
%TO.N,/A10*%
X69140000Y-50100000D03*
%TO.P,J1,22,Pin_22*%
%TO.N,/A11*%
X69140000Y-52640000D03*
%TO.P,J1,23,Pin_23*%
%TO.N,/A12*%
X66600000Y-50100000D03*
%TO.P,J1,24,Pin_24*%
%TO.N,/A13*%
X66600000Y-52640000D03*
%TO.P,J1,25,Pin_25*%
%TO.N,/A14*%
X64060000Y-50100000D03*
%TO.P,J1,26,Pin_26*%
%TO.N,/A15*%
X64060000Y-52640000D03*
%TO.P,J1,27,Pin_27*%
%TO.N,CSIO1*%
X61520000Y-50100000D03*
%TO.P,J1,28,Pin_28*%
%TO.N,CSIO2*%
X61520000Y-52640000D03*
%TO.P,J1,29,Pin_29*%
%TO.N,CSIO3*%
X58980000Y-50100000D03*
%TO.P,J1,30,Pin_30*%
%TO.N,CSIO4*%
X58980000Y-52640000D03*
%TO.P,J1,31,Pin_31*%
%TO.N,~{IRQ}*%
X56440000Y-50100000D03*
%TO.P,J1,32,Pin_32*%
%TO.N,~{NMI}*%
X56440000Y-52640000D03*
%TO.P,J1,33,Pin_33*%
%TO.N,RESB*%
X53900000Y-50100000D03*
%TO.P,J1,34,Pin_34*%
%TO.N,RDY*%
X53900000Y-52640000D03*
%TO.P,J1,35,Pin_35*%
%TO.N,SYNC*%
X51360000Y-50100000D03*
%TO.P,J1,36,Pin_36*%
%TO.N,BE*%
X51360000Y-52640000D03*
%TO.P,J1,37,Pin_37*%
%TO.N,CSIO5*%
X48820000Y-50100000D03*
%TO.P,J1,38,Pin_38*%
%TO.N,CLK*%
X48820000Y-52640000D03*
%TO.P,J1,39,Pin_39*%
%TO.N,GND*%
X46280000Y-50100000D03*
%TO.P,J1,40,Pin_40*%
%TO.N,VDD*%
X46280000Y-52640000D03*
%TD*%
D23*
%TO.N,BE*%
X51300000Y-58100000D03*
%TO.N,RDY*%
X53900000Y-59300000D03*
%TO.N,Net-(BAR1-K-Pad19)*%
X165200000Y-64300000D03*
%TO.N,Net-(BAR1-K-Pad20)*%
X166600000Y-64300000D03*
%TO.N,/D0*%
X167000000Y-70400000D03*
%TO.N,/D1*%
X166300000Y-69600000D03*
%TO.N,/D2*%
X165700000Y-68800000D03*
%TO.N,/D3*%
X165000000Y-68100000D03*
%TO.N,/D4*%
X99000000Y-68300000D03*
X105600000Y-68300000D03*
%TO.N,/D5*%
X96800000Y-67500000D03*
X104800000Y-67500000D03*
%TO.N,/D6*%
X94450000Y-66650000D03*
X103900000Y-66600000D03*
%TO.N,/D7*%
X91850000Y-65550000D03*
X103100000Y-65600000D03*
%TO.N,/A0*%
X86570000Y-64890000D03*
%TO.N,/A1*%
X83260000Y-64240000D03*
%TO.N,/A2*%
X80570000Y-63590000D03*
%TO.N,/A3*%
X79300000Y-62940000D03*
%TO.N,/A4*%
X78040000Y-62280000D03*
%TO.N,/A5*%
X76760000Y-61630000D03*
%TO.N,/A6*%
X75500000Y-60980000D03*
%TO.N,/A7*%
X74220000Y-60330000D03*
%TO.N,/A8*%
X72920000Y-59680000D03*
%TO.N,/A9*%
X71700000Y-59030000D03*
%TO.N,/A10*%
X70430000Y-58390000D03*
%TO.N,/A11*%
X69140000Y-57720000D03*
%TO.N,/A12*%
X67880000Y-57050000D03*
%TO.N,/A15*%
X64060000Y-55100000D03*
%TO.N,/A13*%
X66600000Y-56380000D03*
%TO.N,/A14*%
X65310000Y-55750000D03*
%TD*%
D24*
%TO.N,BE*%
X51300000Y-52700000D02*
X51360000Y-52640000D01*
X51300000Y-58100000D02*
X51300000Y-52700000D01*
%TO.N,RDY*%
X53900000Y-59300000D02*
X53900000Y-52640000D01*
%TO.N,CLK*%
X162682500Y-63182500D02*
X161597500Y-63182500D01*
X163400000Y-63900000D02*
X162682500Y-63182500D01*
X168800000Y-74600000D02*
X163400000Y-69200000D01*
X163400000Y-69200000D02*
X163400000Y-63900000D01*
X184600000Y-74600000D02*
X168800000Y-74600000D01*
X193200000Y-79800000D02*
X189800000Y-79800000D01*
X189800000Y-79800000D02*
X184600000Y-74600000D01*
X193600000Y-79400000D02*
X193200000Y-79800000D01*
X193600000Y-77560000D02*
X193600000Y-79400000D01*
X192000000Y-75960000D02*
X193600000Y-77560000D01*
%TO.N,SYNC*%
X164100000Y-69000000D02*
X164100000Y-62700000D01*
X167200000Y-72100000D02*
X164100000Y-69000000D01*
X162900000Y-61500000D02*
X159800000Y-61500000D01*
X159057500Y-62242500D02*
X159057500Y-63182500D01*
X185300000Y-72100000D02*
X167200000Y-72100000D01*
X164100000Y-62700000D02*
X162900000Y-61500000D01*
X159800000Y-61500000D02*
X159057500Y-62242500D01*
X191900000Y-78700000D02*
X185300000Y-72100000D01*
%TO.N,Net-(BAR1-K-Pad20)*%
X170317500Y-60382500D02*
X170317500Y-54892500D01*
X166600000Y-64100000D02*
X170317500Y-60382500D01*
X166600000Y-64300000D02*
X166600000Y-64100000D01*
%TO.N,Net-(BAR1-K-Pad19)*%
X166517500Y-62982500D02*
X166517500Y-54892500D01*
X165200000Y-64300000D02*
X166517500Y-62982500D01*
D25*
%TO.N,VDD*%
X46000000Y-44700000D02*
X42800000Y-47900000D01*
X98100000Y-44700000D02*
X46000000Y-44700000D01*
X148235000Y-44700000D02*
X149417500Y-45882500D01*
X146100000Y-44700000D02*
X148235000Y-44700000D01*
X145367500Y-45432500D02*
X146100000Y-44700000D01*
X152500000Y-44800000D02*
X153467500Y-45767500D01*
X150500000Y-44800000D02*
X152500000Y-44800000D01*
X149417500Y-45882500D02*
X150500000Y-44800000D01*
X153467500Y-45767500D02*
X153467500Y-47172500D01*
X149417500Y-47172500D02*
X149417500Y-45882500D01*
X155200000Y-44700000D02*
X153467500Y-46432500D01*
X153467500Y-46432500D02*
X153467500Y-47172500D01*
X157517500Y-45717500D02*
X156500000Y-44700000D01*
X156500000Y-44700000D02*
X155200000Y-44700000D01*
X157517500Y-47172500D02*
X157517500Y-45717500D01*
X145400000Y-45400000D02*
X145367500Y-45432500D01*
X98100000Y-44700000D02*
X144700000Y-44700000D01*
X94600000Y-48200000D02*
X98100000Y-44700000D01*
X144700000Y-44700000D02*
X145400000Y-45400000D01*
X94500000Y-48200000D02*
X94600000Y-48200000D01*
X94540000Y-48240000D02*
X94500000Y-48200000D01*
X94540000Y-50100000D02*
X94540000Y-48240000D01*
X145367500Y-45432500D02*
X145367500Y-47172500D01*
X42800000Y-47900000D02*
X42800000Y-51400000D01*
X46280000Y-52640000D02*
X44040000Y-52640000D01*
X44040000Y-52640000D02*
X42800000Y-51400000D01*
D24*
%TO.N,/D4*%
X113510000Y-71530000D02*
X117270000Y-75290000D01*
X102182500Y-71530000D02*
X113510000Y-71530000D01*
X88070000Y-57417500D02*
X102182500Y-71530000D01*
X86920000Y-50100000D02*
X88070000Y-51250000D01*
X88070000Y-51250000D02*
X88070000Y-57417500D01*
%TO.N,/D5*%
X86920000Y-57620000D02*
X86920000Y-52640000D01*
X96800000Y-67500000D02*
X86920000Y-57620000D01*
X101410000Y-72110000D02*
X111550000Y-72110000D01*
X111550000Y-72110000D02*
X114730000Y-75290000D01*
X96800000Y-67500000D02*
X101410000Y-72110000D01*
%TO.N,/D6*%
X94450000Y-66650000D02*
X100510000Y-72710000D01*
X85770000Y-51490000D02*
X84380000Y-50100000D01*
X100510000Y-72710000D02*
X109610000Y-72710000D01*
X85770000Y-57970000D02*
X85770000Y-51490000D01*
X94450000Y-66650000D02*
X85770000Y-57970000D01*
X109610000Y-72710000D02*
X112190000Y-75290000D01*
X190170000Y-50580000D02*
X192000000Y-50580000D01*
X188920000Y-51830000D02*
X190170000Y-50580000D01*
X179630000Y-51830000D02*
X188920000Y-51830000D01*
X177100000Y-49300000D02*
X179630000Y-51830000D01*
X124300000Y-49300000D02*
X177100000Y-49300000D01*
X103900000Y-66600000D02*
X107000000Y-66600000D01*
X107000000Y-66600000D02*
X124300000Y-49300000D01*
%TO.N,/D7*%
X107850000Y-73250000D02*
X99550000Y-73250000D01*
X84380000Y-58080000D02*
X84380000Y-52640000D01*
X109650000Y-75050000D02*
X107850000Y-73250000D01*
X109650000Y-75290000D02*
X109650000Y-75050000D01*
X99550000Y-73250000D02*
X84380000Y-58080000D01*
%TO.N,/D3*%
X115510000Y-70990000D02*
X119810000Y-75290000D01*
X102790000Y-70990000D02*
X115510000Y-70990000D01*
X89460000Y-57660000D02*
X102790000Y-70990000D01*
X89460000Y-52640000D02*
X89460000Y-57660000D01*
%TO.N,/D2*%
X117510000Y-70450000D02*
X122350000Y-75290000D01*
X90610000Y-51250000D02*
X90610000Y-57610000D01*
X89460000Y-50100000D02*
X90610000Y-51250000D01*
X90610000Y-57610000D02*
X103450000Y-70450000D01*
X103450000Y-70450000D02*
X117510000Y-70450000D01*
%TO.N,/D1*%
X104020000Y-69920000D02*
X119520000Y-69920000D01*
X92000000Y-57900000D02*
X104020000Y-69920000D01*
X92000000Y-52640000D02*
X92000000Y-57900000D01*
X119520000Y-69920000D02*
X124890000Y-75290000D01*
%TO.N,/D0*%
X93390000Y-58190000D02*
X104520000Y-69320000D01*
X121460000Y-69320000D02*
X127430000Y-75290000D01*
X93390000Y-51490000D02*
X93390000Y-58190000D01*
X104520000Y-69320000D02*
X121460000Y-69320000D01*
X92000000Y-50100000D02*
X93390000Y-51490000D01*
%TO.N,/D4*%
X188960000Y-56940000D02*
X190240000Y-55660000D01*
X190240000Y-55660000D02*
X192000000Y-55660000D01*
X180090000Y-56940000D02*
X188960000Y-56940000D01*
X125590000Y-50310000D02*
X173460000Y-50310000D01*
X105600000Y-68300000D02*
X107600000Y-68300000D01*
X173460000Y-50310000D02*
X180090000Y-56940000D01*
X107600000Y-68300000D02*
X125590000Y-50310000D01*
%TO.N,/D5*%
X190210000Y-53120000D02*
X192000000Y-53120000D01*
X188950000Y-54380000D02*
X190210000Y-53120000D01*
X179610000Y-54380000D02*
X188950000Y-54380000D01*
X175050000Y-49820000D02*
X179610000Y-54380000D01*
X124980000Y-49820000D02*
X175050000Y-49820000D01*
X107300000Y-67500000D02*
X124980000Y-49820000D01*
X104800000Y-67500000D02*
X107300000Y-67500000D01*
%TO.N,/D7*%
X190240000Y-48040000D02*
X192000000Y-48040000D01*
X178290000Y-49310000D02*
X188970000Y-49310000D01*
X177780000Y-48800000D02*
X178290000Y-49310000D01*
X123400000Y-48800000D02*
X177780000Y-48800000D01*
X106600000Y-65600000D02*
X123400000Y-48800000D01*
X188970000Y-49310000D02*
X190240000Y-48040000D01*
X103100000Y-65600000D02*
X106600000Y-65600000D01*
%TO.N,/A0*%
X95180000Y-73580000D02*
X95180000Y-75200000D01*
X86570000Y-64970000D02*
X95180000Y-73580000D01*
X83100000Y-51360000D02*
X81840000Y-50100000D01*
X86570000Y-64890000D02*
X86570000Y-64970000D01*
X83100000Y-61500000D02*
X83100000Y-51360000D01*
X86490000Y-64890000D02*
X83100000Y-61500000D01*
X86570000Y-64890000D02*
X86490000Y-64890000D01*
%TO.N,/A2*%
X90100000Y-73600000D02*
X90100000Y-75200000D01*
X80570000Y-64070000D02*
X90100000Y-73600000D01*
X80570000Y-63590000D02*
X80570000Y-64070000D01*
X80570000Y-51370000D02*
X79300000Y-50100000D01*
X80570000Y-63590000D02*
X80570000Y-51370000D01*
%TO.N,/A3*%
X87560000Y-73560000D02*
X87560000Y-75200000D01*
X79300000Y-65300000D02*
X87560000Y-73560000D01*
X79300000Y-62940000D02*
X79300000Y-65300000D01*
X79300000Y-62940000D02*
X79300000Y-52640000D01*
%TO.N,/A4*%
X85020000Y-73620000D02*
X85020000Y-75200000D01*
X78040000Y-66640000D02*
X85020000Y-73620000D01*
X78040000Y-62280000D02*
X78040000Y-66640000D01*
X78040000Y-51380000D02*
X76760000Y-50100000D01*
X78040000Y-62280000D02*
X78040000Y-51380000D01*
%TO.N,/A6*%
X79940000Y-73540000D02*
X79940000Y-75200000D01*
X75500000Y-69100000D02*
X79940000Y-73540000D01*
X75500000Y-60980000D02*
X75500000Y-69100000D01*
X75500000Y-60980000D02*
X75500000Y-51380000D01*
X75500000Y-51380000D02*
X74220000Y-50100000D01*
%TO.N,/A7*%
X77400000Y-73600000D02*
X77400000Y-75200000D01*
X74220000Y-70420000D02*
X77400000Y-73600000D01*
X74220000Y-60330000D02*
X74220000Y-70420000D01*
X74220000Y-60330000D02*
X74220000Y-52640000D01*
%TO.N,/A8*%
X72920000Y-51340000D02*
X71680000Y-50100000D01*
X72920000Y-59680000D02*
X72920000Y-51340000D01*
X74860000Y-73560000D02*
X74860000Y-75200000D01*
X72920000Y-71620000D02*
X74860000Y-73560000D01*
X72920000Y-59680000D02*
X72920000Y-71620000D01*
%TO.N,/A9*%
X71700000Y-72900000D02*
X72320000Y-73520000D01*
X71700000Y-59030000D02*
X71700000Y-72900000D01*
X71700000Y-52660000D02*
X71680000Y-52640000D01*
X71700000Y-59030000D02*
X71700000Y-52660000D01*
X72320000Y-73520000D02*
X72320000Y-75200000D01*
%TO.N,/A10*%
X69130000Y-73570000D02*
X69130000Y-75190000D01*
X70430000Y-72270000D02*
X69130000Y-73570000D01*
X70430000Y-51390000D02*
X69140000Y-50100000D01*
X70430000Y-58390000D02*
X70430000Y-72270000D01*
X70430000Y-58390000D02*
X70430000Y-51390000D01*
%TO.N,/A11*%
X66590000Y-73510000D02*
X66590000Y-75190000D01*
X69140000Y-70960000D02*
X66590000Y-73510000D01*
X69140000Y-57720000D02*
X69140000Y-70960000D01*
X69140000Y-57720000D02*
X69140000Y-52640000D01*
%TO.N,/A12*%
X64050000Y-73550000D02*
X64050000Y-75190000D01*
X67880000Y-69720000D02*
X64050000Y-73550000D01*
X67880000Y-57050000D02*
X67880000Y-69720000D01*
X67880000Y-57050000D02*
X67880000Y-51380000D01*
X67880000Y-51380000D02*
X66600000Y-50100000D01*
%TO.N,/A13*%
X66600000Y-56380000D02*
X66600000Y-52640000D01*
X66600000Y-56380000D02*
X66600000Y-68500000D01*
X66600000Y-68500000D02*
X61510000Y-73590000D01*
X61510000Y-73590000D02*
X61510000Y-75190000D01*
%TO.N,/A14*%
X59100000Y-75060000D02*
X58970000Y-75190000D01*
X59100000Y-73900000D02*
X59100000Y-75060000D01*
X65310000Y-67690000D02*
X59100000Y-73900000D01*
X65310000Y-51350000D02*
X64060000Y-50100000D01*
X65310000Y-55750000D02*
X65310000Y-51350000D01*
X65310000Y-55750000D02*
X65310000Y-67690000D01*
%TO.N,/A15*%
X56430000Y-73670000D02*
X56430000Y-75190000D01*
X64060000Y-66040000D02*
X56430000Y-73670000D01*
X64060000Y-55100000D02*
X64060000Y-66040000D01*
X64060000Y-55100000D02*
X64060000Y-52640000D01*
%TO.N,/D3*%
X173640000Y-59460000D02*
X165000000Y-68100000D01*
X188960000Y-59460000D02*
X173640000Y-59460000D01*
X190220000Y-58200000D02*
X188960000Y-59460000D01*
X192000000Y-58200000D02*
X190220000Y-58200000D01*
%TO.N,/D2*%
X172530000Y-61940000D02*
X165700000Y-68770000D01*
X192000000Y-60740000D02*
X190220000Y-60740000D01*
X190220000Y-60740000D02*
X189020000Y-61940000D01*
X189020000Y-61940000D02*
X172530000Y-61940000D01*
X165700000Y-68770000D02*
X165700000Y-68800000D01*
%TO.N,/D1*%
X171330000Y-64570000D02*
X166300000Y-69600000D01*
X190160000Y-63280000D02*
X188870000Y-64570000D01*
X188870000Y-64570000D02*
X171330000Y-64570000D01*
X192000000Y-63280000D02*
X190160000Y-63280000D01*
%TO.N,/D0*%
X170400000Y-67000000D02*
X167000000Y-70400000D01*
X189070000Y-67000000D02*
X170400000Y-67000000D01*
X190250000Y-65820000D02*
X189070000Y-67000000D01*
X192000000Y-65820000D02*
X190250000Y-65820000D01*
%TO.N,Net-(J5-Pin_5)*%
X157517500Y-55082500D02*
X157517500Y-54792500D01*
X156517500Y-56082500D02*
X157517500Y-55082500D01*
X156517500Y-63182500D02*
X156517500Y-56082500D01*
%TO.N,Net-(J5-Pin_7)*%
X153467500Y-56067500D02*
X153467500Y-54792500D01*
X153900000Y-63105000D02*
X153900000Y-56500000D01*
X153977500Y-63182500D02*
X153900000Y-63105000D01*
X153900000Y-56500000D02*
X153467500Y-56067500D01*
%TO.N,Net-(J5-Pin_9)*%
X151437500Y-58037500D02*
X149417500Y-56017500D01*
X151437500Y-63182500D02*
X151437500Y-58037500D01*
X149417500Y-56017500D02*
X149417500Y-54792500D01*
%TO.N,Net-(J5-Pin_11)*%
X145367500Y-55967500D02*
X145367500Y-54792500D01*
X148897500Y-59497500D02*
X145367500Y-55967500D01*
X148897500Y-63182500D02*
X148897500Y-59497500D01*
X145367500Y-55527500D02*
X145367500Y-54792500D01*
%TO.N,Net-(J5-Pin_2)*%
X161597500Y-65722500D02*
X161597500Y-75137500D01*
X161597500Y-75137500D02*
X161740000Y-75280000D01*
%TO.N,Net-(J5-Pin_4)*%
X159057500Y-75137500D02*
X159200000Y-75280000D01*
X159057500Y-65722500D02*
X159057500Y-75137500D01*
%TO.N,Net-(J5-Pin_6)*%
X156517500Y-75137500D02*
X156660000Y-75280000D01*
X156517500Y-65722500D02*
X156517500Y-75137500D01*
%TO.N,Net-(J5-Pin_8)*%
X153977500Y-75137500D02*
X154120000Y-75280000D01*
X153977500Y-65722500D02*
X153977500Y-75137500D01*
%TO.N,Net-(J5-Pin_10)*%
X151437500Y-75137500D02*
X151580000Y-75280000D01*
X151437500Y-65722500D02*
X151437500Y-75137500D01*
%TO.N,Net-(J5-Pin_12)*%
X148897500Y-75137500D02*
X149040000Y-75280000D01*
X148897500Y-65722500D02*
X148897500Y-75137500D01*
%TO.N,Net-(DS1-CATHODE_A)*%
X127440000Y-82920000D02*
X127430000Y-82910000D01*
X127440000Y-90800000D02*
X127440000Y-82920000D01*
%TO.N,Net-(DS1-CATHODE_B)*%
X124900000Y-82920000D02*
X124890000Y-82910000D01*
X124900000Y-90800000D02*
X124900000Y-82920000D01*
%TO.N,Net-(DS1-CATHODE_C)*%
X122360000Y-82920000D02*
X122350000Y-82910000D01*
X122360000Y-90800000D02*
X122360000Y-82920000D01*
%TO.N,Net-(DS1-CATHODE_D)*%
X119820000Y-82920000D02*
X119810000Y-82910000D01*
X119820000Y-90800000D02*
X119820000Y-82920000D01*
%TO.N,Net-(DS1-CATHODE_E)*%
X117280000Y-82920000D02*
X117270000Y-82910000D01*
X117280000Y-90800000D02*
X117280000Y-82920000D01*
%TO.N,Net-(DS1-CATHODE_F)*%
X114740000Y-82920000D02*
X114730000Y-82910000D01*
X114740000Y-90800000D02*
X114740000Y-82920000D01*
%TO.N,Net-(DS1-CATHODE_G)*%
X112200000Y-82920000D02*
X112190000Y-82910000D01*
X112200000Y-90800000D02*
X112200000Y-82920000D01*
%TO.N,Net-(DS1-CATHODE_H)*%
X109660000Y-82920000D02*
X109650000Y-82910000D01*
X109660000Y-90800000D02*
X109660000Y-82920000D01*
%TO.N,Net-(DS2-CATHODE_A)*%
X96560000Y-84480000D02*
X95180000Y-83100000D01*
X96560000Y-90700000D02*
X96560000Y-84480000D01*
X95180000Y-83100000D02*
X95180000Y-82820000D01*
%TO.N,Net-(DS2-CATHODE_B)*%
X92640000Y-83190000D02*
X92640000Y-82820000D01*
X94020000Y-84570000D02*
X92640000Y-83190000D01*
X94020000Y-90700000D02*
X94020000Y-84570000D01*
%TO.N,Net-(DS2-CATHODE_C)*%
X90100000Y-83130000D02*
X90100000Y-82820000D01*
X91480000Y-84510000D02*
X90100000Y-83130000D01*
X91480000Y-90700000D02*
X91480000Y-84510000D01*
%TO.N,Net-(DS2-CATHODE_D)*%
X87560000Y-83150000D02*
X87560000Y-82820000D01*
X88940000Y-84530000D02*
X87560000Y-83150000D01*
X88940000Y-90700000D02*
X88940000Y-84530000D01*
%TO.N,Net-(DS2-CATHODE_E)*%
X85020000Y-83090000D02*
X85020000Y-82820000D01*
X86400000Y-84470000D02*
X85020000Y-83090000D01*
X86400000Y-90700000D02*
X86400000Y-84470000D01*
%TO.N,Net-(DS2-CATHODE_F)*%
X82480000Y-83130000D02*
X82480000Y-82820000D01*
X83860000Y-84510000D02*
X82480000Y-83130000D01*
X83860000Y-90700000D02*
X83860000Y-84510000D01*
%TO.N,Net-(DS2-CATHODE_G)*%
X79940000Y-83170000D02*
X79940000Y-82820000D01*
X81320000Y-90700000D02*
X81320000Y-84550000D01*
X81320000Y-84550000D02*
X79940000Y-83170000D01*
%TO.N,Net-(DS2-CATHODE_H)*%
X78780000Y-84520000D02*
X77400000Y-83140000D01*
X78780000Y-90700000D02*
X78780000Y-84520000D01*
X77400000Y-83140000D02*
X77400000Y-82820000D01*
%TO.N,Net-(DS2-CATHODE_J)*%
X76240000Y-84480000D02*
X74860000Y-83100000D01*
X74860000Y-83100000D02*
X74860000Y-82820000D01*
X76240000Y-90700000D02*
X76240000Y-84480000D01*
%TO.N,Net-(DS2-CATHODE_K)*%
X73690000Y-87840000D02*
X73690000Y-84560000D01*
X72320000Y-83190000D02*
X72320000Y-82820000D01*
X73700000Y-87850000D02*
X73690000Y-87840000D01*
X73690000Y-84560000D02*
X72320000Y-83190000D01*
X73700000Y-90700000D02*
X73700000Y-87850000D01*
%TO.N,Net-(DS3-CATHODE_A)*%
X69130000Y-84480000D02*
X69130000Y-82810000D01*
X65180000Y-88430000D02*
X69130000Y-84480000D01*
X65180000Y-90700000D02*
X65180000Y-88430000D01*
%TO.N,Net-(DS3-CATHODE_B)*%
X62640000Y-88490000D02*
X66590000Y-84540000D01*
X66590000Y-84540000D02*
X66590000Y-82810000D01*
X62640000Y-90700000D02*
X62640000Y-88490000D01*
%TO.N,Net-(DS3-CATHODE_C)*%
X64050000Y-84540000D02*
X64050000Y-82810000D01*
X60100000Y-88490000D02*
X64050000Y-84540000D01*
X60100000Y-90700000D02*
X60100000Y-88490000D01*
%TO.N,Net-(DS3-CATHODE_D)*%
X61510000Y-84510000D02*
X61510000Y-82810000D01*
X57560000Y-88460000D02*
X61510000Y-84510000D01*
X57560000Y-90700000D02*
X57560000Y-88460000D01*
%TO.N,Net-(DS3-CATHODE_E)*%
X58970000Y-84600000D02*
X58970000Y-82810000D01*
X55020000Y-90700000D02*
X55020000Y-88550000D01*
X55020000Y-88550000D02*
X58970000Y-84600000D01*
%TO.N,Net-(DS3-CATHODE_F)*%
X56430000Y-84550000D02*
X56430000Y-82810000D01*
X52480000Y-88500000D02*
X56430000Y-84550000D01*
X52480000Y-90700000D02*
X52480000Y-88500000D01*
%TO.N,Net-(DS3-CATHODE_G)*%
X53890000Y-84550000D02*
X53890000Y-82810000D01*
X49940000Y-88500000D02*
X53890000Y-84550000D01*
X49940000Y-90700000D02*
X49940000Y-88500000D01*
%TO.N,Net-(DS3-CATHODE_H)*%
X51350000Y-84480000D02*
X51350000Y-82810000D01*
X47400000Y-88430000D02*
X51350000Y-84480000D01*
X47400000Y-90700000D02*
X47400000Y-88430000D01*
%TO.N,Net-(DS3-CATHODE_J)*%
X48810000Y-84590000D02*
X48810000Y-82810000D01*
X44860000Y-90700000D02*
X44860000Y-88540000D01*
X44860000Y-88540000D02*
X48810000Y-84590000D01*
%TO.N,Net-(DS3-CATHODE_K)*%
X42320000Y-88490000D02*
X46270000Y-84540000D01*
X46270000Y-84540000D02*
X46270000Y-82810000D01*
X42320000Y-90700000D02*
X42320000Y-88490000D01*
%TO.N,/A1*%
X81840000Y-62840000D02*
X81840000Y-52640000D01*
X92640000Y-73640000D02*
X81840000Y-62840000D01*
X92640000Y-75200000D02*
X92640000Y-73640000D01*
%TO.N,/A5*%
X76760000Y-67960000D02*
X76760000Y-52640000D01*
X82480000Y-73680000D02*
X76760000Y-67960000D01*
X82480000Y-75200000D02*
X82480000Y-73680000D01*
%TD*%
M02*
