%TF.GenerationSoftware,KiCad,Pcbnew,8.0.6*%
%TF.CreationDate,2024-12-15T17:57:45+01:00*%
%TF.ProjectId,debugboard,64656275-6762-46f6-9172-642e6b696361,rev?*%
%TF.SameCoordinates,Original*%
%TF.FileFunction,Legend,Top*%
%TF.FilePolarity,Positive*%
%FSLAX46Y46*%
G04 Gerber Fmt 4.6, Leading zero omitted, Abs format (unit mm)*
G04 Created by KiCad (PCBNEW 8.0.6) date 2024-12-15 17:57:45*
%MOMM*%
%LPD*%
G01*
G04 APERTURE LIST*
%ADD10C,0.100000*%
%ADD11C,0.400000*%
%ADD12C,0.150000*%
%ADD13C,0.254000*%
%ADD14C,0.010000*%
%ADD15C,0.200000*%
%ADD16C,0.120000*%
G04 APERTURE END LIST*
D10*
X149372419Y-71524687D02*
X148896228Y-71858020D01*
X149372419Y-72096115D02*
X148372419Y-72096115D01*
X148372419Y-72096115D02*
X148372419Y-71715163D01*
X148372419Y-71715163D02*
X148420038Y-71619925D01*
X148420038Y-71619925D02*
X148467657Y-71572306D01*
X148467657Y-71572306D02*
X148562895Y-71524687D01*
X148562895Y-71524687D02*
X148705752Y-71524687D01*
X148705752Y-71524687D02*
X148800990Y-71572306D01*
X148800990Y-71572306D02*
X148848609Y-71619925D01*
X148848609Y-71619925D02*
X148896228Y-71715163D01*
X148896228Y-71715163D02*
X148896228Y-72096115D01*
X148848609Y-71096115D02*
X148848609Y-70762782D01*
X149372419Y-70619925D02*
X149372419Y-71096115D01*
X149372419Y-71096115D02*
X148372419Y-71096115D01*
X148372419Y-71096115D02*
X148372419Y-70619925D01*
X149324800Y-70238972D02*
X149372419Y-70096115D01*
X149372419Y-70096115D02*
X149372419Y-69858020D01*
X149372419Y-69858020D02*
X149324800Y-69762782D01*
X149324800Y-69762782D02*
X149277180Y-69715163D01*
X149277180Y-69715163D02*
X149181942Y-69667544D01*
X149181942Y-69667544D02*
X149086704Y-69667544D01*
X149086704Y-69667544D02*
X148991466Y-69715163D01*
X148991466Y-69715163D02*
X148943847Y-69762782D01*
X148943847Y-69762782D02*
X148896228Y-69858020D01*
X148896228Y-69858020D02*
X148848609Y-70048496D01*
X148848609Y-70048496D02*
X148800990Y-70143734D01*
X148800990Y-70143734D02*
X148753371Y-70191353D01*
X148753371Y-70191353D02*
X148658133Y-70238972D01*
X148658133Y-70238972D02*
X148562895Y-70238972D01*
X148562895Y-70238972D02*
X148467657Y-70191353D01*
X148467657Y-70191353D02*
X148420038Y-70143734D01*
X148420038Y-70143734D02*
X148372419Y-70048496D01*
X148372419Y-70048496D02*
X148372419Y-69810401D01*
X148372419Y-69810401D02*
X148420038Y-69667544D01*
X151448609Y-71662782D02*
X151496228Y-71519925D01*
X151496228Y-71519925D02*
X151543847Y-71472306D01*
X151543847Y-71472306D02*
X151639085Y-71424687D01*
X151639085Y-71424687D02*
X151781942Y-71424687D01*
X151781942Y-71424687D02*
X151877180Y-71472306D01*
X151877180Y-71472306D02*
X151924800Y-71519925D01*
X151924800Y-71519925D02*
X151972419Y-71615163D01*
X151972419Y-71615163D02*
X151972419Y-71996115D01*
X151972419Y-71996115D02*
X150972419Y-71996115D01*
X150972419Y-71996115D02*
X150972419Y-71662782D01*
X150972419Y-71662782D02*
X151020038Y-71567544D01*
X151020038Y-71567544D02*
X151067657Y-71519925D01*
X151067657Y-71519925D02*
X151162895Y-71472306D01*
X151162895Y-71472306D02*
X151258133Y-71472306D01*
X151258133Y-71472306D02*
X151353371Y-71519925D01*
X151353371Y-71519925D02*
X151400990Y-71567544D01*
X151400990Y-71567544D02*
X151448609Y-71662782D01*
X151448609Y-71662782D02*
X151448609Y-71996115D01*
X151448609Y-70996115D02*
X151448609Y-70662782D01*
X151972419Y-70519925D02*
X151972419Y-70996115D01*
X151972419Y-70996115D02*
X150972419Y-70996115D01*
X150972419Y-70996115D02*
X150972419Y-70519925D01*
X154472419Y-71996115D02*
X153472419Y-71996115D01*
X153472419Y-71996115D02*
X154472419Y-71424687D01*
X154472419Y-71424687D02*
X153472419Y-71424687D01*
X154472419Y-70948496D02*
X153472419Y-70948496D01*
X153472419Y-70948496D02*
X154186704Y-70615163D01*
X154186704Y-70615163D02*
X153472419Y-70281830D01*
X153472419Y-70281830D02*
X154472419Y-70281830D01*
X154472419Y-69805639D02*
X153472419Y-69805639D01*
X156972419Y-71996115D02*
X155972419Y-71996115D01*
X156972419Y-70948497D02*
X156496228Y-71281830D01*
X156972419Y-71519925D02*
X155972419Y-71519925D01*
X155972419Y-71519925D02*
X155972419Y-71138973D01*
X155972419Y-71138973D02*
X156020038Y-71043735D01*
X156020038Y-71043735D02*
X156067657Y-70996116D01*
X156067657Y-70996116D02*
X156162895Y-70948497D01*
X156162895Y-70948497D02*
X156305752Y-70948497D01*
X156305752Y-70948497D02*
X156400990Y-70996116D01*
X156400990Y-70996116D02*
X156448609Y-71043735D01*
X156448609Y-71043735D02*
X156496228Y-71138973D01*
X156496228Y-71138973D02*
X156496228Y-71519925D01*
X157067657Y-69853259D02*
X157020038Y-69948497D01*
X157020038Y-69948497D02*
X156924800Y-70043735D01*
X156924800Y-70043735D02*
X156781942Y-70186592D01*
X156781942Y-70186592D02*
X156734323Y-70281830D01*
X156734323Y-70281830D02*
X156734323Y-70377068D01*
X156972419Y-70329449D02*
X156924800Y-70424687D01*
X156924800Y-70424687D02*
X156829561Y-70519925D01*
X156829561Y-70519925D02*
X156639085Y-70567544D01*
X156639085Y-70567544D02*
X156305752Y-70567544D01*
X156305752Y-70567544D02*
X156115276Y-70519925D01*
X156115276Y-70519925D02*
X156020038Y-70424687D01*
X156020038Y-70424687D02*
X155972419Y-70329449D01*
X155972419Y-70329449D02*
X155972419Y-70138973D01*
X155972419Y-70138973D02*
X156020038Y-70043735D01*
X156020038Y-70043735D02*
X156115276Y-69948497D01*
X156115276Y-69948497D02*
X156305752Y-69900878D01*
X156305752Y-69900878D02*
X156639085Y-69900878D01*
X156639085Y-69900878D02*
X156829561Y-69948497D01*
X156829561Y-69948497D02*
X156924800Y-70043735D01*
X156924800Y-70043735D02*
X156972419Y-70138973D01*
X156972419Y-70138973D02*
X156972419Y-70329449D01*
X159424800Y-72043734D02*
X159472419Y-71900877D01*
X159472419Y-71900877D02*
X159472419Y-71662782D01*
X159472419Y-71662782D02*
X159424800Y-71567544D01*
X159424800Y-71567544D02*
X159377180Y-71519925D01*
X159377180Y-71519925D02*
X159281942Y-71472306D01*
X159281942Y-71472306D02*
X159186704Y-71472306D01*
X159186704Y-71472306D02*
X159091466Y-71519925D01*
X159091466Y-71519925D02*
X159043847Y-71567544D01*
X159043847Y-71567544D02*
X158996228Y-71662782D01*
X158996228Y-71662782D02*
X158948609Y-71853258D01*
X158948609Y-71853258D02*
X158900990Y-71948496D01*
X158900990Y-71948496D02*
X158853371Y-71996115D01*
X158853371Y-71996115D02*
X158758133Y-72043734D01*
X158758133Y-72043734D02*
X158662895Y-72043734D01*
X158662895Y-72043734D02*
X158567657Y-71996115D01*
X158567657Y-71996115D02*
X158520038Y-71948496D01*
X158520038Y-71948496D02*
X158472419Y-71853258D01*
X158472419Y-71853258D02*
X158472419Y-71615163D01*
X158472419Y-71615163D02*
X158520038Y-71472306D01*
X158996228Y-70853258D02*
X159472419Y-70853258D01*
X158472419Y-71186591D02*
X158996228Y-70853258D01*
X158996228Y-70853258D02*
X158472419Y-70519925D01*
X159472419Y-70186591D02*
X158472419Y-70186591D01*
X158472419Y-70186591D02*
X159472419Y-69615163D01*
X159472419Y-69615163D02*
X158472419Y-69615163D01*
X159377180Y-68567544D02*
X159424800Y-68615163D01*
X159424800Y-68615163D02*
X159472419Y-68758020D01*
X159472419Y-68758020D02*
X159472419Y-68853258D01*
X159472419Y-68853258D02*
X159424800Y-68996115D01*
X159424800Y-68996115D02*
X159329561Y-69091353D01*
X159329561Y-69091353D02*
X159234323Y-69138972D01*
X159234323Y-69138972D02*
X159043847Y-69186591D01*
X159043847Y-69186591D02*
X158900990Y-69186591D01*
X158900990Y-69186591D02*
X158710514Y-69138972D01*
X158710514Y-69138972D02*
X158615276Y-69091353D01*
X158615276Y-69091353D02*
X158520038Y-68996115D01*
X158520038Y-68996115D02*
X158472419Y-68853258D01*
X158472419Y-68853258D02*
X158472419Y-68758020D01*
X158472419Y-68758020D02*
X158520038Y-68615163D01*
X158520038Y-68615163D02*
X158567657Y-68567544D01*
X161977180Y-71524687D02*
X162024800Y-71572306D01*
X162024800Y-71572306D02*
X162072419Y-71715163D01*
X162072419Y-71715163D02*
X162072419Y-71810401D01*
X162072419Y-71810401D02*
X162024800Y-71953258D01*
X162024800Y-71953258D02*
X161929561Y-72048496D01*
X161929561Y-72048496D02*
X161834323Y-72096115D01*
X161834323Y-72096115D02*
X161643847Y-72143734D01*
X161643847Y-72143734D02*
X161500990Y-72143734D01*
X161500990Y-72143734D02*
X161310514Y-72096115D01*
X161310514Y-72096115D02*
X161215276Y-72048496D01*
X161215276Y-72048496D02*
X161120038Y-71953258D01*
X161120038Y-71953258D02*
X161072419Y-71810401D01*
X161072419Y-71810401D02*
X161072419Y-71715163D01*
X161072419Y-71715163D02*
X161120038Y-71572306D01*
X161120038Y-71572306D02*
X161167657Y-71524687D01*
X162072419Y-70619925D02*
X162072419Y-71096115D01*
X162072419Y-71096115D02*
X161072419Y-71096115D01*
X162072419Y-70286591D02*
X161072419Y-70286591D01*
X162072419Y-69715163D02*
X161500990Y-70143734D01*
X161072419Y-69715163D02*
X161643847Y-70286591D01*
X194827693Y-85720038D02*
X194732455Y-85672419D01*
X194732455Y-85672419D02*
X194589598Y-85672419D01*
X194589598Y-85672419D02*
X194446741Y-85720038D01*
X194446741Y-85720038D02*
X194351503Y-85815276D01*
X194351503Y-85815276D02*
X194303884Y-85910514D01*
X194303884Y-85910514D02*
X194256265Y-86100990D01*
X194256265Y-86100990D02*
X194256265Y-86243847D01*
X194256265Y-86243847D02*
X194303884Y-86434323D01*
X194303884Y-86434323D02*
X194351503Y-86529561D01*
X194351503Y-86529561D02*
X194446741Y-86624800D01*
X194446741Y-86624800D02*
X194589598Y-86672419D01*
X194589598Y-86672419D02*
X194684836Y-86672419D01*
X194684836Y-86672419D02*
X194827693Y-86624800D01*
X194827693Y-86624800D02*
X194875312Y-86577180D01*
X194875312Y-86577180D02*
X194875312Y-86243847D01*
X194875312Y-86243847D02*
X194684836Y-86243847D01*
X195303884Y-86672419D02*
X195303884Y-85672419D01*
X195303884Y-85672419D02*
X195875312Y-86672419D01*
X195875312Y-86672419D02*
X195875312Y-85672419D01*
X196351503Y-86672419D02*
X196351503Y-85672419D01*
X196351503Y-85672419D02*
X196589598Y-85672419D01*
X196589598Y-85672419D02*
X196732455Y-85720038D01*
X196732455Y-85720038D02*
X196827693Y-85815276D01*
X196827693Y-85815276D02*
X196875312Y-85910514D01*
X196875312Y-85910514D02*
X196922931Y-86100990D01*
X196922931Y-86100990D02*
X196922931Y-86243847D01*
X196922931Y-86243847D02*
X196875312Y-86434323D01*
X196875312Y-86434323D02*
X196827693Y-86529561D01*
X196827693Y-86529561D02*
X196732455Y-86624800D01*
X196732455Y-86624800D02*
X196589598Y-86672419D01*
X196589598Y-86672419D02*
X196351503Y-86672419D01*
X194637217Y-83548609D02*
X194780074Y-83596228D01*
X194780074Y-83596228D02*
X194827693Y-83643847D01*
X194827693Y-83643847D02*
X194875312Y-83739085D01*
X194875312Y-83739085D02*
X194875312Y-83881942D01*
X194875312Y-83881942D02*
X194827693Y-83977180D01*
X194827693Y-83977180D02*
X194780074Y-84024800D01*
X194780074Y-84024800D02*
X194684836Y-84072419D01*
X194684836Y-84072419D02*
X194303884Y-84072419D01*
X194303884Y-84072419D02*
X194303884Y-83072419D01*
X194303884Y-83072419D02*
X194637217Y-83072419D01*
X194637217Y-83072419D02*
X194732455Y-83120038D01*
X194732455Y-83120038D02*
X194780074Y-83167657D01*
X194780074Y-83167657D02*
X194827693Y-83262895D01*
X194827693Y-83262895D02*
X194827693Y-83358133D01*
X194827693Y-83358133D02*
X194780074Y-83453371D01*
X194780074Y-83453371D02*
X194732455Y-83500990D01*
X194732455Y-83500990D02*
X194637217Y-83548609D01*
X194637217Y-83548609D02*
X194303884Y-83548609D01*
X195303884Y-83548609D02*
X195637217Y-83548609D01*
X195780074Y-84072419D02*
X195303884Y-84072419D01*
X195303884Y-84072419D02*
X195303884Y-83072419D01*
X195303884Y-83072419D02*
X195780074Y-83072419D01*
X194875312Y-81572419D02*
X194541979Y-81096228D01*
X194303884Y-81572419D02*
X194303884Y-80572419D01*
X194303884Y-80572419D02*
X194684836Y-80572419D01*
X194684836Y-80572419D02*
X194780074Y-80620038D01*
X194780074Y-80620038D02*
X194827693Y-80667657D01*
X194827693Y-80667657D02*
X194875312Y-80762895D01*
X194875312Y-80762895D02*
X194875312Y-80905752D01*
X194875312Y-80905752D02*
X194827693Y-81000990D01*
X194827693Y-81000990D02*
X194780074Y-81048609D01*
X194780074Y-81048609D02*
X194684836Y-81096228D01*
X194684836Y-81096228D02*
X194303884Y-81096228D01*
X195303884Y-81572419D02*
X195303884Y-80572419D01*
X195303884Y-80572419D02*
X195541979Y-80572419D01*
X195541979Y-80572419D02*
X195684836Y-80620038D01*
X195684836Y-80620038D02*
X195780074Y-80715276D01*
X195780074Y-80715276D02*
X195827693Y-80810514D01*
X195827693Y-80810514D02*
X195875312Y-81000990D01*
X195875312Y-81000990D02*
X195875312Y-81143847D01*
X195875312Y-81143847D02*
X195827693Y-81334323D01*
X195827693Y-81334323D02*
X195780074Y-81429561D01*
X195780074Y-81429561D02*
X195684836Y-81524800D01*
X195684836Y-81524800D02*
X195541979Y-81572419D01*
X195541979Y-81572419D02*
X195303884Y-81572419D01*
X196494360Y-81096228D02*
X196494360Y-81572419D01*
X196161027Y-80572419D02*
X196494360Y-81096228D01*
X196494360Y-81096228D02*
X196827693Y-80572419D01*
X194256265Y-78824800D02*
X194399122Y-78872419D01*
X194399122Y-78872419D02*
X194637217Y-78872419D01*
X194637217Y-78872419D02*
X194732455Y-78824800D01*
X194732455Y-78824800D02*
X194780074Y-78777180D01*
X194780074Y-78777180D02*
X194827693Y-78681942D01*
X194827693Y-78681942D02*
X194827693Y-78586704D01*
X194827693Y-78586704D02*
X194780074Y-78491466D01*
X194780074Y-78491466D02*
X194732455Y-78443847D01*
X194732455Y-78443847D02*
X194637217Y-78396228D01*
X194637217Y-78396228D02*
X194446741Y-78348609D01*
X194446741Y-78348609D02*
X194351503Y-78300990D01*
X194351503Y-78300990D02*
X194303884Y-78253371D01*
X194303884Y-78253371D02*
X194256265Y-78158133D01*
X194256265Y-78158133D02*
X194256265Y-78062895D01*
X194256265Y-78062895D02*
X194303884Y-77967657D01*
X194303884Y-77967657D02*
X194351503Y-77920038D01*
X194351503Y-77920038D02*
X194446741Y-77872419D01*
X194446741Y-77872419D02*
X194684836Y-77872419D01*
X194684836Y-77872419D02*
X194827693Y-77920038D01*
X195446741Y-78396228D02*
X195446741Y-78872419D01*
X195113408Y-77872419D02*
X195446741Y-78396228D01*
X195446741Y-78396228D02*
X195780074Y-77872419D01*
X196113408Y-78872419D02*
X196113408Y-77872419D01*
X196113408Y-77872419D02*
X196684836Y-78872419D01*
X196684836Y-78872419D02*
X196684836Y-77872419D01*
X197732455Y-78777180D02*
X197684836Y-78824800D01*
X197684836Y-78824800D02*
X197541979Y-78872419D01*
X197541979Y-78872419D02*
X197446741Y-78872419D01*
X197446741Y-78872419D02*
X197303884Y-78824800D01*
X197303884Y-78824800D02*
X197208646Y-78729561D01*
X197208646Y-78729561D02*
X197161027Y-78634323D01*
X197161027Y-78634323D02*
X197113408Y-78443847D01*
X197113408Y-78443847D02*
X197113408Y-78300990D01*
X197113408Y-78300990D02*
X197161027Y-78110514D01*
X197161027Y-78110514D02*
X197208646Y-78015276D01*
X197208646Y-78015276D02*
X197303884Y-77920038D01*
X197303884Y-77920038D02*
X197446741Y-77872419D01*
X197446741Y-77872419D02*
X197541979Y-77872419D01*
X197541979Y-77872419D02*
X197684836Y-77920038D01*
X197684836Y-77920038D02*
X197732455Y-77967657D01*
X194775312Y-76277180D02*
X194727693Y-76324800D01*
X194727693Y-76324800D02*
X194584836Y-76372419D01*
X194584836Y-76372419D02*
X194489598Y-76372419D01*
X194489598Y-76372419D02*
X194346741Y-76324800D01*
X194346741Y-76324800D02*
X194251503Y-76229561D01*
X194251503Y-76229561D02*
X194203884Y-76134323D01*
X194203884Y-76134323D02*
X194156265Y-75943847D01*
X194156265Y-75943847D02*
X194156265Y-75800990D01*
X194156265Y-75800990D02*
X194203884Y-75610514D01*
X194203884Y-75610514D02*
X194251503Y-75515276D01*
X194251503Y-75515276D02*
X194346741Y-75420038D01*
X194346741Y-75420038D02*
X194489598Y-75372419D01*
X194489598Y-75372419D02*
X194584836Y-75372419D01*
X194584836Y-75372419D02*
X194727693Y-75420038D01*
X194727693Y-75420038D02*
X194775312Y-75467657D01*
X195680074Y-76372419D02*
X195203884Y-76372419D01*
X195203884Y-76372419D02*
X195203884Y-75372419D01*
X196013408Y-76372419D02*
X196013408Y-75372419D01*
X196584836Y-76372419D02*
X196156265Y-75800990D01*
X196584836Y-75372419D02*
X196013408Y-75943847D01*
X183656265Y-86286704D02*
X184132455Y-86286704D01*
X183561027Y-86572419D02*
X183894360Y-85572419D01*
X183894360Y-85572419D02*
X184227693Y-86572419D01*
X184751503Y-85572419D02*
X184846741Y-85572419D01*
X184846741Y-85572419D02*
X184941979Y-85620038D01*
X184941979Y-85620038D02*
X184989598Y-85667657D01*
X184989598Y-85667657D02*
X185037217Y-85762895D01*
X185037217Y-85762895D02*
X185084836Y-85953371D01*
X185084836Y-85953371D02*
X185084836Y-86191466D01*
X185084836Y-86191466D02*
X185037217Y-86381942D01*
X185037217Y-86381942D02*
X184989598Y-86477180D01*
X184989598Y-86477180D02*
X184941979Y-86524800D01*
X184941979Y-86524800D02*
X184846741Y-86572419D01*
X184846741Y-86572419D02*
X184751503Y-86572419D01*
X184751503Y-86572419D02*
X184656265Y-86524800D01*
X184656265Y-86524800D02*
X184608646Y-86477180D01*
X184608646Y-86477180D02*
X184561027Y-86381942D01*
X184561027Y-86381942D02*
X184513408Y-86191466D01*
X184513408Y-86191466D02*
X184513408Y-85953371D01*
X184513408Y-85953371D02*
X184561027Y-85762895D01*
X184561027Y-85762895D02*
X184608646Y-85667657D01*
X184608646Y-85667657D02*
X184656265Y-85620038D01*
X184656265Y-85620038D02*
X184751503Y-85572419D01*
X183456265Y-48186704D02*
X183932455Y-48186704D01*
X183361027Y-48472419D02*
X183694360Y-47472419D01*
X183694360Y-47472419D02*
X184027693Y-48472419D01*
X184884836Y-48472419D02*
X184313408Y-48472419D01*
X184599122Y-48472419D02*
X184599122Y-47472419D01*
X184599122Y-47472419D02*
X184503884Y-47615276D01*
X184503884Y-47615276D02*
X184408646Y-47710514D01*
X184408646Y-47710514D02*
X184313408Y-47758133D01*
X185789598Y-47472419D02*
X185313408Y-47472419D01*
X185313408Y-47472419D02*
X185265789Y-47948609D01*
X185265789Y-47948609D02*
X185313408Y-47900990D01*
X185313408Y-47900990D02*
X185408646Y-47853371D01*
X185408646Y-47853371D02*
X185646741Y-47853371D01*
X185646741Y-47853371D02*
X185741979Y-47900990D01*
X185741979Y-47900990D02*
X185789598Y-47948609D01*
X185789598Y-47948609D02*
X185837217Y-48043847D01*
X185837217Y-48043847D02*
X185837217Y-48281942D01*
X185837217Y-48281942D02*
X185789598Y-48377180D01*
X185789598Y-48377180D02*
X185741979Y-48424800D01*
X185741979Y-48424800D02*
X185646741Y-48472419D01*
X185646741Y-48472419D02*
X185408646Y-48472419D01*
X185408646Y-48472419D02*
X185313408Y-48424800D01*
X185313408Y-48424800D02*
X185265789Y-48377180D01*
X194803884Y-48472419D02*
X194803884Y-47472419D01*
X194803884Y-47472419D02*
X195041979Y-47472419D01*
X195041979Y-47472419D02*
X195184836Y-47520038D01*
X195184836Y-47520038D02*
X195280074Y-47615276D01*
X195280074Y-47615276D02*
X195327693Y-47710514D01*
X195327693Y-47710514D02*
X195375312Y-47900990D01*
X195375312Y-47900990D02*
X195375312Y-48043847D01*
X195375312Y-48043847D02*
X195327693Y-48234323D01*
X195327693Y-48234323D02*
X195280074Y-48329561D01*
X195280074Y-48329561D02*
X195184836Y-48424800D01*
X195184836Y-48424800D02*
X195041979Y-48472419D01*
X195041979Y-48472419D02*
X194803884Y-48472419D01*
X195708646Y-47472419D02*
X196375312Y-47472419D01*
X196375312Y-47472419D02*
X195946741Y-48472419D01*
X194703884Y-66372419D02*
X194703884Y-65372419D01*
X194703884Y-65372419D02*
X194941979Y-65372419D01*
X194941979Y-65372419D02*
X195084836Y-65420038D01*
X195084836Y-65420038D02*
X195180074Y-65515276D01*
X195180074Y-65515276D02*
X195227693Y-65610514D01*
X195227693Y-65610514D02*
X195275312Y-65800990D01*
X195275312Y-65800990D02*
X195275312Y-65943847D01*
X195275312Y-65943847D02*
X195227693Y-66134323D01*
X195227693Y-66134323D02*
X195180074Y-66229561D01*
X195180074Y-66229561D02*
X195084836Y-66324800D01*
X195084836Y-66324800D02*
X194941979Y-66372419D01*
X194941979Y-66372419D02*
X194703884Y-66372419D01*
X195894360Y-65372419D02*
X195989598Y-65372419D01*
X195989598Y-65372419D02*
X196084836Y-65420038D01*
X196084836Y-65420038D02*
X196132455Y-65467657D01*
X196132455Y-65467657D02*
X196180074Y-65562895D01*
X196180074Y-65562895D02*
X196227693Y-65753371D01*
X196227693Y-65753371D02*
X196227693Y-65991466D01*
X196227693Y-65991466D02*
X196180074Y-66181942D01*
X196180074Y-66181942D02*
X196132455Y-66277180D01*
X196132455Y-66277180D02*
X196084836Y-66324800D01*
X196084836Y-66324800D02*
X195989598Y-66372419D01*
X195989598Y-66372419D02*
X195894360Y-66372419D01*
X195894360Y-66372419D02*
X195799122Y-66324800D01*
X195799122Y-66324800D02*
X195751503Y-66277180D01*
X195751503Y-66277180D02*
X195703884Y-66181942D01*
X195703884Y-66181942D02*
X195656265Y-65991466D01*
X195656265Y-65991466D02*
X195656265Y-65753371D01*
X195656265Y-65753371D02*
X195703884Y-65562895D01*
X195703884Y-65562895D02*
X195751503Y-65467657D01*
X195751503Y-65467657D02*
X195799122Y-65420038D01*
X195799122Y-65420038D02*
X195894360Y-65372419D01*
D11*
X137177442Y-94512057D02*
X137177442Y-91512057D01*
X137177442Y-91512057D02*
X138177442Y-93654914D01*
X138177442Y-93654914D02*
X139177442Y-91512057D01*
X139177442Y-91512057D02*
X139177442Y-94512057D01*
X140606013Y-94512057D02*
X140606013Y-91512057D01*
X143748870Y-94226342D02*
X143606013Y-94369200D01*
X143606013Y-94369200D02*
X143177441Y-94512057D01*
X143177441Y-94512057D02*
X142891727Y-94512057D01*
X142891727Y-94512057D02*
X142463156Y-94369200D01*
X142463156Y-94369200D02*
X142177441Y-94083485D01*
X142177441Y-94083485D02*
X142034584Y-93797771D01*
X142034584Y-93797771D02*
X141891727Y-93226342D01*
X141891727Y-93226342D02*
X141891727Y-92797771D01*
X141891727Y-92797771D02*
X142034584Y-92226342D01*
X142034584Y-92226342D02*
X142177441Y-91940628D01*
X142177441Y-91940628D02*
X142463156Y-91654914D01*
X142463156Y-91654914D02*
X142891727Y-91512057D01*
X142891727Y-91512057D02*
X143177441Y-91512057D01*
X143177441Y-91512057D02*
X143606013Y-91654914D01*
X143606013Y-91654914D02*
X143748870Y-91797771D01*
X145034584Y-93369200D02*
X147320299Y-93369200D01*
X150320299Y-94512057D02*
X148606013Y-94512057D01*
X149463156Y-94512057D02*
X149463156Y-91512057D01*
X149463156Y-91512057D02*
X149177442Y-91940628D01*
X149177442Y-91940628D02*
X148891727Y-92226342D01*
X148891727Y-92226342D02*
X148606013Y-92369200D01*
X155606013Y-94226342D02*
X155463156Y-94369200D01*
X155463156Y-94369200D02*
X155034584Y-94512057D01*
X155034584Y-94512057D02*
X154748870Y-94512057D01*
X154748870Y-94512057D02*
X154320299Y-94369200D01*
X154320299Y-94369200D02*
X154034584Y-94083485D01*
X154034584Y-94083485D02*
X153891727Y-93797771D01*
X153891727Y-93797771D02*
X153748870Y-93226342D01*
X153748870Y-93226342D02*
X153748870Y-92797771D01*
X153748870Y-92797771D02*
X153891727Y-92226342D01*
X153891727Y-92226342D02*
X154034584Y-91940628D01*
X154034584Y-91940628D02*
X154320299Y-91654914D01*
X154320299Y-91654914D02*
X154748870Y-91512057D01*
X154748870Y-91512057D02*
X155034584Y-91512057D01*
X155034584Y-91512057D02*
X155463156Y-91654914D01*
X155463156Y-91654914D02*
X155606013Y-91797771D01*
X157463156Y-91512057D02*
X158034584Y-91512057D01*
X158034584Y-91512057D02*
X158320299Y-91654914D01*
X158320299Y-91654914D02*
X158606013Y-91940628D01*
X158606013Y-91940628D02*
X158748870Y-92512057D01*
X158748870Y-92512057D02*
X158748870Y-93512057D01*
X158748870Y-93512057D02*
X158606013Y-94083485D01*
X158606013Y-94083485D02*
X158320299Y-94369200D01*
X158320299Y-94369200D02*
X158034584Y-94512057D01*
X158034584Y-94512057D02*
X157463156Y-94512057D01*
X157463156Y-94512057D02*
X157177442Y-94369200D01*
X157177442Y-94369200D02*
X156891727Y-94083485D01*
X156891727Y-94083485D02*
X156748870Y-93512057D01*
X156748870Y-93512057D02*
X156748870Y-92512057D01*
X156748870Y-92512057D02*
X156891727Y-91940628D01*
X156891727Y-91940628D02*
X157177442Y-91654914D01*
X157177442Y-91654914D02*
X157463156Y-91512057D01*
X160034584Y-94512057D02*
X160034584Y-91512057D01*
X160034584Y-91512057D02*
X161034584Y-93654914D01*
X161034584Y-93654914D02*
X162034584Y-91512057D01*
X162034584Y-91512057D02*
X162034584Y-94512057D01*
X163463155Y-94512057D02*
X163463155Y-91512057D01*
X163463155Y-91512057D02*
X164606012Y-91512057D01*
X164606012Y-91512057D02*
X164891727Y-91654914D01*
X164891727Y-91654914D02*
X165034584Y-91797771D01*
X165034584Y-91797771D02*
X165177441Y-92083485D01*
X165177441Y-92083485D02*
X165177441Y-92512057D01*
X165177441Y-92512057D02*
X165034584Y-92797771D01*
X165034584Y-92797771D02*
X164891727Y-92940628D01*
X164891727Y-92940628D02*
X164606012Y-93083485D01*
X164606012Y-93083485D02*
X163463155Y-93083485D01*
X166463155Y-91512057D02*
X166463155Y-93940628D01*
X166463155Y-93940628D02*
X166606012Y-94226342D01*
X166606012Y-94226342D02*
X166748870Y-94369200D01*
X166748870Y-94369200D02*
X167034584Y-94512057D01*
X167034584Y-94512057D02*
X167606012Y-94512057D01*
X167606012Y-94512057D02*
X167891727Y-94369200D01*
X167891727Y-94369200D02*
X168034584Y-94226342D01*
X168034584Y-94226342D02*
X168177441Y-93940628D01*
X168177441Y-93940628D02*
X168177441Y-91512057D01*
X169177441Y-91512057D02*
X170891727Y-91512057D01*
X170034584Y-94512057D02*
X170034584Y-91512057D01*
X171891726Y-92940628D02*
X172891726Y-92940628D01*
X173320298Y-94512057D02*
X171891726Y-94512057D01*
X171891726Y-94512057D02*
X171891726Y-91512057D01*
X171891726Y-91512057D02*
X173320298Y-91512057D01*
X176320298Y-94512057D02*
X175320298Y-93083485D01*
X174606012Y-94512057D02*
X174606012Y-91512057D01*
X174606012Y-91512057D02*
X175748869Y-91512057D01*
X175748869Y-91512057D02*
X176034584Y-91654914D01*
X176034584Y-91654914D02*
X176177441Y-91797771D01*
X176177441Y-91797771D02*
X176320298Y-92083485D01*
X176320298Y-92083485D02*
X176320298Y-92512057D01*
X176320298Y-92512057D02*
X176177441Y-92797771D01*
X176177441Y-92797771D02*
X176034584Y-92940628D01*
X176034584Y-92940628D02*
X175748869Y-93083485D01*
X175748869Y-93083485D02*
X174606012Y-93083485D01*
D12*
X163765350Y-96269819D02*
X163765350Y-95269819D01*
X163765350Y-96222200D02*
X163670112Y-96269819D01*
X163670112Y-96269819D02*
X163479636Y-96269819D01*
X163479636Y-96269819D02*
X163384398Y-96222200D01*
X163384398Y-96222200D02*
X163336779Y-96174580D01*
X163336779Y-96174580D02*
X163289160Y-96079342D01*
X163289160Y-96079342D02*
X163289160Y-95793628D01*
X163289160Y-95793628D02*
X163336779Y-95698390D01*
X163336779Y-95698390D02*
X163384398Y-95650771D01*
X163384398Y-95650771D02*
X163479636Y-95603152D01*
X163479636Y-95603152D02*
X163670112Y-95603152D01*
X163670112Y-95603152D02*
X163765350Y-95650771D01*
X164622493Y-96222200D02*
X164527255Y-96269819D01*
X164527255Y-96269819D02*
X164336779Y-96269819D01*
X164336779Y-96269819D02*
X164241541Y-96222200D01*
X164241541Y-96222200D02*
X164193922Y-96126961D01*
X164193922Y-96126961D02*
X164193922Y-95746009D01*
X164193922Y-95746009D02*
X164241541Y-95650771D01*
X164241541Y-95650771D02*
X164336779Y-95603152D01*
X164336779Y-95603152D02*
X164527255Y-95603152D01*
X164527255Y-95603152D02*
X164622493Y-95650771D01*
X164622493Y-95650771D02*
X164670112Y-95746009D01*
X164670112Y-95746009D02*
X164670112Y-95841247D01*
X164670112Y-95841247D02*
X164193922Y-95936485D01*
X165098684Y-96269819D02*
X165098684Y-95269819D01*
X165098684Y-95650771D02*
X165193922Y-95603152D01*
X165193922Y-95603152D02*
X165384398Y-95603152D01*
X165384398Y-95603152D02*
X165479636Y-95650771D01*
X165479636Y-95650771D02*
X165527255Y-95698390D01*
X165527255Y-95698390D02*
X165574874Y-95793628D01*
X165574874Y-95793628D02*
X165574874Y-96079342D01*
X165574874Y-96079342D02*
X165527255Y-96174580D01*
X165527255Y-96174580D02*
X165479636Y-96222200D01*
X165479636Y-96222200D02*
X165384398Y-96269819D01*
X165384398Y-96269819D02*
X165193922Y-96269819D01*
X165193922Y-96269819D02*
X165098684Y-96222200D01*
X166432017Y-95603152D02*
X166432017Y-96269819D01*
X166003446Y-95603152D02*
X166003446Y-96126961D01*
X166003446Y-96126961D02*
X166051065Y-96222200D01*
X166051065Y-96222200D02*
X166146303Y-96269819D01*
X166146303Y-96269819D02*
X166289160Y-96269819D01*
X166289160Y-96269819D02*
X166384398Y-96222200D01*
X166384398Y-96222200D02*
X166432017Y-96174580D01*
X167336779Y-95603152D02*
X167336779Y-96412676D01*
X167336779Y-96412676D02*
X167289160Y-96507914D01*
X167289160Y-96507914D02*
X167241541Y-96555533D01*
X167241541Y-96555533D02*
X167146303Y-96603152D01*
X167146303Y-96603152D02*
X167003446Y-96603152D01*
X167003446Y-96603152D02*
X166908208Y-96555533D01*
X167336779Y-96222200D02*
X167241541Y-96269819D01*
X167241541Y-96269819D02*
X167051065Y-96269819D01*
X167051065Y-96269819D02*
X166955827Y-96222200D01*
X166955827Y-96222200D02*
X166908208Y-96174580D01*
X166908208Y-96174580D02*
X166860589Y-96079342D01*
X166860589Y-96079342D02*
X166860589Y-95793628D01*
X166860589Y-95793628D02*
X166908208Y-95698390D01*
X166908208Y-95698390D02*
X166955827Y-95650771D01*
X166955827Y-95650771D02*
X167051065Y-95603152D01*
X167051065Y-95603152D02*
X167241541Y-95603152D01*
X167241541Y-95603152D02*
X167336779Y-95650771D01*
X168574875Y-96269819D02*
X168574875Y-95269819D01*
X168574875Y-95650771D02*
X168670113Y-95603152D01*
X168670113Y-95603152D02*
X168860589Y-95603152D01*
X168860589Y-95603152D02*
X168955827Y-95650771D01*
X168955827Y-95650771D02*
X169003446Y-95698390D01*
X169003446Y-95698390D02*
X169051065Y-95793628D01*
X169051065Y-95793628D02*
X169051065Y-96079342D01*
X169051065Y-96079342D02*
X169003446Y-96174580D01*
X169003446Y-96174580D02*
X168955827Y-96222200D01*
X168955827Y-96222200D02*
X168860589Y-96269819D01*
X168860589Y-96269819D02*
X168670113Y-96269819D01*
X168670113Y-96269819D02*
X168574875Y-96222200D01*
X169622494Y-96269819D02*
X169527256Y-96222200D01*
X169527256Y-96222200D02*
X169479637Y-96174580D01*
X169479637Y-96174580D02*
X169432018Y-96079342D01*
X169432018Y-96079342D02*
X169432018Y-95793628D01*
X169432018Y-95793628D02*
X169479637Y-95698390D01*
X169479637Y-95698390D02*
X169527256Y-95650771D01*
X169527256Y-95650771D02*
X169622494Y-95603152D01*
X169622494Y-95603152D02*
X169765351Y-95603152D01*
X169765351Y-95603152D02*
X169860589Y-95650771D01*
X169860589Y-95650771D02*
X169908208Y-95698390D01*
X169908208Y-95698390D02*
X169955827Y-95793628D01*
X169955827Y-95793628D02*
X169955827Y-96079342D01*
X169955827Y-96079342D02*
X169908208Y-96174580D01*
X169908208Y-96174580D02*
X169860589Y-96222200D01*
X169860589Y-96222200D02*
X169765351Y-96269819D01*
X169765351Y-96269819D02*
X169622494Y-96269819D01*
X170812970Y-96269819D02*
X170812970Y-95746009D01*
X170812970Y-95746009D02*
X170765351Y-95650771D01*
X170765351Y-95650771D02*
X170670113Y-95603152D01*
X170670113Y-95603152D02*
X170479637Y-95603152D01*
X170479637Y-95603152D02*
X170384399Y-95650771D01*
X170812970Y-96222200D02*
X170717732Y-96269819D01*
X170717732Y-96269819D02*
X170479637Y-96269819D01*
X170479637Y-96269819D02*
X170384399Y-96222200D01*
X170384399Y-96222200D02*
X170336780Y-96126961D01*
X170336780Y-96126961D02*
X170336780Y-96031723D01*
X170336780Y-96031723D02*
X170384399Y-95936485D01*
X170384399Y-95936485D02*
X170479637Y-95888866D01*
X170479637Y-95888866D02*
X170717732Y-95888866D01*
X170717732Y-95888866D02*
X170812970Y-95841247D01*
X171289161Y-96269819D02*
X171289161Y-95603152D01*
X171289161Y-95793628D02*
X171336780Y-95698390D01*
X171336780Y-95698390D02*
X171384399Y-95650771D01*
X171384399Y-95650771D02*
X171479637Y-95603152D01*
X171479637Y-95603152D02*
X171574875Y-95603152D01*
X172336780Y-96269819D02*
X172336780Y-95269819D01*
X172336780Y-96222200D02*
X172241542Y-96269819D01*
X172241542Y-96269819D02*
X172051066Y-96269819D01*
X172051066Y-96269819D02*
X171955828Y-96222200D01*
X171955828Y-96222200D02*
X171908209Y-96174580D01*
X171908209Y-96174580D02*
X171860590Y-96079342D01*
X171860590Y-96079342D02*
X171860590Y-95793628D01*
X171860590Y-95793628D02*
X171908209Y-95698390D01*
X171908209Y-95698390D02*
X171955828Y-95650771D01*
X171955828Y-95650771D02*
X172051066Y-95603152D01*
X172051066Y-95603152D02*
X172241542Y-95603152D01*
X172241542Y-95603152D02*
X172336780Y-95650771D01*
X173479638Y-95603152D02*
X173717733Y-96269819D01*
X173717733Y-96269819D02*
X173955828Y-95603152D01*
X174860590Y-96269819D02*
X174289162Y-96269819D01*
X174574876Y-96269819D02*
X174574876Y-95269819D01*
X174574876Y-95269819D02*
X174479638Y-95412676D01*
X174479638Y-95412676D02*
X174384400Y-95507914D01*
X174384400Y-95507914D02*
X174289162Y-95555533D01*
X175289162Y-96174580D02*
X175336781Y-96222200D01*
X175336781Y-96222200D02*
X175289162Y-96269819D01*
X175289162Y-96269819D02*
X175241543Y-96222200D01*
X175241543Y-96222200D02*
X175289162Y-96174580D01*
X175289162Y-96174580D02*
X175289162Y-96269819D01*
X175955828Y-95269819D02*
X176051066Y-95269819D01*
X176051066Y-95269819D02*
X176146304Y-95317438D01*
X176146304Y-95317438D02*
X176193923Y-95365057D01*
X176193923Y-95365057D02*
X176241542Y-95460295D01*
X176241542Y-95460295D02*
X176289161Y-95650771D01*
X176289161Y-95650771D02*
X176289161Y-95888866D01*
X176289161Y-95888866D02*
X176241542Y-96079342D01*
X176241542Y-96079342D02*
X176193923Y-96174580D01*
X176193923Y-96174580D02*
X176146304Y-96222200D01*
X176146304Y-96222200D02*
X176051066Y-96269819D01*
X176051066Y-96269819D02*
X175955828Y-96269819D01*
X175955828Y-96269819D02*
X175860590Y-96222200D01*
X175860590Y-96222200D02*
X175812971Y-96174580D01*
X175812971Y-96174580D02*
X175765352Y-96079342D01*
X175765352Y-96079342D02*
X175717733Y-95888866D01*
X175717733Y-95888866D02*
X175717733Y-95650771D01*
X175717733Y-95650771D02*
X175765352Y-95460295D01*
X175765352Y-95460295D02*
X175812971Y-95365057D01*
X175812971Y-95365057D02*
X175860590Y-95317438D01*
X175860590Y-95317438D02*
X175955828Y-95269819D01*
D13*
X54023095Y-87974318D02*
X53599761Y-87369556D01*
X53297380Y-87974318D02*
X53297380Y-86704318D01*
X53297380Y-86704318D02*
X53781190Y-86704318D01*
X53781190Y-86704318D02*
X53902142Y-86764794D01*
X53902142Y-86764794D02*
X53962619Y-86825270D01*
X53962619Y-86825270D02*
X54023095Y-86946222D01*
X54023095Y-86946222D02*
X54023095Y-87127651D01*
X54023095Y-87127651D02*
X53962619Y-87248603D01*
X53962619Y-87248603D02*
X53902142Y-87309080D01*
X53902142Y-87309080D02*
X53781190Y-87369556D01*
X53781190Y-87369556D02*
X53297380Y-87369556D01*
X54567380Y-87974318D02*
X54567380Y-86704318D01*
X54567380Y-86704318D02*
X55293095Y-87974318D01*
X55293095Y-87974318D02*
X55293095Y-86704318D01*
X55776904Y-86704318D02*
X56563095Y-86704318D01*
X56563095Y-86704318D02*
X56139761Y-87188127D01*
X56139761Y-87188127D02*
X56321190Y-87188127D01*
X56321190Y-87188127D02*
X56442142Y-87248603D01*
X56442142Y-87248603D02*
X56502618Y-87309080D01*
X56502618Y-87309080D02*
X56563095Y-87430032D01*
X56563095Y-87430032D02*
X56563095Y-87732413D01*
X56563095Y-87732413D02*
X56502618Y-87853365D01*
X56502618Y-87853365D02*
X56442142Y-87913842D01*
X56442142Y-87913842D02*
X56321190Y-87974318D01*
X56321190Y-87974318D02*
X55958333Y-87974318D01*
X55958333Y-87974318D02*
X55837380Y-87913842D01*
X55837380Y-87913842D02*
X55776904Y-87853365D01*
X85423095Y-87974318D02*
X84999761Y-87369556D01*
X84697380Y-87974318D02*
X84697380Y-86704318D01*
X84697380Y-86704318D02*
X85181190Y-86704318D01*
X85181190Y-86704318D02*
X85302142Y-86764794D01*
X85302142Y-86764794D02*
X85362619Y-86825270D01*
X85362619Y-86825270D02*
X85423095Y-86946222D01*
X85423095Y-86946222D02*
X85423095Y-87127651D01*
X85423095Y-87127651D02*
X85362619Y-87248603D01*
X85362619Y-87248603D02*
X85302142Y-87309080D01*
X85302142Y-87309080D02*
X85181190Y-87369556D01*
X85181190Y-87369556D02*
X84697380Y-87369556D01*
X85967380Y-87974318D02*
X85967380Y-86704318D01*
X85967380Y-86704318D02*
X86693095Y-87974318D01*
X86693095Y-87974318D02*
X86693095Y-86704318D01*
X87237380Y-86825270D02*
X87297856Y-86764794D01*
X87297856Y-86764794D02*
X87418809Y-86704318D01*
X87418809Y-86704318D02*
X87721190Y-86704318D01*
X87721190Y-86704318D02*
X87842142Y-86764794D01*
X87842142Y-86764794D02*
X87902618Y-86825270D01*
X87902618Y-86825270D02*
X87963095Y-86946222D01*
X87963095Y-86946222D02*
X87963095Y-87067175D01*
X87963095Y-87067175D02*
X87902618Y-87248603D01*
X87902618Y-87248603D02*
X87176904Y-87974318D01*
X87176904Y-87974318D02*
X87963095Y-87974318D01*
X119223095Y-88174318D02*
X118799761Y-87569556D01*
X118497380Y-88174318D02*
X118497380Y-86904318D01*
X118497380Y-86904318D02*
X118981190Y-86904318D01*
X118981190Y-86904318D02*
X119102142Y-86964794D01*
X119102142Y-86964794D02*
X119162619Y-87025270D01*
X119162619Y-87025270D02*
X119223095Y-87146222D01*
X119223095Y-87146222D02*
X119223095Y-87327651D01*
X119223095Y-87327651D02*
X119162619Y-87448603D01*
X119162619Y-87448603D02*
X119102142Y-87509080D01*
X119102142Y-87509080D02*
X118981190Y-87569556D01*
X118981190Y-87569556D02*
X118497380Y-87569556D01*
X119767380Y-88174318D02*
X119767380Y-86904318D01*
X119767380Y-86904318D02*
X120493095Y-88174318D01*
X120493095Y-88174318D02*
X120493095Y-86904318D01*
X121763095Y-88174318D02*
X121037380Y-88174318D01*
X121400237Y-88174318D02*
X121400237Y-86904318D01*
X121400237Y-86904318D02*
X121279285Y-87085746D01*
X121279285Y-87085746D02*
X121158333Y-87206699D01*
X121158333Y-87206699D02*
X121037380Y-87267175D01*
D12*
X191666666Y-87904819D02*
X191666666Y-88619104D01*
X191666666Y-88619104D02*
X191619047Y-88761961D01*
X191619047Y-88761961D02*
X191523809Y-88857200D01*
X191523809Y-88857200D02*
X191380952Y-88904819D01*
X191380952Y-88904819D02*
X191285714Y-88904819D01*
X192571428Y-88238152D02*
X192571428Y-88904819D01*
X192333333Y-87857200D02*
X192095238Y-88571485D01*
X192095238Y-88571485D02*
X192714285Y-88571485D01*
D13*
X55157856Y-72874318D02*
X55157856Y-71604318D01*
X55157856Y-71604318D02*
X55460237Y-71604318D01*
X55460237Y-71604318D02*
X55641666Y-71664794D01*
X55641666Y-71664794D02*
X55762618Y-71785746D01*
X55762618Y-71785746D02*
X55823095Y-71906699D01*
X55823095Y-71906699D02*
X55883571Y-72148603D01*
X55883571Y-72148603D02*
X55883571Y-72330032D01*
X55883571Y-72330032D02*
X55823095Y-72571937D01*
X55823095Y-72571937D02*
X55762618Y-72692889D01*
X55762618Y-72692889D02*
X55641666Y-72813842D01*
X55641666Y-72813842D02*
X55460237Y-72874318D01*
X55460237Y-72874318D02*
X55157856Y-72874318D01*
X56367380Y-72813842D02*
X56548809Y-72874318D01*
X56548809Y-72874318D02*
X56851190Y-72874318D01*
X56851190Y-72874318D02*
X56972142Y-72813842D01*
X56972142Y-72813842D02*
X57032618Y-72753365D01*
X57032618Y-72753365D02*
X57093095Y-72632413D01*
X57093095Y-72632413D02*
X57093095Y-72511461D01*
X57093095Y-72511461D02*
X57032618Y-72390508D01*
X57032618Y-72390508D02*
X56972142Y-72330032D01*
X56972142Y-72330032D02*
X56851190Y-72269556D01*
X56851190Y-72269556D02*
X56609285Y-72209080D01*
X56609285Y-72209080D02*
X56488333Y-72148603D01*
X56488333Y-72148603D02*
X56427856Y-72088127D01*
X56427856Y-72088127D02*
X56367380Y-71967175D01*
X56367380Y-71967175D02*
X56367380Y-71846222D01*
X56367380Y-71846222D02*
X56427856Y-71725270D01*
X56427856Y-71725270D02*
X56488333Y-71664794D01*
X56488333Y-71664794D02*
X56609285Y-71604318D01*
X56609285Y-71604318D02*
X56911666Y-71604318D01*
X56911666Y-71604318D02*
X57093095Y-71664794D01*
X57516428Y-71604318D02*
X58302619Y-71604318D01*
X58302619Y-71604318D02*
X57879285Y-72088127D01*
X57879285Y-72088127D02*
X58060714Y-72088127D01*
X58060714Y-72088127D02*
X58181666Y-72148603D01*
X58181666Y-72148603D02*
X58242142Y-72209080D01*
X58242142Y-72209080D02*
X58302619Y-72330032D01*
X58302619Y-72330032D02*
X58302619Y-72632413D01*
X58302619Y-72632413D02*
X58242142Y-72753365D01*
X58242142Y-72753365D02*
X58181666Y-72813842D01*
X58181666Y-72813842D02*
X58060714Y-72874318D01*
X58060714Y-72874318D02*
X57697857Y-72874318D01*
X57697857Y-72874318D02*
X57576904Y-72813842D01*
X57576904Y-72813842D02*
X57516428Y-72753365D01*
X80957856Y-72974318D02*
X80957856Y-71704318D01*
X80957856Y-71704318D02*
X81260237Y-71704318D01*
X81260237Y-71704318D02*
X81441666Y-71764794D01*
X81441666Y-71764794D02*
X81562618Y-71885746D01*
X81562618Y-71885746D02*
X81623095Y-72006699D01*
X81623095Y-72006699D02*
X81683571Y-72248603D01*
X81683571Y-72248603D02*
X81683571Y-72430032D01*
X81683571Y-72430032D02*
X81623095Y-72671937D01*
X81623095Y-72671937D02*
X81562618Y-72792889D01*
X81562618Y-72792889D02*
X81441666Y-72913842D01*
X81441666Y-72913842D02*
X81260237Y-72974318D01*
X81260237Y-72974318D02*
X80957856Y-72974318D01*
X82167380Y-72913842D02*
X82348809Y-72974318D01*
X82348809Y-72974318D02*
X82651190Y-72974318D01*
X82651190Y-72974318D02*
X82772142Y-72913842D01*
X82772142Y-72913842D02*
X82832618Y-72853365D01*
X82832618Y-72853365D02*
X82893095Y-72732413D01*
X82893095Y-72732413D02*
X82893095Y-72611461D01*
X82893095Y-72611461D02*
X82832618Y-72490508D01*
X82832618Y-72490508D02*
X82772142Y-72430032D01*
X82772142Y-72430032D02*
X82651190Y-72369556D01*
X82651190Y-72369556D02*
X82409285Y-72309080D01*
X82409285Y-72309080D02*
X82288333Y-72248603D01*
X82288333Y-72248603D02*
X82227856Y-72188127D01*
X82227856Y-72188127D02*
X82167380Y-72067175D01*
X82167380Y-72067175D02*
X82167380Y-71946222D01*
X82167380Y-71946222D02*
X82227856Y-71825270D01*
X82227856Y-71825270D02*
X82288333Y-71764794D01*
X82288333Y-71764794D02*
X82409285Y-71704318D01*
X82409285Y-71704318D02*
X82711666Y-71704318D01*
X82711666Y-71704318D02*
X82893095Y-71764794D01*
X83376904Y-71825270D02*
X83437380Y-71764794D01*
X83437380Y-71764794D02*
X83558333Y-71704318D01*
X83558333Y-71704318D02*
X83860714Y-71704318D01*
X83860714Y-71704318D02*
X83981666Y-71764794D01*
X83981666Y-71764794D02*
X84042142Y-71825270D01*
X84042142Y-71825270D02*
X84102619Y-71946222D01*
X84102619Y-71946222D02*
X84102619Y-72067175D01*
X84102619Y-72067175D02*
X84042142Y-72248603D01*
X84042142Y-72248603D02*
X83316428Y-72974318D01*
X83316428Y-72974318D02*
X84102619Y-72974318D01*
X115157856Y-72974318D02*
X115157856Y-71704318D01*
X115157856Y-71704318D02*
X115460237Y-71704318D01*
X115460237Y-71704318D02*
X115641666Y-71764794D01*
X115641666Y-71764794D02*
X115762618Y-71885746D01*
X115762618Y-71885746D02*
X115823095Y-72006699D01*
X115823095Y-72006699D02*
X115883571Y-72248603D01*
X115883571Y-72248603D02*
X115883571Y-72430032D01*
X115883571Y-72430032D02*
X115823095Y-72671937D01*
X115823095Y-72671937D02*
X115762618Y-72792889D01*
X115762618Y-72792889D02*
X115641666Y-72913842D01*
X115641666Y-72913842D02*
X115460237Y-72974318D01*
X115460237Y-72974318D02*
X115157856Y-72974318D01*
X116367380Y-72913842D02*
X116548809Y-72974318D01*
X116548809Y-72974318D02*
X116851190Y-72974318D01*
X116851190Y-72974318D02*
X116972142Y-72913842D01*
X116972142Y-72913842D02*
X117032618Y-72853365D01*
X117032618Y-72853365D02*
X117093095Y-72732413D01*
X117093095Y-72732413D02*
X117093095Y-72611461D01*
X117093095Y-72611461D02*
X117032618Y-72490508D01*
X117032618Y-72490508D02*
X116972142Y-72430032D01*
X116972142Y-72430032D02*
X116851190Y-72369556D01*
X116851190Y-72369556D02*
X116609285Y-72309080D01*
X116609285Y-72309080D02*
X116488333Y-72248603D01*
X116488333Y-72248603D02*
X116427856Y-72188127D01*
X116427856Y-72188127D02*
X116367380Y-72067175D01*
X116367380Y-72067175D02*
X116367380Y-71946222D01*
X116367380Y-71946222D02*
X116427856Y-71825270D01*
X116427856Y-71825270D02*
X116488333Y-71764794D01*
X116488333Y-71764794D02*
X116609285Y-71704318D01*
X116609285Y-71704318D02*
X116911666Y-71704318D01*
X116911666Y-71704318D02*
X117093095Y-71764794D01*
X118302619Y-72974318D02*
X117576904Y-72974318D01*
X117939761Y-72974318D02*
X117939761Y-71704318D01*
X117939761Y-71704318D02*
X117818809Y-71885746D01*
X117818809Y-71885746D02*
X117697857Y-72006699D01*
X117697857Y-72006699D02*
X117576904Y-72067175D01*
D12*
X163382319Y-64785833D02*
X164096604Y-64785833D01*
X164096604Y-64785833D02*
X164239461Y-64833452D01*
X164239461Y-64833452D02*
X164334700Y-64928690D01*
X164334700Y-64928690D02*
X164382319Y-65071547D01*
X164382319Y-65071547D02*
X164382319Y-65166785D01*
X163382319Y-63833452D02*
X163382319Y-64309642D01*
X163382319Y-64309642D02*
X163858509Y-64357261D01*
X163858509Y-64357261D02*
X163810890Y-64309642D01*
X163810890Y-64309642D02*
X163763271Y-64214404D01*
X163763271Y-64214404D02*
X163763271Y-63976309D01*
X163763271Y-63976309D02*
X163810890Y-63881071D01*
X163810890Y-63881071D02*
X163858509Y-63833452D01*
X163858509Y-63833452D02*
X163953747Y-63785833D01*
X163953747Y-63785833D02*
X164191842Y-63785833D01*
X164191842Y-63785833D02*
X164287080Y-63833452D01*
X164287080Y-63833452D02*
X164334700Y-63881071D01*
X164334700Y-63881071D02*
X164382319Y-63976309D01*
X164382319Y-63976309D02*
X164382319Y-64214404D01*
X164382319Y-64214404D02*
X164334700Y-64309642D01*
X164334700Y-64309642D02*
X164287080Y-64357261D01*
X145954819Y-44966666D02*
X145478628Y-45299999D01*
X145954819Y-45538094D02*
X144954819Y-45538094D01*
X144954819Y-45538094D02*
X144954819Y-45157142D01*
X144954819Y-45157142D02*
X145002438Y-45061904D01*
X145002438Y-45061904D02*
X145050057Y-45014285D01*
X145050057Y-45014285D02*
X145145295Y-44966666D01*
X145145295Y-44966666D02*
X145288152Y-44966666D01*
X145288152Y-44966666D02*
X145383390Y-45014285D01*
X145383390Y-45014285D02*
X145431009Y-45061904D01*
X145431009Y-45061904D02*
X145478628Y-45157142D01*
X145478628Y-45157142D02*
X145478628Y-45538094D01*
X144954819Y-44109523D02*
X144954819Y-44299999D01*
X144954819Y-44299999D02*
X145002438Y-44395237D01*
X145002438Y-44395237D02*
X145050057Y-44442856D01*
X145050057Y-44442856D02*
X145192914Y-44538094D01*
X145192914Y-44538094D02*
X145383390Y-44585713D01*
X145383390Y-44585713D02*
X145764342Y-44585713D01*
X145764342Y-44585713D02*
X145859580Y-44538094D01*
X145859580Y-44538094D02*
X145907200Y-44490475D01*
X145907200Y-44490475D02*
X145954819Y-44395237D01*
X145954819Y-44395237D02*
X145954819Y-44204761D01*
X145954819Y-44204761D02*
X145907200Y-44109523D01*
X145907200Y-44109523D02*
X145859580Y-44061904D01*
X145859580Y-44061904D02*
X145764342Y-44014285D01*
X145764342Y-44014285D02*
X145526247Y-44014285D01*
X145526247Y-44014285D02*
X145431009Y-44061904D01*
X145431009Y-44061904D02*
X145383390Y-44109523D01*
X145383390Y-44109523D02*
X145335771Y-44204761D01*
X145335771Y-44204761D02*
X145335771Y-44395237D01*
X145335771Y-44395237D02*
X145383390Y-44490475D01*
X145383390Y-44490475D02*
X145431009Y-44538094D01*
X145431009Y-44538094D02*
X145526247Y-44585713D01*
X149954819Y-44866666D02*
X149478628Y-45199999D01*
X149954819Y-45438094D02*
X148954819Y-45438094D01*
X148954819Y-45438094D02*
X148954819Y-45057142D01*
X148954819Y-45057142D02*
X149002438Y-44961904D01*
X149002438Y-44961904D02*
X149050057Y-44914285D01*
X149050057Y-44914285D02*
X149145295Y-44866666D01*
X149145295Y-44866666D02*
X149288152Y-44866666D01*
X149288152Y-44866666D02*
X149383390Y-44914285D01*
X149383390Y-44914285D02*
X149431009Y-44961904D01*
X149431009Y-44961904D02*
X149478628Y-45057142D01*
X149478628Y-45057142D02*
X149478628Y-45438094D01*
X148954819Y-43961904D02*
X148954819Y-44438094D01*
X148954819Y-44438094D02*
X149431009Y-44485713D01*
X149431009Y-44485713D02*
X149383390Y-44438094D01*
X149383390Y-44438094D02*
X149335771Y-44342856D01*
X149335771Y-44342856D02*
X149335771Y-44104761D01*
X149335771Y-44104761D02*
X149383390Y-44009523D01*
X149383390Y-44009523D02*
X149431009Y-43961904D01*
X149431009Y-43961904D02*
X149526247Y-43914285D01*
X149526247Y-43914285D02*
X149764342Y-43914285D01*
X149764342Y-43914285D02*
X149859580Y-43961904D01*
X149859580Y-43961904D02*
X149907200Y-44009523D01*
X149907200Y-44009523D02*
X149954819Y-44104761D01*
X149954819Y-44104761D02*
X149954819Y-44342856D01*
X149954819Y-44342856D02*
X149907200Y-44438094D01*
X149907200Y-44438094D02*
X149859580Y-44485713D01*
X153954819Y-44866666D02*
X153478628Y-45199999D01*
X153954819Y-45438094D02*
X152954819Y-45438094D01*
X152954819Y-45438094D02*
X152954819Y-45057142D01*
X152954819Y-45057142D02*
X153002438Y-44961904D01*
X153002438Y-44961904D02*
X153050057Y-44914285D01*
X153050057Y-44914285D02*
X153145295Y-44866666D01*
X153145295Y-44866666D02*
X153288152Y-44866666D01*
X153288152Y-44866666D02*
X153383390Y-44914285D01*
X153383390Y-44914285D02*
X153431009Y-44961904D01*
X153431009Y-44961904D02*
X153478628Y-45057142D01*
X153478628Y-45057142D02*
X153478628Y-45438094D01*
X153288152Y-44009523D02*
X153954819Y-44009523D01*
X152907200Y-44247618D02*
X153621485Y-44485713D01*
X153621485Y-44485713D02*
X153621485Y-43866666D01*
X157954819Y-44766666D02*
X157478628Y-45099999D01*
X157954819Y-45338094D02*
X156954819Y-45338094D01*
X156954819Y-45338094D02*
X156954819Y-44957142D01*
X156954819Y-44957142D02*
X157002438Y-44861904D01*
X157002438Y-44861904D02*
X157050057Y-44814285D01*
X157050057Y-44814285D02*
X157145295Y-44766666D01*
X157145295Y-44766666D02*
X157288152Y-44766666D01*
X157288152Y-44766666D02*
X157383390Y-44814285D01*
X157383390Y-44814285D02*
X157431009Y-44861904D01*
X157431009Y-44861904D02*
X157478628Y-44957142D01*
X157478628Y-44957142D02*
X157478628Y-45338094D01*
X156954819Y-44433332D02*
X156954819Y-43814285D01*
X156954819Y-43814285D02*
X157335771Y-44147618D01*
X157335771Y-44147618D02*
X157335771Y-44004761D01*
X157335771Y-44004761D02*
X157383390Y-43909523D01*
X157383390Y-43909523D02*
X157431009Y-43861904D01*
X157431009Y-43861904D02*
X157526247Y-43814285D01*
X157526247Y-43814285D02*
X157764342Y-43814285D01*
X157764342Y-43814285D02*
X157859580Y-43861904D01*
X157859580Y-43861904D02*
X157907200Y-43909523D01*
X157907200Y-43909523D02*
X157954819Y-44004761D01*
X157954819Y-44004761D02*
X157954819Y-44290475D01*
X157954819Y-44290475D02*
X157907200Y-44385713D01*
X157907200Y-44385713D02*
X157859580Y-44433332D01*
X167054819Y-44966666D02*
X166578628Y-45299999D01*
X167054819Y-45538094D02*
X166054819Y-45538094D01*
X166054819Y-45538094D02*
X166054819Y-45157142D01*
X166054819Y-45157142D02*
X166102438Y-45061904D01*
X166102438Y-45061904D02*
X166150057Y-45014285D01*
X166150057Y-45014285D02*
X166245295Y-44966666D01*
X166245295Y-44966666D02*
X166388152Y-44966666D01*
X166388152Y-44966666D02*
X166483390Y-45014285D01*
X166483390Y-45014285D02*
X166531009Y-45061904D01*
X166531009Y-45061904D02*
X166578628Y-45157142D01*
X166578628Y-45157142D02*
X166578628Y-45538094D01*
X166150057Y-44585713D02*
X166102438Y-44538094D01*
X166102438Y-44538094D02*
X166054819Y-44442856D01*
X166054819Y-44442856D02*
X166054819Y-44204761D01*
X166054819Y-44204761D02*
X166102438Y-44109523D01*
X166102438Y-44109523D02*
X166150057Y-44061904D01*
X166150057Y-44061904D02*
X166245295Y-44014285D01*
X166245295Y-44014285D02*
X166340533Y-44014285D01*
X166340533Y-44014285D02*
X166483390Y-44061904D01*
X166483390Y-44061904D02*
X167054819Y-44633332D01*
X167054819Y-44633332D02*
X167054819Y-44014285D01*
X170654819Y-44866666D02*
X170178628Y-45199999D01*
X170654819Y-45438094D02*
X169654819Y-45438094D01*
X169654819Y-45438094D02*
X169654819Y-45057142D01*
X169654819Y-45057142D02*
X169702438Y-44961904D01*
X169702438Y-44961904D02*
X169750057Y-44914285D01*
X169750057Y-44914285D02*
X169845295Y-44866666D01*
X169845295Y-44866666D02*
X169988152Y-44866666D01*
X169988152Y-44866666D02*
X170083390Y-44914285D01*
X170083390Y-44914285D02*
X170131009Y-44961904D01*
X170131009Y-44961904D02*
X170178628Y-45057142D01*
X170178628Y-45057142D02*
X170178628Y-45438094D01*
X170654819Y-43914285D02*
X170654819Y-44485713D01*
X170654819Y-44199999D02*
X169654819Y-44199999D01*
X169654819Y-44199999D02*
X169797676Y-44295237D01*
X169797676Y-44295237D02*
X169892914Y-44390475D01*
X169892914Y-44390475D02*
X169940533Y-44485713D01*
X139966666Y-72931009D02*
X140109523Y-72978628D01*
X140109523Y-72978628D02*
X140157142Y-73026247D01*
X140157142Y-73026247D02*
X140204761Y-73121485D01*
X140204761Y-73121485D02*
X140204761Y-73264342D01*
X140204761Y-73264342D02*
X140157142Y-73359580D01*
X140157142Y-73359580D02*
X140109523Y-73407200D01*
X140109523Y-73407200D02*
X140014285Y-73454819D01*
X140014285Y-73454819D02*
X139633333Y-73454819D01*
X139633333Y-73454819D02*
X139633333Y-72454819D01*
X139633333Y-72454819D02*
X139966666Y-72454819D01*
X139966666Y-72454819D02*
X140061904Y-72502438D01*
X140061904Y-72502438D02*
X140109523Y-72550057D01*
X140109523Y-72550057D02*
X140157142Y-72645295D01*
X140157142Y-72645295D02*
X140157142Y-72740533D01*
X140157142Y-72740533D02*
X140109523Y-72835771D01*
X140109523Y-72835771D02*
X140061904Y-72883390D01*
X140061904Y-72883390D02*
X139966666Y-72931009D01*
X139966666Y-72931009D02*
X139633333Y-72931009D01*
X140585714Y-73169104D02*
X141061904Y-73169104D01*
X140490476Y-73454819D02*
X140823809Y-72454819D01*
X140823809Y-72454819D02*
X141157142Y-73454819D01*
X142061904Y-73454819D02*
X141728571Y-72978628D01*
X141490476Y-73454819D02*
X141490476Y-72454819D01*
X141490476Y-72454819D02*
X141871428Y-72454819D01*
X141871428Y-72454819D02*
X141966666Y-72502438D01*
X141966666Y-72502438D02*
X142014285Y-72550057D01*
X142014285Y-72550057D02*
X142061904Y-72645295D01*
X142061904Y-72645295D02*
X142061904Y-72788152D01*
X142061904Y-72788152D02*
X142014285Y-72883390D01*
X142014285Y-72883390D02*
X141966666Y-72931009D01*
X141966666Y-72931009D02*
X141871428Y-72978628D01*
X141871428Y-72978628D02*
X141490476Y-72978628D01*
X143014285Y-73454819D02*
X142442857Y-73454819D01*
X142728571Y-73454819D02*
X142728571Y-72454819D01*
X142728571Y-72454819D02*
X142633333Y-72597676D01*
X142633333Y-72597676D02*
X142538095Y-72692914D01*
X142538095Y-72692914D02*
X142442857Y-72740533D01*
X191666666Y-67604819D02*
X191666666Y-68319104D01*
X191666666Y-68319104D02*
X191619047Y-68461961D01*
X191619047Y-68461961D02*
X191523809Y-68557200D01*
X191523809Y-68557200D02*
X191380952Y-68604819D01*
X191380952Y-68604819D02*
X191285714Y-68604819D01*
X192047619Y-67604819D02*
X192666666Y-67604819D01*
X192666666Y-67604819D02*
X192333333Y-67985771D01*
X192333333Y-67985771D02*
X192476190Y-67985771D01*
X192476190Y-67985771D02*
X192571428Y-68033390D01*
X192571428Y-68033390D02*
X192619047Y-68081009D01*
X192619047Y-68081009D02*
X192666666Y-68176247D01*
X192666666Y-68176247D02*
X192666666Y-68414342D01*
X192666666Y-68414342D02*
X192619047Y-68509580D01*
X192619047Y-68509580D02*
X192571428Y-68557200D01*
X192571428Y-68557200D02*
X192476190Y-68604819D01*
X192476190Y-68604819D02*
X192190476Y-68604819D01*
X192190476Y-68604819D02*
X192095238Y-68557200D01*
X192095238Y-68557200D02*
X192047619Y-68509580D01*
X180766666Y-87904819D02*
X180766666Y-88619104D01*
X180766666Y-88619104D02*
X180719047Y-88761961D01*
X180719047Y-88761961D02*
X180623809Y-88857200D01*
X180623809Y-88857200D02*
X180480952Y-88904819D01*
X180480952Y-88904819D02*
X180385714Y-88904819D01*
X181195238Y-88000057D02*
X181242857Y-87952438D01*
X181242857Y-87952438D02*
X181338095Y-87904819D01*
X181338095Y-87904819D02*
X181576190Y-87904819D01*
X181576190Y-87904819D02*
X181671428Y-87952438D01*
X181671428Y-87952438D02*
X181719047Y-88000057D01*
X181719047Y-88000057D02*
X181766666Y-88095295D01*
X181766666Y-88095295D02*
X181766666Y-88190533D01*
X181766666Y-88190533D02*
X181719047Y-88333390D01*
X181719047Y-88333390D02*
X181147619Y-88904819D01*
X181147619Y-88904819D02*
X181766666Y-88904819D01*
X96324819Y-51703333D02*
X97039104Y-51703333D01*
X97039104Y-51703333D02*
X97181961Y-51750952D01*
X97181961Y-51750952D02*
X97277200Y-51846190D01*
X97277200Y-51846190D02*
X97324819Y-51989047D01*
X97324819Y-51989047D02*
X97324819Y-52084285D01*
X97324819Y-50703333D02*
X97324819Y-51274761D01*
X97324819Y-50989047D02*
X96324819Y-50989047D01*
X96324819Y-50989047D02*
X96467676Y-51084285D01*
X96467676Y-51084285D02*
X96562914Y-51179523D01*
X96562914Y-51179523D02*
X96610533Y-51274761D01*
D14*
%TO.C,REF\u002A\u002A*%
X173991388Y-81037645D02*
X174048865Y-81055206D01*
X174085872Y-81077395D01*
X174097927Y-81094942D01*
X174094609Y-81115742D01*
X174073079Y-81148419D01*
X174054874Y-81171562D01*
X174017344Y-81213402D01*
X173989148Y-81231005D01*
X173965111Y-81229856D01*
X173893808Y-81211710D01*
X173841442Y-81212534D01*
X173798918Y-81233098D01*
X173784642Y-81245134D01*
X173738947Y-81287483D01*
X173738947Y-81840526D01*
X173555131Y-81840526D01*
X173555131Y-81038421D01*
X173647039Y-81038421D01*
X173702219Y-81040603D01*
X173730688Y-81048351D01*
X173738943Y-81063468D01*
X173738947Y-81063916D01*
X173742845Y-81079749D01*
X173760474Y-81077684D01*
X173784901Y-81066261D01*
X173835350Y-81045005D01*
X173876316Y-81032216D01*
X173929028Y-81028938D01*
X173991388Y-81037645D01*
G36*
X173991388Y-81037645D02*
G01*
X174048865Y-81055206D01*
X174085872Y-81077395D01*
X174097927Y-81094942D01*
X174094609Y-81115742D01*
X174073079Y-81148419D01*
X174054874Y-81171562D01*
X174017344Y-81213402D01*
X173989148Y-81231005D01*
X173965111Y-81229856D01*
X173893808Y-81211710D01*
X173841442Y-81212534D01*
X173798918Y-81233098D01*
X173784642Y-81245134D01*
X173738947Y-81287483D01*
X173738947Y-81840526D01*
X173555131Y-81840526D01*
X173555131Y-81038421D01*
X173647039Y-81038421D01*
X173702219Y-81040603D01*
X173730688Y-81048351D01*
X173738943Y-81063468D01*
X173738947Y-81063916D01*
X173742845Y-81079749D01*
X173760474Y-81077684D01*
X173784901Y-81066261D01*
X173835350Y-81045005D01*
X173876316Y-81032216D01*
X173929028Y-81028938D01*
X173991388Y-81037645D01*
G37*
X173773167Y-82291447D02*
X173837408Y-82304112D01*
X173873980Y-82322864D01*
X173912453Y-82354017D01*
X173857717Y-82423127D01*
X173823969Y-82464979D01*
X173801053Y-82485398D01*
X173778279Y-82488517D01*
X173744956Y-82478472D01*
X173729314Y-82472789D01*
X173665542Y-82464404D01*
X173607140Y-82482378D01*
X173564264Y-82522982D01*
X173557299Y-82535929D01*
X173549713Y-82570224D01*
X173543859Y-82633427D01*
X173540011Y-82721060D01*
X173538443Y-82828640D01*
X173538421Y-82843944D01*
X173538421Y-83110526D01*
X173354605Y-83110526D01*
X173354605Y-82291710D01*
X173446513Y-82291710D01*
X173499507Y-82293094D01*
X173527115Y-82299252D01*
X173537324Y-82313194D01*
X173538421Y-82326344D01*
X173538421Y-82360978D01*
X173582450Y-82326344D01*
X173632937Y-82302716D01*
X173700760Y-82291033D01*
X173773167Y-82291447D01*
G36*
X173773167Y-82291447D02*
G01*
X173837408Y-82304112D01*
X173873980Y-82322864D01*
X173912453Y-82354017D01*
X173857717Y-82423127D01*
X173823969Y-82464979D01*
X173801053Y-82485398D01*
X173778279Y-82488517D01*
X173744956Y-82478472D01*
X173729314Y-82472789D01*
X173665542Y-82464404D01*
X173607140Y-82482378D01*
X173564264Y-82522982D01*
X173557299Y-82535929D01*
X173549713Y-82570224D01*
X173543859Y-82633427D01*
X173540011Y-82721060D01*
X173538443Y-82828640D01*
X173538421Y-82843944D01*
X173538421Y-83110526D01*
X173354605Y-83110526D01*
X173354605Y-82291710D01*
X173446513Y-82291710D01*
X173499507Y-82293094D01*
X173527115Y-82299252D01*
X173537324Y-82313194D01*
X173538421Y-82326344D01*
X173538421Y-82360978D01*
X173582450Y-82326344D01*
X173632937Y-82302716D01*
X173700760Y-82291033D01*
X173773167Y-82291447D01*
G37*
X170279881Y-82293486D02*
X170304888Y-82300982D01*
X170312950Y-82317451D01*
X170313289Y-82324886D01*
X170314736Y-82345594D01*
X170324698Y-82348845D01*
X170351612Y-82334648D01*
X170367598Y-82324948D01*
X170418033Y-82304175D01*
X170478272Y-82293904D01*
X170541434Y-82293114D01*
X170600637Y-82300786D01*
X170649002Y-82315898D01*
X170679646Y-82337432D01*
X170685689Y-82364366D01*
X170682639Y-82371660D01*
X170660406Y-82401937D01*
X170625930Y-82439175D01*
X170619694Y-82445195D01*
X170586833Y-82472875D01*
X170558480Y-82481818D01*
X170518827Y-82475576D01*
X170502942Y-82471429D01*
X170453509Y-82461467D01*
X170418752Y-82465947D01*
X170389400Y-82481746D01*
X170362513Y-82502949D01*
X170342710Y-82529614D01*
X170328948Y-82566827D01*
X170320184Y-82619673D01*
X170315374Y-82693237D01*
X170313474Y-82792605D01*
X170313289Y-82852601D01*
X170313289Y-83110526D01*
X170146184Y-83110526D01*
X170146184Y-82291710D01*
X170229736Y-82291710D01*
X170279881Y-82293486D01*
G36*
X170279881Y-82293486D02*
G01*
X170304888Y-82300982D01*
X170312950Y-82317451D01*
X170313289Y-82324886D01*
X170314736Y-82345594D01*
X170324698Y-82348845D01*
X170351612Y-82334648D01*
X170367598Y-82324948D01*
X170418033Y-82304175D01*
X170478272Y-82293904D01*
X170541434Y-82293114D01*
X170600637Y-82300786D01*
X170649002Y-82315898D01*
X170679646Y-82337432D01*
X170685689Y-82364366D01*
X170682639Y-82371660D01*
X170660406Y-82401937D01*
X170625930Y-82439175D01*
X170619694Y-82445195D01*
X170586833Y-82472875D01*
X170558480Y-82481818D01*
X170518827Y-82475576D01*
X170502942Y-82471429D01*
X170453509Y-82461467D01*
X170418752Y-82465947D01*
X170389400Y-82481746D01*
X170362513Y-82502949D01*
X170342710Y-82529614D01*
X170328948Y-82566827D01*
X170320184Y-82619673D01*
X170315374Y-82693237D01*
X170313474Y-82792605D01*
X170313289Y-82852601D01*
X170313289Y-83110526D01*
X170146184Y-83110526D01*
X170146184Y-82291710D01*
X170229736Y-82291710D01*
X170279881Y-82293486D01*
G37*
X172920131Y-81298533D02*
X172921710Y-81421089D01*
X172927481Y-81514179D01*
X172938991Y-81581651D01*
X172957790Y-81627355D01*
X172985426Y-81655139D01*
X173023448Y-81668854D01*
X173070526Y-81672358D01*
X173119832Y-81668432D01*
X173157283Y-81654089D01*
X173184428Y-81625478D01*
X173202815Y-81578751D01*
X173213993Y-81510058D01*
X173219511Y-81415550D01*
X173220921Y-81298533D01*
X173220921Y-81038421D01*
X173404736Y-81038421D01*
X173404736Y-81840526D01*
X173312828Y-81840526D01*
X173257422Y-81838281D01*
X173228891Y-81830396D01*
X173220921Y-81815428D01*
X173216120Y-81802097D01*
X173197014Y-81804917D01*
X173158504Y-81823783D01*
X173070239Y-81852887D01*
X172976623Y-81850825D01*
X172886921Y-81819221D01*
X172844204Y-81794257D01*
X172811621Y-81767226D01*
X172787817Y-81733405D01*
X172771439Y-81688068D01*
X172761131Y-81626489D01*
X172755541Y-81543943D01*
X172753312Y-81435705D01*
X172753026Y-81352004D01*
X172753026Y-81038421D01*
X172920131Y-81038421D01*
X172920131Y-81298533D01*
G36*
X172920131Y-81298533D02*
G01*
X172921710Y-81421089D01*
X172927481Y-81514179D01*
X172938991Y-81581651D01*
X172957790Y-81627355D01*
X172985426Y-81655139D01*
X173023448Y-81668854D01*
X173070526Y-81672358D01*
X173119832Y-81668432D01*
X173157283Y-81654089D01*
X173184428Y-81625478D01*
X173202815Y-81578751D01*
X173213993Y-81510058D01*
X173219511Y-81415550D01*
X173220921Y-81298533D01*
X173220921Y-81038421D01*
X173404736Y-81038421D01*
X173404736Y-81840526D01*
X173312828Y-81840526D01*
X173257422Y-81838281D01*
X173228891Y-81830396D01*
X173220921Y-81815428D01*
X173216120Y-81802097D01*
X173197014Y-81804917D01*
X173158504Y-81823783D01*
X173070239Y-81852887D01*
X172976623Y-81850825D01*
X172886921Y-81819221D01*
X172844204Y-81794257D01*
X172811621Y-81767226D01*
X172787817Y-81733405D01*
X172771439Y-81688068D01*
X172761131Y-81626489D01*
X172755541Y-81543943D01*
X172753312Y-81435705D01*
X172753026Y-81352004D01*
X172753026Y-81038421D01*
X172920131Y-81038421D01*
X172920131Y-81298533D01*
G37*
X170597957Y-81052226D02*
X170639546Y-81072090D01*
X170679825Y-81100784D01*
X170710510Y-81133809D01*
X170732861Y-81175931D01*
X170748136Y-81231915D01*
X170757592Y-81306528D01*
X170762487Y-81404535D01*
X170764081Y-81530702D01*
X170764106Y-81543914D01*
X170764473Y-81840526D01*
X170580657Y-81840526D01*
X170580657Y-81567081D01*
X170580527Y-81465777D01*
X170579621Y-81392353D01*
X170577173Y-81341271D01*
X170572414Y-81306990D01*
X170564574Y-81283971D01*
X170552885Y-81266673D01*
X170536602Y-81249581D01*
X170479634Y-81212857D01*
X170417445Y-81206042D01*
X170358199Y-81229261D01*
X170337595Y-81246543D01*
X170322470Y-81262791D01*
X170311610Y-81280191D01*
X170304310Y-81304212D01*
X170299863Y-81340322D01*
X170297564Y-81393988D01*
X170296704Y-81470680D01*
X170296578Y-81564043D01*
X170296578Y-81840526D01*
X170112763Y-81840526D01*
X170112763Y-81038421D01*
X170204671Y-81038421D01*
X170259851Y-81040603D01*
X170288320Y-81048351D01*
X170296575Y-81063468D01*
X170296578Y-81063916D01*
X170300408Y-81078720D01*
X170317301Y-81077040D01*
X170350888Y-81060773D01*
X170427063Y-81036840D01*
X170514200Y-81034178D01*
X170597957Y-81052226D01*
G36*
X170597957Y-81052226D02*
G01*
X170639546Y-81072090D01*
X170679825Y-81100784D01*
X170710510Y-81133809D01*
X170732861Y-81175931D01*
X170748136Y-81231915D01*
X170757592Y-81306528D01*
X170762487Y-81404535D01*
X170764081Y-81530702D01*
X170764106Y-81543914D01*
X170764473Y-81840526D01*
X170580657Y-81840526D01*
X170580657Y-81567081D01*
X170580527Y-81465777D01*
X170579621Y-81392353D01*
X170577173Y-81341271D01*
X170572414Y-81306990D01*
X170564574Y-81283971D01*
X170552885Y-81266673D01*
X170536602Y-81249581D01*
X170479634Y-81212857D01*
X170417445Y-81206042D01*
X170358199Y-81229261D01*
X170337595Y-81246543D01*
X170322470Y-81262791D01*
X170311610Y-81280191D01*
X170304310Y-81304212D01*
X170299863Y-81340322D01*
X170297564Y-81393988D01*
X170296704Y-81470680D01*
X170296578Y-81564043D01*
X170296578Y-81840526D01*
X170112763Y-81840526D01*
X170112763Y-81038421D01*
X170204671Y-81038421D01*
X170259851Y-81040603D01*
X170288320Y-81048351D01*
X170296575Y-81063468D01*
X170296578Y-81063916D01*
X170300408Y-81078720D01*
X170317301Y-81077040D01*
X170350888Y-81060773D01*
X170427063Y-81036840D01*
X170514200Y-81034178D01*
X170597957Y-81052226D01*
G37*
X174546576Y-81045419D02*
X174643395Y-81086549D01*
X174673890Y-81106571D01*
X174712865Y-81137340D01*
X174737331Y-81161533D01*
X174741578Y-81169413D01*
X174729584Y-81186899D01*
X174698887Y-81216570D01*
X174674312Y-81237279D01*
X174607046Y-81291336D01*
X174553930Y-81246642D01*
X174512884Y-81217789D01*
X174472863Y-81207829D01*
X174427059Y-81210261D01*
X174354324Y-81228345D01*
X174304256Y-81265881D01*
X174273829Y-81326562D01*
X174260017Y-81414081D01*
X174260013Y-81414136D01*
X174261208Y-81511958D01*
X174279772Y-81583730D01*
X174316804Y-81632595D01*
X174342050Y-81649143D01*
X174409097Y-81669749D01*
X174480709Y-81669762D01*
X174543015Y-81649768D01*
X174557763Y-81640000D01*
X174594750Y-81615047D01*
X174623668Y-81610958D01*
X174654856Y-81629530D01*
X174689336Y-81662887D01*
X174743912Y-81719196D01*
X174683318Y-81769142D01*
X174589698Y-81825513D01*
X174484125Y-81853293D01*
X174373798Y-81851282D01*
X174301343Y-81832862D01*
X174216656Y-81787310D01*
X174148927Y-81715650D01*
X174118157Y-81665066D01*
X174093236Y-81592488D01*
X174080766Y-81500569D01*
X174080670Y-81400948D01*
X174092870Y-81305267D01*
X174117290Y-81225169D01*
X174121136Y-81216956D01*
X174178093Y-81136413D01*
X174255209Y-81077771D01*
X174346390Y-81042247D01*
X174445543Y-81031057D01*
X174546576Y-81045419D01*
G36*
X174546576Y-81045419D02*
G01*
X174643395Y-81086549D01*
X174673890Y-81106571D01*
X174712865Y-81137340D01*
X174737331Y-81161533D01*
X174741578Y-81169413D01*
X174729584Y-81186899D01*
X174698887Y-81216570D01*
X174674312Y-81237279D01*
X174607046Y-81291336D01*
X174553930Y-81246642D01*
X174512884Y-81217789D01*
X174472863Y-81207829D01*
X174427059Y-81210261D01*
X174354324Y-81228345D01*
X174304256Y-81265881D01*
X174273829Y-81326562D01*
X174260017Y-81414081D01*
X174260013Y-81414136D01*
X174261208Y-81511958D01*
X174279772Y-81583730D01*
X174316804Y-81632595D01*
X174342050Y-81649143D01*
X174409097Y-81669749D01*
X174480709Y-81669762D01*
X174543015Y-81649768D01*
X174557763Y-81640000D01*
X174594750Y-81615047D01*
X174623668Y-81610958D01*
X174654856Y-81629530D01*
X174689336Y-81662887D01*
X174743912Y-81719196D01*
X174683318Y-81769142D01*
X174589698Y-81825513D01*
X174484125Y-81853293D01*
X174373798Y-81851282D01*
X174301343Y-81832862D01*
X174216656Y-81787310D01*
X174148927Y-81715650D01*
X174118157Y-81665066D01*
X174093236Y-81592488D01*
X174080766Y-81500569D01*
X174080670Y-81400948D01*
X174092870Y-81305267D01*
X174117290Y-81225169D01*
X174121136Y-81216956D01*
X174178093Y-81136413D01*
X174255209Y-81077771D01*
X174346390Y-81042247D01*
X174445543Y-81031057D01*
X174546576Y-81045419D01*
G37*
X172411669Y-81048310D02*
X172496192Y-81094340D01*
X172562321Y-81167006D01*
X172593478Y-81226106D01*
X172606855Y-81278305D01*
X172615522Y-81352719D01*
X172619237Y-81438442D01*
X172617754Y-81524569D01*
X172610831Y-81600193D01*
X172602745Y-81640584D01*
X172575465Y-81695840D01*
X172528220Y-81754530D01*
X172471282Y-81805852D01*
X172414924Y-81839005D01*
X172413550Y-81839531D01*
X172343616Y-81854018D01*
X172260737Y-81854377D01*
X172181977Y-81841188D01*
X172151566Y-81830617D01*
X172073239Y-81786201D01*
X172017143Y-81728007D01*
X171980286Y-81650965D01*
X171959680Y-81550001D01*
X171955018Y-81497116D01*
X171955613Y-81430663D01*
X172134736Y-81430663D01*
X172140770Y-81527630D01*
X172158138Y-81601523D01*
X172185740Y-81648736D01*
X172205404Y-81662237D01*
X172255787Y-81671651D01*
X172315673Y-81668864D01*
X172367449Y-81655316D01*
X172381027Y-81647862D01*
X172416849Y-81604451D01*
X172440493Y-81538014D01*
X172450558Y-81457161D01*
X172445642Y-81370502D01*
X172434655Y-81318349D01*
X172403109Y-81257951D01*
X172353311Y-81220197D01*
X172293337Y-81207143D01*
X172231264Y-81220849D01*
X172183582Y-81254372D01*
X172158525Y-81282031D01*
X172143900Y-81309294D01*
X172136929Y-81346190D01*
X172134833Y-81402750D01*
X172134736Y-81430663D01*
X171955613Y-81430663D01*
X171956282Y-81355994D01*
X171979265Y-81240271D01*
X172023972Y-81149941D01*
X172090405Y-81085000D01*
X172178565Y-81045445D01*
X172197495Y-81040858D01*
X172311266Y-81030090D01*
X172411669Y-81048310D01*
G36*
X172411669Y-81048310D02*
G01*
X172496192Y-81094340D01*
X172562321Y-81167006D01*
X172593478Y-81226106D01*
X172606855Y-81278305D01*
X172615522Y-81352719D01*
X172619237Y-81438442D01*
X172617754Y-81524569D01*
X172610831Y-81600193D01*
X172602745Y-81640584D01*
X172575465Y-81695840D01*
X172528220Y-81754530D01*
X172471282Y-81805852D01*
X172414924Y-81839005D01*
X172413550Y-81839531D01*
X172343616Y-81854018D01*
X172260737Y-81854377D01*
X172181977Y-81841188D01*
X172151566Y-81830617D01*
X172073239Y-81786201D01*
X172017143Y-81728007D01*
X171980286Y-81650965D01*
X171959680Y-81550001D01*
X171955018Y-81497116D01*
X171955613Y-81430663D01*
X172134736Y-81430663D01*
X172140770Y-81527630D01*
X172158138Y-81601523D01*
X172185740Y-81648736D01*
X172205404Y-81662237D01*
X172255787Y-81671651D01*
X172315673Y-81668864D01*
X172367449Y-81655316D01*
X172381027Y-81647862D01*
X172416849Y-81604451D01*
X172440493Y-81538014D01*
X172450558Y-81457161D01*
X172445642Y-81370502D01*
X172434655Y-81318349D01*
X172403109Y-81257951D01*
X172353311Y-81220197D01*
X172293337Y-81207143D01*
X172231264Y-81220849D01*
X172183582Y-81254372D01*
X172158525Y-81282031D01*
X172143900Y-81309294D01*
X172136929Y-81346190D01*
X172134833Y-81402750D01*
X172134736Y-81430663D01*
X171955613Y-81430663D01*
X171956282Y-81355994D01*
X171979265Y-81240271D01*
X172023972Y-81149941D01*
X172090405Y-81085000D01*
X172178565Y-81045445D01*
X172197495Y-81040858D01*
X172311266Y-81030090D01*
X172411669Y-81048310D01*
G37*
X171974130Y-82295104D02*
X172040220Y-82300066D01*
X172126626Y-82559079D01*
X172213031Y-82818092D01*
X172240124Y-82726184D01*
X172256428Y-82669384D01*
X172277875Y-82592625D01*
X172301035Y-82508251D01*
X172313280Y-82462993D01*
X172359344Y-82291710D01*
X172549387Y-82291710D01*
X172492582Y-82471349D01*
X172464607Y-82559704D01*
X172430813Y-82666281D01*
X172395520Y-82777454D01*
X172364013Y-82876579D01*
X172292250Y-83102171D01*
X172137286Y-83112253D01*
X172095270Y-82973528D01*
X172069359Y-82887351D01*
X172041083Y-82792347D01*
X172016369Y-82708441D01*
X172015394Y-82705102D01*
X171996935Y-82648248D01*
X171980649Y-82609456D01*
X171969242Y-82594787D01*
X171966898Y-82596483D01*
X171958671Y-82619225D01*
X171943038Y-82667940D01*
X171921904Y-82736502D01*
X171897170Y-82818785D01*
X171883787Y-82864046D01*
X171811311Y-83110526D01*
X171657495Y-83110526D01*
X171534531Y-82722006D01*
X171499988Y-82613022D01*
X171468521Y-82514048D01*
X171441616Y-82429736D01*
X171420759Y-82364734D01*
X171407438Y-82323692D01*
X171403388Y-82311701D01*
X171406594Y-82299423D01*
X171431765Y-82294046D01*
X171484146Y-82294584D01*
X171492345Y-82294990D01*
X171589482Y-82300066D01*
X171653100Y-82534013D01*
X171676484Y-82619333D01*
X171697381Y-82694335D01*
X171713951Y-82752507D01*
X171724354Y-82787337D01*
X171726276Y-82793016D01*
X171734241Y-82786486D01*
X171750304Y-82752654D01*
X171772621Y-82696127D01*
X171799345Y-82621510D01*
X171821937Y-82554107D01*
X171908041Y-82290143D01*
X171974130Y-82295104D01*
G36*
X171974130Y-82295104D02*
G01*
X172040220Y-82300066D01*
X172126626Y-82559079D01*
X172213031Y-82818092D01*
X172240124Y-82726184D01*
X172256428Y-82669384D01*
X172277875Y-82592625D01*
X172301035Y-82508251D01*
X172313280Y-82462993D01*
X172359344Y-82291710D01*
X172549387Y-82291710D01*
X172492582Y-82471349D01*
X172464607Y-82559704D01*
X172430813Y-82666281D01*
X172395520Y-82777454D01*
X172364013Y-82876579D01*
X172292250Y-83102171D01*
X172137286Y-83112253D01*
X172095270Y-82973528D01*
X172069359Y-82887351D01*
X172041083Y-82792347D01*
X172016369Y-82708441D01*
X172015394Y-82705102D01*
X171996935Y-82648248D01*
X171980649Y-82609456D01*
X171969242Y-82594787D01*
X171966898Y-82596483D01*
X171958671Y-82619225D01*
X171943038Y-82667940D01*
X171921904Y-82736502D01*
X171897170Y-82818785D01*
X171883787Y-82864046D01*
X171811311Y-83110526D01*
X171657495Y-83110526D01*
X171534531Y-82722006D01*
X171499988Y-82613022D01*
X171468521Y-82514048D01*
X171441616Y-82429736D01*
X171420759Y-82364734D01*
X171407438Y-82323692D01*
X171403388Y-82311701D01*
X171406594Y-82299423D01*
X171431765Y-82294046D01*
X171484146Y-82294584D01*
X171492345Y-82294990D01*
X171589482Y-82300066D01*
X171653100Y-82534013D01*
X171676484Y-82619333D01*
X171697381Y-82694335D01*
X171713951Y-82752507D01*
X171724354Y-82787337D01*
X171726276Y-82793016D01*
X171734241Y-82786486D01*
X171750304Y-82752654D01*
X171772621Y-82696127D01*
X171799345Y-82621510D01*
X171821937Y-82554107D01*
X171908041Y-82290143D01*
X171974130Y-82295104D01*
G37*
X168226784Y-81047104D02*
X168314205Y-81085754D01*
X168380570Y-81150290D01*
X168425976Y-81240812D01*
X168450518Y-81357418D01*
X168452277Y-81375624D01*
X168453656Y-81503984D01*
X168435784Y-81616496D01*
X168399750Y-81707688D01*
X168380455Y-81737022D01*
X168313245Y-81799106D01*
X168227650Y-81839316D01*
X168131890Y-81856003D01*
X168034187Y-81847517D01*
X167959917Y-81821380D01*
X167896047Y-81777335D01*
X167843846Y-81719587D01*
X167842943Y-81718236D01*
X167821744Y-81682593D01*
X167807967Y-81646752D01*
X167799624Y-81601519D01*
X167794727Y-81537701D01*
X167792569Y-81485368D01*
X167791671Y-81437910D01*
X167958743Y-81437910D01*
X167960376Y-81485154D01*
X167966304Y-81548046D01*
X167976761Y-81588407D01*
X167995619Y-81617122D01*
X168013281Y-81633896D01*
X168075894Y-81669016D01*
X168141408Y-81673710D01*
X168202421Y-81648440D01*
X168232928Y-81620124D01*
X168254911Y-81591589D01*
X168267769Y-81564284D01*
X168273412Y-81528750D01*
X168273751Y-81475524D01*
X168272012Y-81426506D01*
X168268271Y-81356482D01*
X168262341Y-81311064D01*
X168251653Y-81281440D01*
X168233639Y-81258797D01*
X168219363Y-81245855D01*
X168159651Y-81211860D01*
X168095234Y-81210165D01*
X168041219Y-81230301D01*
X167995140Y-81272352D01*
X167967689Y-81341428D01*
X167958743Y-81437910D01*
X167791671Y-81437910D01*
X167790599Y-81381299D01*
X167793964Y-81303468D01*
X167804045Y-81244930D01*
X167822226Y-81198737D01*
X167849890Y-81157942D01*
X167860146Y-81145828D01*
X167924278Y-81085474D01*
X167993066Y-81050220D01*
X168077189Y-81035450D01*
X168118209Y-81034243D01*
X168226784Y-81047104D01*
G36*
X168226784Y-81047104D02*
G01*
X168314205Y-81085754D01*
X168380570Y-81150290D01*
X168425976Y-81240812D01*
X168450518Y-81357418D01*
X168452277Y-81375624D01*
X168453656Y-81503984D01*
X168435784Y-81616496D01*
X168399750Y-81707688D01*
X168380455Y-81737022D01*
X168313245Y-81799106D01*
X168227650Y-81839316D01*
X168131890Y-81856003D01*
X168034187Y-81847517D01*
X167959917Y-81821380D01*
X167896047Y-81777335D01*
X167843846Y-81719587D01*
X167842943Y-81718236D01*
X167821744Y-81682593D01*
X167807967Y-81646752D01*
X167799624Y-81601519D01*
X167794727Y-81537701D01*
X167792569Y-81485368D01*
X167791671Y-81437910D01*
X167958743Y-81437910D01*
X167960376Y-81485154D01*
X167966304Y-81548046D01*
X167976761Y-81588407D01*
X167995619Y-81617122D01*
X168013281Y-81633896D01*
X168075894Y-81669016D01*
X168141408Y-81673710D01*
X168202421Y-81648440D01*
X168232928Y-81620124D01*
X168254911Y-81591589D01*
X168267769Y-81564284D01*
X168273412Y-81528750D01*
X168273751Y-81475524D01*
X168272012Y-81426506D01*
X168268271Y-81356482D01*
X168262341Y-81311064D01*
X168251653Y-81281440D01*
X168233639Y-81258797D01*
X168219363Y-81245855D01*
X168159651Y-81211860D01*
X168095234Y-81210165D01*
X168041219Y-81230301D01*
X167995140Y-81272352D01*
X167967689Y-81341428D01*
X167958743Y-81437910D01*
X167791671Y-81437910D01*
X167790599Y-81381299D01*
X167793964Y-81303468D01*
X167804045Y-81244930D01*
X167822226Y-81198737D01*
X167849890Y-81157942D01*
X167860146Y-81145828D01*
X167924278Y-81085474D01*
X167993066Y-81050220D01*
X168077189Y-81035450D01*
X168118209Y-81034243D01*
X168226784Y-81047104D01*
G37*
X171332631Y-83110526D02*
X171240723Y-83110526D01*
X171187377Y-83108962D01*
X171159593Y-83102485D01*
X171149590Y-83088418D01*
X171148815Y-83078906D01*
X171147128Y-83059832D01*
X171136490Y-83056174D01*
X171108535Y-83067932D01*
X171086795Y-83078906D01*
X171003332Y-83104911D01*
X170912604Y-83106416D01*
X170838842Y-83087021D01*
X170770154Y-83040165D01*
X170717794Y-82971004D01*
X170689122Y-82889427D01*
X170688392Y-82884866D01*
X170684132Y-82835101D01*
X170682014Y-82763659D01*
X170682184Y-82709626D01*
X170864720Y-82709626D01*
X170868949Y-82781441D01*
X170878568Y-82840634D01*
X170891590Y-82874060D01*
X170940856Y-82919740D01*
X170999350Y-82936115D01*
X171059671Y-82922873D01*
X171111217Y-82883373D01*
X171130738Y-82856807D01*
X171142152Y-82825106D01*
X171147498Y-82778832D01*
X171148815Y-82709328D01*
X171146458Y-82640499D01*
X171140233Y-82580026D01*
X171131408Y-82539556D01*
X171129937Y-82535929D01*
X171094347Y-82492802D01*
X171042400Y-82469124D01*
X170984278Y-82465301D01*
X170930160Y-82481738D01*
X170890226Y-82518840D01*
X170886083Y-82526222D01*
X170873116Y-82571239D01*
X170866052Y-82635967D01*
X170864720Y-82709626D01*
X170682184Y-82709626D01*
X170682271Y-82682230D01*
X170683472Y-82638405D01*
X170691645Y-82529988D01*
X170708630Y-82448588D01*
X170736887Y-82388412D01*
X170778872Y-82343666D01*
X170819632Y-82317400D01*
X170876581Y-82298935D01*
X170947411Y-82292602D01*
X171019941Y-82297760D01*
X171081986Y-82313769D01*
X171114768Y-82332920D01*
X171148815Y-82363732D01*
X171148815Y-81974210D01*
X171332631Y-81974210D01*
X171332631Y-83110526D01*
G36*
X171332631Y-83110526D02*
G01*
X171240723Y-83110526D01*
X171187377Y-83108962D01*
X171159593Y-83102485D01*
X171149590Y-83088418D01*
X171148815Y-83078906D01*
X171147128Y-83059832D01*
X171136490Y-83056174D01*
X171108535Y-83067932D01*
X171086795Y-83078906D01*
X171003332Y-83104911D01*
X170912604Y-83106416D01*
X170838842Y-83087021D01*
X170770154Y-83040165D01*
X170717794Y-82971004D01*
X170689122Y-82889427D01*
X170688392Y-82884866D01*
X170684132Y-82835101D01*
X170682014Y-82763659D01*
X170682184Y-82709626D01*
X170864720Y-82709626D01*
X170868949Y-82781441D01*
X170878568Y-82840634D01*
X170891590Y-82874060D01*
X170940856Y-82919740D01*
X170999350Y-82936115D01*
X171059671Y-82922873D01*
X171111217Y-82883373D01*
X171130738Y-82856807D01*
X171142152Y-82825106D01*
X171147498Y-82778832D01*
X171148815Y-82709328D01*
X171146458Y-82640499D01*
X171140233Y-82580026D01*
X171131408Y-82539556D01*
X171129937Y-82535929D01*
X171094347Y-82492802D01*
X171042400Y-82469124D01*
X170984278Y-82465301D01*
X170930160Y-82481738D01*
X170890226Y-82518840D01*
X170886083Y-82526222D01*
X170873116Y-82571239D01*
X170866052Y-82635967D01*
X170864720Y-82709626D01*
X170682184Y-82709626D01*
X170682271Y-82682230D01*
X170683472Y-82638405D01*
X170691645Y-82529988D01*
X170708630Y-82448588D01*
X170736887Y-82388412D01*
X170778872Y-82343666D01*
X170819632Y-82317400D01*
X170876581Y-82298935D01*
X170947411Y-82292602D01*
X171019941Y-82297760D01*
X171081986Y-82313769D01*
X171114768Y-82332920D01*
X171148815Y-82363732D01*
X171148815Y-81974210D01*
X171332631Y-81974210D01*
X171332631Y-83110526D01*
G37*
X175158784Y-81035554D02*
X175201574Y-81045949D01*
X175283609Y-81084013D01*
X175353757Y-81142149D01*
X175402305Y-81211852D01*
X175408975Y-81227502D01*
X175418124Y-81268496D01*
X175424529Y-81329138D01*
X175426710Y-81390430D01*
X175426710Y-81506316D01*
X175184407Y-81506316D01*
X175084471Y-81506693D01*
X175014069Y-81508987D01*
X174969313Y-81514938D01*
X174946315Y-81526285D01*
X174941189Y-81544771D01*
X174950048Y-81572136D01*
X174965917Y-81604155D01*
X175010184Y-81657592D01*
X175071699Y-81684215D01*
X175146885Y-81683347D01*
X175232053Y-81654371D01*
X175305659Y-81618611D01*
X175366734Y-81666904D01*
X175427810Y-81715197D01*
X175370351Y-81768285D01*
X175293641Y-81818445D01*
X175199302Y-81848688D01*
X175097827Y-81857151D01*
X174999711Y-81841974D01*
X174983881Y-81836824D01*
X174897647Y-81791791D01*
X174833501Y-81724652D01*
X174790091Y-81633405D01*
X174766064Y-81516044D01*
X174765784Y-81513529D01*
X174763633Y-81385627D01*
X174772329Y-81339997D01*
X174942105Y-81339997D01*
X174957697Y-81347013D01*
X175000029Y-81352388D01*
X175062434Y-81355457D01*
X175101981Y-81355921D01*
X175175728Y-81355630D01*
X175221840Y-81353783D01*
X175246100Y-81348912D01*
X175254294Y-81339555D01*
X175252206Y-81324245D01*
X175250455Y-81318322D01*
X175220560Y-81262668D01*
X175173542Y-81217815D01*
X175132049Y-81198105D01*
X175076926Y-81199295D01*
X175021068Y-81223875D01*
X174974212Y-81264570D01*
X174946094Y-81314108D01*
X174942105Y-81339997D01*
X174772329Y-81339997D01*
X174785074Y-81273133D01*
X174827611Y-81178727D01*
X174888747Y-81105088D01*
X174965985Y-81054893D01*
X175056830Y-81030822D01*
X175158784Y-81035554D01*
G36*
X175158784Y-81035554D02*
G01*
X175201574Y-81045949D01*
X175283609Y-81084013D01*
X175353757Y-81142149D01*
X175402305Y-81211852D01*
X175408975Y-81227502D01*
X175418124Y-81268496D01*
X175424529Y-81329138D01*
X175426710Y-81390430D01*
X175426710Y-81506316D01*
X175184407Y-81506316D01*
X175084471Y-81506693D01*
X175014069Y-81508987D01*
X174969313Y-81514938D01*
X174946315Y-81526285D01*
X174941189Y-81544771D01*
X174950048Y-81572136D01*
X174965917Y-81604155D01*
X175010184Y-81657592D01*
X175071699Y-81684215D01*
X175146885Y-81683347D01*
X175232053Y-81654371D01*
X175305659Y-81618611D01*
X175366734Y-81666904D01*
X175427810Y-81715197D01*
X175370351Y-81768285D01*
X175293641Y-81818445D01*
X175199302Y-81848688D01*
X175097827Y-81857151D01*
X174999711Y-81841974D01*
X174983881Y-81836824D01*
X174897647Y-81791791D01*
X174833501Y-81724652D01*
X174790091Y-81633405D01*
X174766064Y-81516044D01*
X174765784Y-81513529D01*
X174763633Y-81385627D01*
X174772329Y-81339997D01*
X174942105Y-81339997D01*
X174957697Y-81347013D01*
X175000029Y-81352388D01*
X175062434Y-81355457D01*
X175101981Y-81355921D01*
X175175728Y-81355630D01*
X175221840Y-81353783D01*
X175246100Y-81348912D01*
X175254294Y-81339555D01*
X175252206Y-81324245D01*
X175250455Y-81318322D01*
X175220560Y-81262668D01*
X175173542Y-81217815D01*
X175132049Y-81198105D01*
X175076926Y-81199295D01*
X175021068Y-81223875D01*
X174974212Y-81264570D01*
X174946094Y-81314108D01*
X174942105Y-81339997D01*
X174772329Y-81339997D01*
X174785074Y-81273133D01*
X174827611Y-81178727D01*
X174888747Y-81105088D01*
X174965985Y-81054893D01*
X175056830Y-81030822D01*
X175158784Y-81035554D01*
G37*
X171618628Y-81035547D02*
X171681908Y-81047548D01*
X171747557Y-81072648D01*
X171754572Y-81075848D01*
X171804356Y-81102026D01*
X171838834Y-81126353D01*
X171849978Y-81141937D01*
X171839366Y-81167353D01*
X171813588Y-81204853D01*
X171802146Y-81218852D01*
X171754992Y-81273954D01*
X171694201Y-81238086D01*
X171636347Y-81214192D01*
X171569500Y-81201420D01*
X171505394Y-81200613D01*
X171455764Y-81212615D01*
X171443854Y-81220105D01*
X171421172Y-81254450D01*
X171418416Y-81294013D01*
X171435388Y-81324920D01*
X171445427Y-81330913D01*
X171475510Y-81338357D01*
X171528389Y-81347106D01*
X171593575Y-81355467D01*
X171605600Y-81356778D01*
X171710297Y-81374888D01*
X171786232Y-81405651D01*
X171836592Y-81451907D01*
X171864564Y-81516497D01*
X171873278Y-81595387D01*
X171861240Y-81685065D01*
X171822151Y-81755486D01*
X171755855Y-81806777D01*
X171662194Y-81839067D01*
X171558223Y-81851807D01*
X171473438Y-81851654D01*
X171404665Y-81840083D01*
X171357697Y-81824109D01*
X171298350Y-81796275D01*
X171243506Y-81763973D01*
X171224013Y-81749755D01*
X171173881Y-81708835D01*
X171294803Y-81586477D01*
X171363543Y-81631967D01*
X171432488Y-81666133D01*
X171506111Y-81684004D01*
X171576883Y-81685889D01*
X171637274Y-81672101D01*
X171679757Y-81642949D01*
X171693474Y-81618352D01*
X171691417Y-81578904D01*
X171657330Y-81548737D01*
X171591308Y-81527906D01*
X171518974Y-81518279D01*
X171407652Y-81499910D01*
X171324952Y-81465254D01*
X171269765Y-81413297D01*
X171240988Y-81343023D01*
X171237001Y-81259707D01*
X171256693Y-81172681D01*
X171301589Y-81106902D01*
X171372091Y-81062068D01*
X171468601Y-81037879D01*
X171540100Y-81033137D01*
X171618628Y-81035547D01*
G36*
X171618628Y-81035547D02*
G01*
X171681908Y-81047548D01*
X171747557Y-81072648D01*
X171754572Y-81075848D01*
X171804356Y-81102026D01*
X171838834Y-81126353D01*
X171849978Y-81141937D01*
X171839366Y-81167353D01*
X171813588Y-81204853D01*
X171802146Y-81218852D01*
X171754992Y-81273954D01*
X171694201Y-81238086D01*
X171636347Y-81214192D01*
X171569500Y-81201420D01*
X171505394Y-81200613D01*
X171455764Y-81212615D01*
X171443854Y-81220105D01*
X171421172Y-81254450D01*
X171418416Y-81294013D01*
X171435388Y-81324920D01*
X171445427Y-81330913D01*
X171475510Y-81338357D01*
X171528389Y-81347106D01*
X171593575Y-81355467D01*
X171605600Y-81356778D01*
X171710297Y-81374888D01*
X171786232Y-81405651D01*
X171836592Y-81451907D01*
X171864564Y-81516497D01*
X171873278Y-81595387D01*
X171861240Y-81685065D01*
X171822151Y-81755486D01*
X171755855Y-81806777D01*
X171662194Y-81839067D01*
X171558223Y-81851807D01*
X171473438Y-81851654D01*
X171404665Y-81840083D01*
X171357697Y-81824109D01*
X171298350Y-81796275D01*
X171243506Y-81763973D01*
X171224013Y-81749755D01*
X171173881Y-81708835D01*
X171294803Y-81586477D01*
X171363543Y-81631967D01*
X171432488Y-81666133D01*
X171506111Y-81684004D01*
X171576883Y-81685889D01*
X171637274Y-81672101D01*
X171679757Y-81642949D01*
X171693474Y-81618352D01*
X171691417Y-81578904D01*
X171657330Y-81548737D01*
X171591308Y-81527906D01*
X171518974Y-81518279D01*
X171407652Y-81499910D01*
X171324952Y-81465254D01*
X171269765Y-81413297D01*
X171240988Y-81343023D01*
X171237001Y-81259707D01*
X171256693Y-81172681D01*
X171301589Y-81106902D01*
X171372091Y-81062068D01*
X171468601Y-81037879D01*
X171540100Y-81033137D01*
X171618628Y-81035547D01*
G37*
X174301193Y-82296078D02*
X174381068Y-82316845D01*
X174447962Y-82359705D01*
X174480351Y-82391723D01*
X174533445Y-82467413D01*
X174563873Y-82555216D01*
X174574327Y-82663150D01*
X174574380Y-82671875D01*
X174574473Y-82759605D01*
X174069534Y-82759605D01*
X174080298Y-82805559D01*
X174099732Y-82847178D01*
X174133745Y-82890544D01*
X174140860Y-82897467D01*
X174202003Y-82934935D01*
X174271729Y-82941289D01*
X174351987Y-82916638D01*
X174365592Y-82910000D01*
X174407319Y-82889819D01*
X174435268Y-82878321D01*
X174440145Y-82877258D01*
X174457168Y-82887583D01*
X174489633Y-82912845D01*
X174506114Y-82926650D01*
X174540264Y-82958361D01*
X174551478Y-82979299D01*
X174543695Y-82998560D01*
X174539535Y-83003827D01*
X174511357Y-83026878D01*
X174464862Y-83054892D01*
X174432434Y-83071246D01*
X174340385Y-83100059D01*
X174238476Y-83109395D01*
X174141963Y-83098332D01*
X174114934Y-83090412D01*
X174031276Y-83045581D01*
X173969266Y-82976598D01*
X173928545Y-82882794D01*
X173908755Y-82763498D01*
X173906582Y-82701118D01*
X173912926Y-82610298D01*
X174073157Y-82610298D01*
X174088655Y-82617012D01*
X174130312Y-82622280D01*
X174190876Y-82625389D01*
X174231907Y-82625921D01*
X174305711Y-82625408D01*
X174352293Y-82623006D01*
X174377848Y-82617422D01*
X174388569Y-82607361D01*
X174390657Y-82592763D01*
X174376331Y-82547796D01*
X174340262Y-82503353D01*
X174292815Y-82469242D01*
X174245349Y-82455288D01*
X174180879Y-82467666D01*
X174125070Y-82503452D01*
X174086374Y-82555033D01*
X174073157Y-82610298D01*
X173912926Y-82610298D01*
X173915821Y-82568866D01*
X173944336Y-82463498D01*
X173992729Y-82384178D01*
X174061604Y-82330071D01*
X174151565Y-82300343D01*
X174200300Y-82294618D01*
X174301193Y-82296078D01*
G36*
X174301193Y-82296078D02*
G01*
X174381068Y-82316845D01*
X174447962Y-82359705D01*
X174480351Y-82391723D01*
X174533445Y-82467413D01*
X174563873Y-82555216D01*
X174574327Y-82663150D01*
X174574380Y-82671875D01*
X174574473Y-82759605D01*
X174069534Y-82759605D01*
X174080298Y-82805559D01*
X174099732Y-82847178D01*
X174133745Y-82890544D01*
X174140860Y-82897467D01*
X174202003Y-82934935D01*
X174271729Y-82941289D01*
X174351987Y-82916638D01*
X174365592Y-82910000D01*
X174407319Y-82889819D01*
X174435268Y-82878321D01*
X174440145Y-82877258D01*
X174457168Y-82887583D01*
X174489633Y-82912845D01*
X174506114Y-82926650D01*
X174540264Y-82958361D01*
X174551478Y-82979299D01*
X174543695Y-82998560D01*
X174539535Y-83003827D01*
X174511357Y-83026878D01*
X174464862Y-83054892D01*
X174432434Y-83071246D01*
X174340385Y-83100059D01*
X174238476Y-83109395D01*
X174141963Y-83098332D01*
X174114934Y-83090412D01*
X174031276Y-83045581D01*
X173969266Y-82976598D01*
X173928545Y-82882794D01*
X173908755Y-82763498D01*
X173906582Y-82701118D01*
X173912926Y-82610298D01*
X174073157Y-82610298D01*
X174088655Y-82617012D01*
X174130312Y-82622280D01*
X174190876Y-82625389D01*
X174231907Y-82625921D01*
X174305711Y-82625408D01*
X174352293Y-82623006D01*
X174377848Y-82617422D01*
X174388569Y-82607361D01*
X174390657Y-82592763D01*
X174376331Y-82547796D01*
X174340262Y-82503353D01*
X174292815Y-82469242D01*
X174245349Y-82455288D01*
X174180879Y-82467666D01*
X174125070Y-82503452D01*
X174086374Y-82555033D01*
X174073157Y-82610298D01*
X173912926Y-82610298D01*
X173915821Y-82568866D01*
X173944336Y-82463498D01*
X173992729Y-82384178D01*
X174061604Y-82330071D01*
X174151565Y-82300343D01*
X174200300Y-82294618D01*
X174301193Y-82296078D01*
G37*
X169797018Y-81057027D02*
X169813670Y-81064866D01*
X169871305Y-81107086D01*
X169925805Y-81168700D01*
X169966499Y-81236543D01*
X169978074Y-81267734D01*
X169988634Y-81323449D01*
X169994931Y-81390781D01*
X169995696Y-81418585D01*
X169995789Y-81506316D01*
X169490850Y-81506316D01*
X169501613Y-81552270D01*
X169528033Y-81606620D01*
X169574222Y-81653591D01*
X169629172Y-81683848D01*
X169664189Y-81690131D01*
X169711677Y-81682506D01*
X169768335Y-81663383D01*
X169787582Y-81654584D01*
X169858759Y-81619036D01*
X169919502Y-81665367D01*
X169954552Y-81696703D01*
X169973202Y-81722567D01*
X169974147Y-81730158D01*
X169957485Y-81748556D01*
X169920970Y-81776515D01*
X169887828Y-81798327D01*
X169798393Y-81837537D01*
X169698129Y-81855285D01*
X169598754Y-81850670D01*
X169519539Y-81826551D01*
X169437880Y-81774884D01*
X169379849Y-81706856D01*
X169343546Y-81618843D01*
X169327072Y-81507216D01*
X169325611Y-81456138D01*
X169331457Y-81339091D01*
X169332175Y-81335686D01*
X169499489Y-81335686D01*
X169504097Y-81346662D01*
X169523036Y-81352715D01*
X169562098Y-81355310D01*
X169627077Y-81355910D01*
X169652097Y-81355921D01*
X169728221Y-81355014D01*
X169776496Y-81351720D01*
X169802460Y-81345181D01*
X169811648Y-81334537D01*
X169811973Y-81331119D01*
X169801487Y-81303956D01*
X169775242Y-81265903D01*
X169763959Y-81252579D01*
X169722072Y-81214896D01*
X169678409Y-81200080D01*
X169654885Y-81198842D01*
X169591243Y-81214329D01*
X169537873Y-81255930D01*
X169504019Y-81316353D01*
X169503419Y-81318322D01*
X169499489Y-81335686D01*
X169332175Y-81335686D01*
X169350899Y-81246928D01*
X169385922Y-81173190D01*
X169428756Y-81120848D01*
X169507948Y-81064092D01*
X169601040Y-81033762D01*
X169700055Y-81031021D01*
X169797018Y-81057027D01*
G36*
X169797018Y-81057027D02*
G01*
X169813670Y-81064866D01*
X169871305Y-81107086D01*
X169925805Y-81168700D01*
X169966499Y-81236543D01*
X169978074Y-81267734D01*
X169988634Y-81323449D01*
X169994931Y-81390781D01*
X169995696Y-81418585D01*
X169995789Y-81506316D01*
X169490850Y-81506316D01*
X169501613Y-81552270D01*
X169528033Y-81606620D01*
X169574222Y-81653591D01*
X169629172Y-81683848D01*
X169664189Y-81690131D01*
X169711677Y-81682506D01*
X169768335Y-81663383D01*
X169787582Y-81654584D01*
X169858759Y-81619036D01*
X169919502Y-81665367D01*
X169954552Y-81696703D01*
X169973202Y-81722567D01*
X169974147Y-81730158D01*
X169957485Y-81748556D01*
X169920970Y-81776515D01*
X169887828Y-81798327D01*
X169798393Y-81837537D01*
X169698129Y-81855285D01*
X169598754Y-81850670D01*
X169519539Y-81826551D01*
X169437880Y-81774884D01*
X169379849Y-81706856D01*
X169343546Y-81618843D01*
X169327072Y-81507216D01*
X169325611Y-81456138D01*
X169331457Y-81339091D01*
X169332175Y-81335686D01*
X169499489Y-81335686D01*
X169504097Y-81346662D01*
X169523036Y-81352715D01*
X169562098Y-81355310D01*
X169627077Y-81355910D01*
X169652097Y-81355921D01*
X169728221Y-81355014D01*
X169776496Y-81351720D01*
X169802460Y-81345181D01*
X169811648Y-81334537D01*
X169811973Y-81331119D01*
X169801487Y-81303956D01*
X169775242Y-81265903D01*
X169763959Y-81252579D01*
X169722072Y-81214896D01*
X169678409Y-81200080D01*
X169654885Y-81198842D01*
X169591243Y-81214329D01*
X169537873Y-81255930D01*
X169504019Y-81316353D01*
X169503419Y-81318322D01*
X169499489Y-81335686D01*
X169332175Y-81335686D01*
X169350899Y-81246928D01*
X169385922Y-81173190D01*
X169428756Y-81120848D01*
X169507948Y-81064092D01*
X169601040Y-81033762D01*
X169700055Y-81031021D01*
X169797018Y-81057027D01*
G37*
X172979992Y-82296673D02*
X173050427Y-82313780D01*
X173070787Y-82322844D01*
X173110253Y-82346583D01*
X173140541Y-82373321D01*
X173162952Y-82407699D01*
X173178786Y-82454360D01*
X173189343Y-82517946D01*
X173195924Y-82603099D01*
X173199828Y-82714462D01*
X173201310Y-82788849D01*
X173206765Y-83110526D01*
X173113580Y-83110526D01*
X173057047Y-83108156D01*
X173027922Y-83100055D01*
X173020394Y-83086451D01*
X173016420Y-83071741D01*
X172998652Y-83074554D01*
X172974440Y-83086348D01*
X172913828Y-83104427D01*
X172835929Y-83109299D01*
X172753995Y-83101330D01*
X172681281Y-83080889D01*
X172674759Y-83078051D01*
X172608302Y-83031365D01*
X172564491Y-82966464D01*
X172544332Y-82890600D01*
X172545872Y-82863344D01*
X172710345Y-82863344D01*
X172724837Y-82900024D01*
X172767805Y-82926309D01*
X172837129Y-82940417D01*
X172874177Y-82942290D01*
X172935919Y-82937494D01*
X172976960Y-82918858D01*
X172986973Y-82910000D01*
X173014100Y-82861806D01*
X173020394Y-82818092D01*
X173020394Y-82759605D01*
X172938930Y-82759605D01*
X172844234Y-82764432D01*
X172777813Y-82779613D01*
X172735846Y-82806200D01*
X172726449Y-82818052D01*
X172710345Y-82863344D01*
X172545872Y-82863344D01*
X172548829Y-82811026D01*
X172578985Y-82734995D01*
X172620131Y-82683612D01*
X172645052Y-82661397D01*
X172669448Y-82646798D01*
X172701191Y-82637897D01*
X172748152Y-82632775D01*
X172818204Y-82629515D01*
X172845990Y-82628577D01*
X173020394Y-82622879D01*
X173020138Y-82570091D01*
X173013384Y-82514603D01*
X172988964Y-82481052D01*
X172939630Y-82459618D01*
X172938306Y-82459236D01*
X172868360Y-82450808D01*
X172799914Y-82461816D01*
X172749047Y-82488585D01*
X172728637Y-82501803D01*
X172706654Y-82499974D01*
X172672826Y-82480824D01*
X172652961Y-82467308D01*
X172614106Y-82438432D01*
X172590038Y-82416786D01*
X172586176Y-82410589D01*
X172602079Y-82378519D01*
X172649065Y-82340219D01*
X172669473Y-82327297D01*
X172728143Y-82305041D01*
X172807212Y-82292432D01*
X172895041Y-82289600D01*
X172979992Y-82296673D01*
G36*
X172979992Y-82296673D02*
G01*
X173050427Y-82313780D01*
X173070787Y-82322844D01*
X173110253Y-82346583D01*
X173140541Y-82373321D01*
X173162952Y-82407699D01*
X173178786Y-82454360D01*
X173189343Y-82517946D01*
X173195924Y-82603099D01*
X173199828Y-82714462D01*
X173201310Y-82788849D01*
X173206765Y-83110526D01*
X173113580Y-83110526D01*
X173057047Y-83108156D01*
X173027922Y-83100055D01*
X173020394Y-83086451D01*
X173016420Y-83071741D01*
X172998652Y-83074554D01*
X172974440Y-83086348D01*
X172913828Y-83104427D01*
X172835929Y-83109299D01*
X172753995Y-83101330D01*
X172681281Y-83080889D01*
X172674759Y-83078051D01*
X172608302Y-83031365D01*
X172564491Y-82966464D01*
X172544332Y-82890600D01*
X172545872Y-82863344D01*
X172710345Y-82863344D01*
X172724837Y-82900024D01*
X172767805Y-82926309D01*
X172837129Y-82940417D01*
X172874177Y-82942290D01*
X172935919Y-82937494D01*
X172976960Y-82918858D01*
X172986973Y-82910000D01*
X173014100Y-82861806D01*
X173020394Y-82818092D01*
X173020394Y-82759605D01*
X172938930Y-82759605D01*
X172844234Y-82764432D01*
X172777813Y-82779613D01*
X172735846Y-82806200D01*
X172726449Y-82818052D01*
X172710345Y-82863344D01*
X172545872Y-82863344D01*
X172548829Y-82811026D01*
X172578985Y-82734995D01*
X172620131Y-82683612D01*
X172645052Y-82661397D01*
X172669448Y-82646798D01*
X172701191Y-82637897D01*
X172748152Y-82632775D01*
X172818204Y-82629515D01*
X172845990Y-82628577D01*
X173020394Y-82622879D01*
X173020138Y-82570091D01*
X173013384Y-82514603D01*
X172988964Y-82481052D01*
X172939630Y-82459618D01*
X172938306Y-82459236D01*
X172868360Y-82450808D01*
X172799914Y-82461816D01*
X172749047Y-82488585D01*
X172728637Y-82501803D01*
X172706654Y-82499974D01*
X172672826Y-82480824D01*
X172652961Y-82467308D01*
X172614106Y-82438432D01*
X172590038Y-82416786D01*
X172586176Y-82410589D01*
X172602079Y-82378519D01*
X172649065Y-82340219D01*
X172669473Y-82327297D01*
X172728143Y-82305041D01*
X172807212Y-82292432D01*
X172895041Y-82289600D01*
X172979992Y-82296673D01*
G37*
X169760457Y-82298184D02*
X169839070Y-82319160D01*
X169898916Y-82357180D01*
X169941147Y-82406978D01*
X169954275Y-82428230D01*
X169963968Y-82450492D01*
X169970744Y-82478970D01*
X169975123Y-82518871D01*
X169977624Y-82575401D01*
X169978768Y-82653767D01*
X169979072Y-82759176D01*
X169979078Y-82787142D01*
X169979078Y-83110526D01*
X169898868Y-83110526D01*
X169847706Y-83106943D01*
X169809877Y-83097866D01*
X169800399Y-83092268D01*
X169774488Y-83082606D01*
X169748024Y-83092268D01*
X169704452Y-83104330D01*
X169641160Y-83109185D01*
X169571010Y-83107078D01*
X169506860Y-83098256D01*
X169469407Y-83086937D01*
X169396933Y-83040412D01*
X169351640Y-82975846D01*
X169331278Y-82890000D01*
X169331088Y-82887796D01*
X169332875Y-82849713D01*
X169494473Y-82849713D01*
X169508601Y-82893030D01*
X169531612Y-82917408D01*
X169577804Y-82935845D01*
X169638775Y-82943205D01*
X169700949Y-82939583D01*
X169750751Y-82925074D01*
X169764703Y-82915765D01*
X169789085Y-82872753D01*
X169795263Y-82823857D01*
X169795263Y-82759605D01*
X169702818Y-82759605D01*
X169614995Y-82766366D01*
X169548418Y-82785520D01*
X169507002Y-82815376D01*
X169494473Y-82849713D01*
X169332875Y-82849713D01*
X169335490Y-82794004D01*
X169366424Y-82719847D01*
X169424581Y-82663767D01*
X169432620Y-82658665D01*
X169467163Y-82642055D01*
X169509918Y-82631996D01*
X169569686Y-82627107D01*
X169640690Y-82625983D01*
X169795263Y-82625921D01*
X169795263Y-82561125D01*
X169788706Y-82510850D01*
X169771975Y-82477169D01*
X169770016Y-82475376D01*
X169732783Y-82460642D01*
X169676580Y-82454931D01*
X169614467Y-82457737D01*
X169559510Y-82468556D01*
X169526899Y-82484782D01*
X169509228Y-82497780D01*
X169490569Y-82500262D01*
X169464819Y-82489613D01*
X169425873Y-82463218D01*
X169367630Y-82418465D01*
X169362284Y-82414273D01*
X169365023Y-82398760D01*
X169387876Y-82372960D01*
X169422609Y-82344289D01*
X169460990Y-82320166D01*
X169473048Y-82314470D01*
X169517034Y-82303103D01*
X169581487Y-82294995D01*
X169653497Y-82291743D01*
X169656864Y-82291736D01*
X169760457Y-82298184D01*
G36*
X169760457Y-82298184D02*
G01*
X169839070Y-82319160D01*
X169898916Y-82357180D01*
X169941147Y-82406978D01*
X169954275Y-82428230D01*
X169963968Y-82450492D01*
X169970744Y-82478970D01*
X169975123Y-82518871D01*
X169977624Y-82575401D01*
X169978768Y-82653767D01*
X169979072Y-82759176D01*
X169979078Y-82787142D01*
X169979078Y-83110526D01*
X169898868Y-83110526D01*
X169847706Y-83106943D01*
X169809877Y-83097866D01*
X169800399Y-83092268D01*
X169774488Y-83082606D01*
X169748024Y-83092268D01*
X169704452Y-83104330D01*
X169641160Y-83109185D01*
X169571010Y-83107078D01*
X169506860Y-83098256D01*
X169469407Y-83086937D01*
X169396933Y-83040412D01*
X169351640Y-82975846D01*
X169331278Y-82890000D01*
X169331088Y-82887796D01*
X169332875Y-82849713D01*
X169494473Y-82849713D01*
X169508601Y-82893030D01*
X169531612Y-82917408D01*
X169577804Y-82935845D01*
X169638775Y-82943205D01*
X169700949Y-82939583D01*
X169750751Y-82925074D01*
X169764703Y-82915765D01*
X169789085Y-82872753D01*
X169795263Y-82823857D01*
X169795263Y-82759605D01*
X169702818Y-82759605D01*
X169614995Y-82766366D01*
X169548418Y-82785520D01*
X169507002Y-82815376D01*
X169494473Y-82849713D01*
X169332875Y-82849713D01*
X169335490Y-82794004D01*
X169366424Y-82719847D01*
X169424581Y-82663767D01*
X169432620Y-82658665D01*
X169467163Y-82642055D01*
X169509918Y-82631996D01*
X169569686Y-82627107D01*
X169640690Y-82625983D01*
X169795263Y-82625921D01*
X169795263Y-82561125D01*
X169788706Y-82510850D01*
X169771975Y-82477169D01*
X169770016Y-82475376D01*
X169732783Y-82460642D01*
X169676580Y-82454931D01*
X169614467Y-82457737D01*
X169559510Y-82468556D01*
X169526899Y-82484782D01*
X169509228Y-82497780D01*
X169490569Y-82500262D01*
X169464819Y-82489613D01*
X169425873Y-82463218D01*
X169367630Y-82418465D01*
X169362284Y-82414273D01*
X169365023Y-82398760D01*
X169387876Y-82372960D01*
X169422609Y-82344289D01*
X169460990Y-82320166D01*
X169473048Y-82314470D01*
X169517034Y-82303103D01*
X169581487Y-82294995D01*
X169653497Y-82291743D01*
X169656864Y-82291736D01*
X169760457Y-82298184D01*
G37*
X169063360Y-81052468D02*
X169098592Y-81069874D01*
X169142040Y-81100206D01*
X169173706Y-81133283D01*
X169195394Y-81174817D01*
X169208903Y-81230522D01*
X169216038Y-81306111D01*
X169218600Y-81407296D01*
X169218750Y-81450797D01*
X169218312Y-81546135D01*
X169216496Y-81614271D01*
X169212545Y-81661418D01*
X169205702Y-81693790D01*
X169195211Y-81717600D01*
X169184296Y-81733843D01*
X169114619Y-81802952D01*
X169032566Y-81844521D01*
X168944050Y-81857023D01*
X168854981Y-81838934D01*
X168826763Y-81826142D01*
X168759210Y-81790931D01*
X168759210Y-82342700D01*
X168808512Y-82317205D01*
X168873473Y-82297480D01*
X168953320Y-82292427D01*
X169033052Y-82301756D01*
X169093265Y-82322714D01*
X169143208Y-82362627D01*
X169185881Y-82419741D01*
X169189090Y-82425605D01*
X169202622Y-82453227D01*
X169212505Y-82481068D01*
X169219309Y-82514794D01*
X169223601Y-82560071D01*
X169225951Y-82622562D01*
X169226928Y-82707935D01*
X169227105Y-82804010D01*
X169227105Y-83110526D01*
X169043289Y-83110526D01*
X169043289Y-82545339D01*
X168991875Y-82502077D01*
X168938466Y-82467472D01*
X168887888Y-82461180D01*
X168837030Y-82477372D01*
X168809925Y-82493227D01*
X168789751Y-82515810D01*
X168775403Y-82549940D01*
X168765776Y-82600434D01*
X168759763Y-82672111D01*
X168756260Y-82769788D01*
X168755026Y-82834802D01*
X168750855Y-83102171D01*
X168663125Y-83107222D01*
X168575394Y-83112273D01*
X168575394Y-81453101D01*
X168759210Y-81453101D01*
X168763896Y-81545600D01*
X168779688Y-81609809D01*
X168809183Y-81649759D01*
X168854980Y-81669480D01*
X168901250Y-81673421D01*
X168953628Y-81668892D01*
X168988390Y-81651069D01*
X169010128Y-81627519D01*
X169027240Y-81602189D01*
X169037427Y-81573969D01*
X169041960Y-81534431D01*
X169042109Y-81475142D01*
X169040584Y-81425498D01*
X169037081Y-81350710D01*
X169031867Y-81301611D01*
X169023087Y-81270467D01*
X169008886Y-81249545D01*
X168995484Y-81237452D01*
X168939487Y-81211081D01*
X168873211Y-81206822D01*
X168835156Y-81215906D01*
X168797477Y-81248196D01*
X168772519Y-81311006D01*
X168760422Y-81403894D01*
X168759210Y-81453101D01*
X168575394Y-81453101D01*
X168575394Y-81038421D01*
X168667302Y-81038421D01*
X168722483Y-81040603D01*
X168750952Y-81048351D01*
X168759206Y-81063468D01*
X168759210Y-81063916D01*
X168763040Y-81078720D01*
X168779933Y-81077039D01*
X168813519Y-81060772D01*
X168891778Y-81035887D01*
X168979827Y-81033271D01*
X169063360Y-81052468D01*
G36*
X169063360Y-81052468D02*
G01*
X169098592Y-81069874D01*
X169142040Y-81100206D01*
X169173706Y-81133283D01*
X169195394Y-81174817D01*
X169208903Y-81230522D01*
X169216038Y-81306111D01*
X169218600Y-81407296D01*
X169218750Y-81450797D01*
X169218312Y-81546135D01*
X169216496Y-81614271D01*
X169212545Y-81661418D01*
X169205702Y-81693790D01*
X169195211Y-81717600D01*
X169184296Y-81733843D01*
X169114619Y-81802952D01*
X169032566Y-81844521D01*
X168944050Y-81857023D01*
X168854981Y-81838934D01*
X168826763Y-81826142D01*
X168759210Y-81790931D01*
X168759210Y-82342700D01*
X168808512Y-82317205D01*
X168873473Y-82297480D01*
X168953320Y-82292427D01*
X169033052Y-82301756D01*
X169093265Y-82322714D01*
X169143208Y-82362627D01*
X169185881Y-82419741D01*
X169189090Y-82425605D01*
X169202622Y-82453227D01*
X169212505Y-82481068D01*
X169219309Y-82514794D01*
X169223601Y-82560071D01*
X169225951Y-82622562D01*
X169226928Y-82707935D01*
X169227105Y-82804010D01*
X169227105Y-83110526D01*
X169043289Y-83110526D01*
X169043289Y-82545339D01*
X168991875Y-82502077D01*
X168938466Y-82467472D01*
X168887888Y-82461180D01*
X168837030Y-82477372D01*
X168809925Y-82493227D01*
X168789751Y-82515810D01*
X168775403Y-82549940D01*
X168765776Y-82600434D01*
X168759763Y-82672111D01*
X168756260Y-82769788D01*
X168755026Y-82834802D01*
X168750855Y-83102171D01*
X168663125Y-83107222D01*
X168575394Y-83112273D01*
X168575394Y-81453101D01*
X168759210Y-81453101D01*
X168763896Y-81545600D01*
X168779688Y-81609809D01*
X168809183Y-81649759D01*
X168854980Y-81669480D01*
X168901250Y-81673421D01*
X168953628Y-81668892D01*
X168988390Y-81651069D01*
X169010128Y-81627519D01*
X169027240Y-81602189D01*
X169037427Y-81573969D01*
X169041960Y-81534431D01*
X169042109Y-81475142D01*
X169040584Y-81425498D01*
X169037081Y-81350710D01*
X169031867Y-81301611D01*
X169023087Y-81270467D01*
X169008886Y-81249545D01*
X168995484Y-81237452D01*
X168939487Y-81211081D01*
X168873211Y-81206822D01*
X168835156Y-81215906D01*
X168797477Y-81248196D01*
X168772519Y-81311006D01*
X168760422Y-81403894D01*
X168759210Y-81453101D01*
X168575394Y-81453101D01*
X168575394Y-81038421D01*
X168667302Y-81038421D01*
X168722483Y-81040603D01*
X168750952Y-81048351D01*
X168759206Y-81063468D01*
X168759210Y-81063916D01*
X168763040Y-81078720D01*
X168779933Y-81077039D01*
X168813519Y-81060772D01*
X168891778Y-81035887D01*
X168979827Y-81033271D01*
X169063360Y-81052468D01*
G37*
X172100964Y-75498576D02*
X172176513Y-75899322D01*
X172734041Y-76129154D01*
X173068465Y-75901748D01*
X173162122Y-75838431D01*
X173246782Y-75781896D01*
X173318495Y-75734727D01*
X173373311Y-75699502D01*
X173407280Y-75678805D01*
X173416530Y-75674342D01*
X173433195Y-75685820D01*
X173468806Y-75717551D01*
X173519371Y-75765483D01*
X173580900Y-75825562D01*
X173649399Y-75893733D01*
X173720879Y-75965945D01*
X173791347Y-76038142D01*
X173856811Y-76106273D01*
X173913280Y-76166283D01*
X173956763Y-76214119D01*
X173983268Y-76245727D01*
X173989605Y-76256305D01*
X173980486Y-76275806D01*
X173954920Y-76318531D01*
X173915597Y-76380298D01*
X173865203Y-76456931D01*
X173806427Y-76544248D01*
X173772368Y-76594052D01*
X173710289Y-76684993D01*
X173655126Y-76767059D01*
X173609554Y-76836163D01*
X173576250Y-76888222D01*
X173557890Y-76919150D01*
X173555131Y-76925650D01*
X173561385Y-76944121D01*
X173578434Y-76987172D01*
X173603703Y-77048749D01*
X173634622Y-77122799D01*
X173668618Y-77203270D01*
X173703118Y-77284107D01*
X173735551Y-77359258D01*
X173763343Y-77422671D01*
X173783923Y-77468293D01*
X173794719Y-77490069D01*
X173795356Y-77490926D01*
X173812307Y-77495084D01*
X173857451Y-77504361D01*
X173926110Y-77517844D01*
X174013602Y-77534621D01*
X174115250Y-77553781D01*
X174174556Y-77564830D01*
X174283172Y-77585510D01*
X174381277Y-77605189D01*
X174463909Y-77622789D01*
X174526104Y-77637233D01*
X174562899Y-77647446D01*
X174570296Y-77650686D01*
X174577540Y-77672617D01*
X174583385Y-77722147D01*
X174587835Y-77793485D01*
X174590893Y-77880839D01*
X174592565Y-77978417D01*
X174592853Y-78080426D01*
X174591761Y-78181075D01*
X174589294Y-78274572D01*
X174585456Y-78355125D01*
X174580250Y-78416942D01*
X174573681Y-78454230D01*
X174569741Y-78461993D01*
X174546188Y-78471298D01*
X174496282Y-78484600D01*
X174426623Y-78500337D01*
X174343813Y-78516946D01*
X174314905Y-78522319D01*
X174175531Y-78547848D01*
X174065436Y-78568408D01*
X173980982Y-78584815D01*
X173918530Y-78597887D01*
X173874444Y-78608441D01*
X173845085Y-78617294D01*
X173826815Y-78625263D01*
X173815998Y-78633165D01*
X173814485Y-78634727D01*
X173799377Y-78659886D01*
X173776329Y-78708850D01*
X173747644Y-78775621D01*
X173715622Y-78854205D01*
X173682565Y-78938607D01*
X173650773Y-79022830D01*
X173622549Y-79100879D01*
X173600193Y-79166759D01*
X173586007Y-79214473D01*
X173582293Y-79238027D01*
X173582602Y-79238852D01*
X173595189Y-79258104D01*
X173623744Y-79300463D01*
X173665267Y-79361521D01*
X173716756Y-79436868D01*
X173775211Y-79522096D01*
X173791858Y-79546315D01*
X173851215Y-79634123D01*
X173903447Y-79714238D01*
X173945708Y-79782062D01*
X173975153Y-79832993D01*
X173988937Y-79862431D01*
X173989605Y-79866048D01*
X173978024Y-79885057D01*
X173946024Y-79922714D01*
X173897718Y-79974973D01*
X173837220Y-80037786D01*
X173768644Y-80107106D01*
X173696104Y-80178885D01*
X173623712Y-80249077D01*
X173555584Y-80313635D01*
X173495832Y-80368510D01*
X173448571Y-80409656D01*
X173417913Y-80433026D01*
X173409432Y-80436842D01*
X173389691Y-80427855D01*
X173349274Y-80403616D01*
X173294763Y-80368209D01*
X173252823Y-80339711D01*
X173176829Y-80287418D01*
X173086834Y-80225845D01*
X172996564Y-80164370D01*
X172948032Y-80131469D01*
X172783762Y-80020359D01*
X172645869Y-80094916D01*
X172583049Y-80127578D01*
X172529629Y-80152966D01*
X172493484Y-80167446D01*
X172484284Y-80169460D01*
X172473221Y-80154584D01*
X172451394Y-80112547D01*
X172420434Y-80047227D01*
X172381970Y-79962500D01*
X172337632Y-79862245D01*
X172289047Y-79750339D01*
X172237846Y-79630659D01*
X172185659Y-79507084D01*
X172134113Y-79383491D01*
X172084840Y-79263757D01*
X172039467Y-79151759D01*
X171999625Y-79051377D01*
X171966942Y-78966486D01*
X171943049Y-78900965D01*
X171929574Y-78858690D01*
X171927406Y-78844172D01*
X171944583Y-78825653D01*
X171982190Y-78795590D01*
X172032366Y-78760232D01*
X172036578Y-78757434D01*
X172166264Y-78653625D01*
X172270834Y-78532515D01*
X172349381Y-78397976D01*
X172400999Y-78253882D01*
X172424782Y-78104105D01*
X172419823Y-77952517D01*
X172385217Y-77802992D01*
X172320057Y-77659400D01*
X172300886Y-77627984D01*
X172201174Y-77501125D01*
X172083377Y-77399255D01*
X171951571Y-77322904D01*
X171809833Y-77272602D01*
X171662242Y-77248879D01*
X171512873Y-77252265D01*
X171365803Y-77283288D01*
X171225111Y-77342480D01*
X171094873Y-77430369D01*
X171054586Y-77466042D01*
X170952055Y-77577706D01*
X170877341Y-77695257D01*
X170826090Y-77827020D01*
X170797546Y-77957507D01*
X170790500Y-78104216D01*
X170813996Y-78251653D01*
X170865649Y-78394834D01*
X170943071Y-78528777D01*
X171043875Y-78648498D01*
X171165676Y-78749014D01*
X171181684Y-78759609D01*
X171232398Y-78794306D01*
X171270950Y-78824370D01*
X171289381Y-78843565D01*
X171289649Y-78844172D01*
X171285692Y-78864936D01*
X171270007Y-78912062D01*
X171244222Y-78981673D01*
X171209969Y-79069893D01*
X171168877Y-79172844D01*
X171122576Y-79286650D01*
X171072696Y-79407435D01*
X171020867Y-79531321D01*
X170968719Y-79654432D01*
X170917882Y-79772891D01*
X170869987Y-79882823D01*
X170826662Y-79980349D01*
X170789538Y-80061593D01*
X170760244Y-80122679D01*
X170740412Y-80159730D01*
X170732426Y-80169460D01*
X170708021Y-80161883D01*
X170662358Y-80141560D01*
X170603310Y-80112125D01*
X170570840Y-80094916D01*
X170432947Y-80020359D01*
X170268677Y-80131469D01*
X170184821Y-80188390D01*
X170093013Y-80251030D01*
X170006980Y-80310011D01*
X169963887Y-80339711D01*
X169903277Y-80380410D01*
X169851955Y-80412663D01*
X169816615Y-80432384D01*
X169805137Y-80436554D01*
X169788430Y-80425307D01*
X169751454Y-80393911D01*
X169697795Y-80345624D01*
X169631038Y-80283708D01*
X169554766Y-80211421D01*
X169506527Y-80165008D01*
X169422133Y-80082087D01*
X169349197Y-80007920D01*
X169290669Y-79945680D01*
X169249497Y-79898541D01*
X169228628Y-79869673D01*
X169226626Y-79863815D01*
X169235917Y-79841532D01*
X169261591Y-79796477D01*
X169300800Y-79733211D01*
X169350697Y-79656295D01*
X169408433Y-79570292D01*
X169424851Y-79546315D01*
X169484677Y-79459170D01*
X169538350Y-79380710D01*
X169582870Y-79315345D01*
X169615235Y-79267484D01*
X169632445Y-79241535D01*
X169634107Y-79238852D01*
X169631621Y-79218172D01*
X169618423Y-79172704D01*
X169596814Y-79108444D01*
X169569096Y-79031387D01*
X169537570Y-78947529D01*
X169504537Y-78862866D01*
X169472299Y-78783392D01*
X169443157Y-78715104D01*
X169419412Y-78663997D01*
X169403365Y-78636067D01*
X169402225Y-78634727D01*
X169392412Y-78626745D01*
X169375839Y-78618851D01*
X169348868Y-78610229D01*
X169307861Y-78600062D01*
X169249180Y-78587531D01*
X169169187Y-78571821D01*
X169064245Y-78552113D01*
X168930715Y-78527592D01*
X168901804Y-78522319D01*
X168816118Y-78505764D01*
X168741418Y-78489569D01*
X168684306Y-78475296D01*
X168651383Y-78464508D01*
X168646969Y-78461993D01*
X168639694Y-78439696D01*
X168633781Y-78389869D01*
X168629234Y-78318304D01*
X168626055Y-78230793D01*
X168624251Y-78133128D01*
X168623823Y-78031101D01*
X168624777Y-77930503D01*
X168627116Y-77837127D01*
X168630844Y-77756765D01*
X168635966Y-77695209D01*
X168642484Y-77658250D01*
X168646414Y-77650686D01*
X168668292Y-77643056D01*
X168718109Y-77630642D01*
X168790903Y-77614522D01*
X168881711Y-77595773D01*
X168985569Y-77575471D01*
X169042154Y-77564830D01*
X169149514Y-77544760D01*
X169245254Y-77526580D01*
X169324694Y-77511199D01*
X169383154Y-77499531D01*
X169415955Y-77492488D01*
X169421354Y-77490926D01*
X169430478Y-77473322D01*
X169449765Y-77430918D01*
X169476645Y-77369772D01*
X169508546Y-77295943D01*
X169542898Y-77215489D01*
X169577129Y-77134468D01*
X169608669Y-77058937D01*
X169634946Y-76994955D01*
X169653389Y-76948580D01*
X169661429Y-76925869D01*
X169661578Y-76924876D01*
X169652465Y-76906961D01*
X169626914Y-76865733D01*
X169587612Y-76805291D01*
X169537243Y-76729731D01*
X169478494Y-76643152D01*
X169444342Y-76593421D01*
X169382110Y-76502236D01*
X169326836Y-76419449D01*
X169281218Y-76349249D01*
X169247952Y-76295824D01*
X169229736Y-76263361D01*
X169227105Y-76256083D01*
X169238414Y-76239145D01*
X169269681Y-76202978D01*
X169316910Y-76151635D01*
X169376108Y-76089167D01*
X169443281Y-76019626D01*
X169514434Y-75947065D01*
X169585574Y-75875535D01*
X169652707Y-75809087D01*
X169711839Y-75751774D01*
X169758975Y-75707647D01*
X169790123Y-75680759D01*
X169800543Y-75674342D01*
X169817509Y-75683365D01*
X169858089Y-75708715D01*
X169918337Y-75747810D01*
X169994307Y-75798071D01*
X170082054Y-75856917D01*
X170148244Y-75901748D01*
X170482668Y-76129154D01*
X170761433Y-76014238D01*
X171040197Y-75899322D01*
X171115746Y-75498576D01*
X171191294Y-75097829D01*
X172025415Y-75097829D01*
X172100964Y-75498576D01*
G36*
X172100964Y-75498576D02*
G01*
X172176513Y-75899322D01*
X172734041Y-76129154D01*
X173068465Y-75901748D01*
X173162122Y-75838431D01*
X173246782Y-75781896D01*
X173318495Y-75734727D01*
X173373311Y-75699502D01*
X173407280Y-75678805D01*
X173416530Y-75674342D01*
X173433195Y-75685820D01*
X173468806Y-75717551D01*
X173519371Y-75765483D01*
X173580900Y-75825562D01*
X173649399Y-75893733D01*
X173720879Y-75965945D01*
X173791347Y-76038142D01*
X173856811Y-76106273D01*
X173913280Y-76166283D01*
X173956763Y-76214119D01*
X173983268Y-76245727D01*
X173989605Y-76256305D01*
X173980486Y-76275806D01*
X173954920Y-76318531D01*
X173915597Y-76380298D01*
X173865203Y-76456931D01*
X173806427Y-76544248D01*
X173772368Y-76594052D01*
X173710289Y-76684993D01*
X173655126Y-76767059D01*
X173609554Y-76836163D01*
X173576250Y-76888222D01*
X173557890Y-76919150D01*
X173555131Y-76925650D01*
X173561385Y-76944121D01*
X173578434Y-76987172D01*
X173603703Y-77048749D01*
X173634622Y-77122799D01*
X173668618Y-77203270D01*
X173703118Y-77284107D01*
X173735551Y-77359258D01*
X173763343Y-77422671D01*
X173783923Y-77468293D01*
X173794719Y-77490069D01*
X173795356Y-77490926D01*
X173812307Y-77495084D01*
X173857451Y-77504361D01*
X173926110Y-77517844D01*
X174013602Y-77534621D01*
X174115250Y-77553781D01*
X174174556Y-77564830D01*
X174283172Y-77585510D01*
X174381277Y-77605189D01*
X174463909Y-77622789D01*
X174526104Y-77637233D01*
X174562899Y-77647446D01*
X174570296Y-77650686D01*
X174577540Y-77672617D01*
X174583385Y-77722147D01*
X174587835Y-77793485D01*
X174590893Y-77880839D01*
X174592565Y-77978417D01*
X174592853Y-78080426D01*
X174591761Y-78181075D01*
X174589294Y-78274572D01*
X174585456Y-78355125D01*
X174580250Y-78416942D01*
X174573681Y-78454230D01*
X174569741Y-78461993D01*
X174546188Y-78471298D01*
X174496282Y-78484600D01*
X174426623Y-78500337D01*
X174343813Y-78516946D01*
X174314905Y-78522319D01*
X174175531Y-78547848D01*
X174065436Y-78568408D01*
X173980982Y-78584815D01*
X173918530Y-78597887D01*
X173874444Y-78608441D01*
X173845085Y-78617294D01*
X173826815Y-78625263D01*
X173815998Y-78633165D01*
X173814485Y-78634727D01*
X173799377Y-78659886D01*
X173776329Y-78708850D01*
X173747644Y-78775621D01*
X173715622Y-78854205D01*
X173682565Y-78938607D01*
X173650773Y-79022830D01*
X173622549Y-79100879D01*
X173600193Y-79166759D01*
X173586007Y-79214473D01*
X173582293Y-79238027D01*
X173582602Y-79238852D01*
X173595189Y-79258104D01*
X173623744Y-79300463D01*
X173665267Y-79361521D01*
X173716756Y-79436868D01*
X173775211Y-79522096D01*
X173791858Y-79546315D01*
X173851215Y-79634123D01*
X173903447Y-79714238D01*
X173945708Y-79782062D01*
X173975153Y-79832993D01*
X173988937Y-79862431D01*
X173989605Y-79866048D01*
X173978024Y-79885057D01*
X173946024Y-79922714D01*
X173897718Y-79974973D01*
X173837220Y-80037786D01*
X173768644Y-80107106D01*
X173696104Y-80178885D01*
X173623712Y-80249077D01*
X173555584Y-80313635D01*
X173495832Y-80368510D01*
X173448571Y-80409656D01*
X173417913Y-80433026D01*
X173409432Y-80436842D01*
X173389691Y-80427855D01*
X173349274Y-80403616D01*
X173294763Y-80368209D01*
X173252823Y-80339711D01*
X173176829Y-80287418D01*
X173086834Y-80225845D01*
X172996564Y-80164370D01*
X172948032Y-80131469D01*
X172783762Y-80020359D01*
X172645869Y-80094916D01*
X172583049Y-80127578D01*
X172529629Y-80152966D01*
X172493484Y-80167446D01*
X172484284Y-80169460D01*
X172473221Y-80154584D01*
X172451394Y-80112547D01*
X172420434Y-80047227D01*
X172381970Y-79962500D01*
X172337632Y-79862245D01*
X172289047Y-79750339D01*
X172237846Y-79630659D01*
X172185659Y-79507084D01*
X172134113Y-79383491D01*
X172084840Y-79263757D01*
X172039467Y-79151759D01*
X171999625Y-79051377D01*
X171966942Y-78966486D01*
X171943049Y-78900965D01*
X171929574Y-78858690D01*
X171927406Y-78844172D01*
X171944583Y-78825653D01*
X171982190Y-78795590D01*
X172032366Y-78760232D01*
X172036578Y-78757434D01*
X172166264Y-78653625D01*
X172270834Y-78532515D01*
X172349381Y-78397976D01*
X172400999Y-78253882D01*
X172424782Y-78104105D01*
X172419823Y-77952517D01*
X172385217Y-77802992D01*
X172320057Y-77659400D01*
X172300886Y-77627984D01*
X172201174Y-77501125D01*
X172083377Y-77399255D01*
X171951571Y-77322904D01*
X171809833Y-77272602D01*
X171662242Y-77248879D01*
X171512873Y-77252265D01*
X171365803Y-77283288D01*
X171225111Y-77342480D01*
X171094873Y-77430369D01*
X171054586Y-77466042D01*
X170952055Y-77577706D01*
X170877341Y-77695257D01*
X170826090Y-77827020D01*
X170797546Y-77957507D01*
X170790500Y-78104216D01*
X170813996Y-78251653D01*
X170865649Y-78394834D01*
X170943071Y-78528777D01*
X171043875Y-78648498D01*
X171165676Y-78749014D01*
X171181684Y-78759609D01*
X171232398Y-78794306D01*
X171270950Y-78824370D01*
X171289381Y-78843565D01*
X171289649Y-78844172D01*
X171285692Y-78864936D01*
X171270007Y-78912062D01*
X171244222Y-78981673D01*
X171209969Y-79069893D01*
X171168877Y-79172844D01*
X171122576Y-79286650D01*
X171072696Y-79407435D01*
X171020867Y-79531321D01*
X170968719Y-79654432D01*
X170917882Y-79772891D01*
X170869987Y-79882823D01*
X170826662Y-79980349D01*
X170789538Y-80061593D01*
X170760244Y-80122679D01*
X170740412Y-80159730D01*
X170732426Y-80169460D01*
X170708021Y-80161883D01*
X170662358Y-80141560D01*
X170603310Y-80112125D01*
X170570840Y-80094916D01*
X170432947Y-80020359D01*
X170268677Y-80131469D01*
X170184821Y-80188390D01*
X170093013Y-80251030D01*
X170006980Y-80310011D01*
X169963887Y-80339711D01*
X169903277Y-80380410D01*
X169851955Y-80412663D01*
X169816615Y-80432384D01*
X169805137Y-80436554D01*
X169788430Y-80425307D01*
X169751454Y-80393911D01*
X169697795Y-80345624D01*
X169631038Y-80283708D01*
X169554766Y-80211421D01*
X169506527Y-80165008D01*
X169422133Y-80082087D01*
X169349197Y-80007920D01*
X169290669Y-79945680D01*
X169249497Y-79898541D01*
X169228628Y-79869673D01*
X169226626Y-79863815D01*
X169235917Y-79841532D01*
X169261591Y-79796477D01*
X169300800Y-79733211D01*
X169350697Y-79656295D01*
X169408433Y-79570292D01*
X169424851Y-79546315D01*
X169484677Y-79459170D01*
X169538350Y-79380710D01*
X169582870Y-79315345D01*
X169615235Y-79267484D01*
X169632445Y-79241535D01*
X169634107Y-79238852D01*
X169631621Y-79218172D01*
X169618423Y-79172704D01*
X169596814Y-79108444D01*
X169569096Y-79031387D01*
X169537570Y-78947529D01*
X169504537Y-78862866D01*
X169472299Y-78783392D01*
X169443157Y-78715104D01*
X169419412Y-78663997D01*
X169403365Y-78636067D01*
X169402225Y-78634727D01*
X169392412Y-78626745D01*
X169375839Y-78618851D01*
X169348868Y-78610229D01*
X169307861Y-78600062D01*
X169249180Y-78587531D01*
X169169187Y-78571821D01*
X169064245Y-78552113D01*
X168930715Y-78527592D01*
X168901804Y-78522319D01*
X168816118Y-78505764D01*
X168741418Y-78489569D01*
X168684306Y-78475296D01*
X168651383Y-78464508D01*
X168646969Y-78461993D01*
X168639694Y-78439696D01*
X168633781Y-78389869D01*
X168629234Y-78318304D01*
X168626055Y-78230793D01*
X168624251Y-78133128D01*
X168623823Y-78031101D01*
X168624777Y-77930503D01*
X168627116Y-77837127D01*
X168630844Y-77756765D01*
X168635966Y-77695209D01*
X168642484Y-77658250D01*
X168646414Y-77650686D01*
X168668292Y-77643056D01*
X168718109Y-77630642D01*
X168790903Y-77614522D01*
X168881711Y-77595773D01*
X168985569Y-77575471D01*
X169042154Y-77564830D01*
X169149514Y-77544760D01*
X169245254Y-77526580D01*
X169324694Y-77511199D01*
X169383154Y-77499531D01*
X169415955Y-77492488D01*
X169421354Y-77490926D01*
X169430478Y-77473322D01*
X169449765Y-77430918D01*
X169476645Y-77369772D01*
X169508546Y-77295943D01*
X169542898Y-77215489D01*
X169577129Y-77134468D01*
X169608669Y-77058937D01*
X169634946Y-76994955D01*
X169653389Y-76948580D01*
X169661429Y-76925869D01*
X169661578Y-76924876D01*
X169652465Y-76906961D01*
X169626914Y-76865733D01*
X169587612Y-76805291D01*
X169537243Y-76729731D01*
X169478494Y-76643152D01*
X169444342Y-76593421D01*
X169382110Y-76502236D01*
X169326836Y-76419449D01*
X169281218Y-76349249D01*
X169247952Y-76295824D01*
X169229736Y-76263361D01*
X169227105Y-76256083D01*
X169238414Y-76239145D01*
X169269681Y-76202978D01*
X169316910Y-76151635D01*
X169376108Y-76089167D01*
X169443281Y-76019626D01*
X169514434Y-75947065D01*
X169585574Y-75875535D01*
X169652707Y-75809087D01*
X169711839Y-75751774D01*
X169758975Y-75707647D01*
X169790123Y-75680759D01*
X169800543Y-75674342D01*
X169817509Y-75683365D01*
X169858089Y-75708715D01*
X169918337Y-75747810D01*
X169994307Y-75798071D01*
X170082054Y-75856917D01*
X170148244Y-75901748D01*
X170482668Y-76129154D01*
X170761433Y-76014238D01*
X171040197Y-75899322D01*
X171115746Y-75498576D01*
X171191294Y-75097829D01*
X172025415Y-75097829D01*
X172100964Y-75498576D01*
G37*
D15*
%TO.C,RN3*%
X68960000Y-91945000D02*
X41070000Y-91945000D01*
X41070000Y-91945000D02*
X41070000Y-89455000D01*
X41070000Y-89455000D02*
X68960000Y-89455000D01*
X68960000Y-89455000D02*
X68960000Y-91945000D01*
D10*
X69520000Y-90700000D02*
X69520000Y-90700000D01*
X69420000Y-90700000D02*
X69420000Y-90700000D01*
X69420000Y-90700000D02*
G75*
G02*
X69520000Y-90700000I50000J0D01*
G01*
X69520000Y-90700000D02*
G75*
G02*
X69420000Y-90700000I-50000J0D01*
G01*
D15*
%TO.C,RN2*%
X100340000Y-91945000D02*
X72450000Y-91945000D01*
X72450000Y-91945000D02*
X72450000Y-89455000D01*
X72450000Y-89455000D02*
X100340000Y-89455000D01*
X100340000Y-89455000D02*
X100340000Y-91945000D01*
D10*
X100900000Y-90700000D02*
X100900000Y-90700000D01*
X100800000Y-90700000D02*
X100800000Y-90700000D01*
X100800000Y-90700000D02*
G75*
G02*
X100900000Y-90700000I50000J0D01*
G01*
X100900000Y-90700000D02*
G75*
G02*
X100800000Y-90700000I-50000J0D01*
G01*
%TO.C,RN1*%
X131225000Y-92045000D02*
X108415000Y-92045000D01*
X108415000Y-92045000D02*
X108415000Y-89555000D01*
X108415000Y-89555000D02*
X131225000Y-89555000D01*
X131225000Y-89555000D02*
X131225000Y-92045000D01*
D15*
X131980000Y-90800000D02*
X131980000Y-90800000D01*
X131780000Y-90800000D02*
X131780000Y-90800000D01*
X131780000Y-90800000D02*
G75*
G02*
X131980000Y-90800000I100000J0D01*
G01*
X131980000Y-90800000D02*
G75*
G02*
X131780000Y-90800000I-100000J0D01*
G01*
D16*
%TO.C,J4*%
X193330000Y-87450000D02*
X192000000Y-87450000D01*
X193330000Y-86120000D02*
X193330000Y-87450000D01*
X193330000Y-84850000D02*
X193330000Y-74630000D01*
X193330000Y-84850000D02*
X190670000Y-84850000D01*
X193330000Y-74630000D02*
X190670000Y-74630000D01*
X190670000Y-84850000D02*
X190670000Y-74630000D01*
D15*
%TO.C,DS3*%
X44940000Y-73795000D02*
X44940000Y-84205000D01*
X70460000Y-84205000D02*
X70460000Y-73795000D01*
X70460000Y-73795000D02*
X69130000Y-73795000D01*
%TO.C,DS2*%
X70990000Y-73805000D02*
X70990000Y-84215000D01*
X96510000Y-84215000D02*
X96510000Y-73805000D01*
X96510000Y-73805000D02*
X95180000Y-73805000D01*
%TO.C,DS1*%
X103240000Y-73895000D02*
X103240000Y-84305000D01*
X128760000Y-84305000D02*
X128760000Y-73895000D01*
X128760000Y-73895000D02*
X127430000Y-73895000D01*
D16*
%TO.C,J5*%
X162927500Y-67052500D02*
X147567500Y-67052500D01*
X160327500Y-64452500D02*
X162927500Y-64452500D01*
X162927500Y-64452500D02*
X162927500Y-67052500D01*
X147567500Y-61852500D02*
X147567500Y-67052500D01*
X160327500Y-61852500D02*
X160327500Y-64452500D01*
X160327500Y-61852500D02*
X147567500Y-61852500D01*
X161597500Y-61852500D02*
X162927500Y-61852500D01*
X162927500Y-61852500D02*
X162927500Y-63182500D01*
%TO.C,R6*%
X146737500Y-47712500D02*
X146737500Y-54252500D01*
X146407500Y-47712500D02*
X146737500Y-47712500D01*
X144327500Y-47712500D02*
X143997500Y-47712500D01*
X143997500Y-47712500D02*
X143997500Y-54252500D01*
X146737500Y-54252500D02*
X146407500Y-54252500D01*
X143997500Y-54252500D02*
X144327500Y-54252500D01*
%TO.C,R5*%
X150787500Y-47712500D02*
X150787500Y-54252500D01*
X150457500Y-47712500D02*
X150787500Y-47712500D01*
X148377500Y-47712500D02*
X148047500Y-47712500D01*
X148047500Y-47712500D02*
X148047500Y-54252500D01*
X150787500Y-54252500D02*
X150457500Y-54252500D01*
X148047500Y-54252500D02*
X148377500Y-54252500D01*
%TO.C,R4*%
X154837500Y-47712500D02*
X154837500Y-54252500D01*
X154507500Y-47712500D02*
X154837500Y-47712500D01*
X152427500Y-47712500D02*
X152097500Y-47712500D01*
X152097500Y-47712500D02*
X152097500Y-54252500D01*
X154837500Y-54252500D02*
X154507500Y-54252500D01*
X152097500Y-54252500D02*
X152427500Y-54252500D01*
%TO.C,R3*%
X158887500Y-47712500D02*
X158887500Y-54252500D01*
X158557500Y-47712500D02*
X158887500Y-47712500D01*
X156477500Y-47712500D02*
X156147500Y-47712500D01*
X156147500Y-47712500D02*
X156147500Y-54252500D01*
X158887500Y-54252500D02*
X158557500Y-54252500D01*
X156147500Y-54252500D02*
X156477500Y-54252500D01*
%TO.C,R2*%
X167887500Y-47812500D02*
X167557500Y-47812500D01*
X165147500Y-47812500D02*
X165477500Y-47812500D01*
X167887500Y-54352500D02*
X167887500Y-47812500D01*
X167557500Y-54352500D02*
X167887500Y-54352500D01*
X165477500Y-54352500D02*
X165147500Y-54352500D01*
X165147500Y-54352500D02*
X165147500Y-47812500D01*
%TO.C,R1*%
X171687500Y-47812500D02*
X171357500Y-47812500D01*
X168947500Y-47812500D02*
X169277500Y-47812500D01*
X171687500Y-54352500D02*
X171687500Y-47812500D01*
X171357500Y-54352500D02*
X171687500Y-54352500D01*
X169277500Y-54352500D02*
X168947500Y-54352500D01*
X168947500Y-54352500D02*
X168947500Y-47812500D01*
%TO.C,BAR1*%
X163440000Y-73580000D02*
X161740000Y-73580000D01*
X163150000Y-73870000D02*
X163150000Y-84310000D01*
X137470000Y-73870000D02*
X163150000Y-73870000D01*
X163440000Y-75280000D02*
X163440000Y-73580000D01*
X163150000Y-84310000D02*
X137470000Y-84310000D01*
X137470000Y-84310000D02*
X137470000Y-73870000D01*
%TO.C,J3*%
X190670000Y-64550000D02*
X190670000Y-46710000D01*
X193330000Y-46710000D02*
X190670000Y-46710000D01*
X193330000Y-64550000D02*
X190670000Y-64550000D01*
X193330000Y-64550000D02*
X193330000Y-46710000D01*
X193330000Y-65820000D02*
X193330000Y-67150000D01*
X193330000Y-67150000D02*
X192000000Y-67150000D01*
%TO.C,J2*%
X182430000Y-87450000D02*
X181100000Y-87450000D01*
X182430000Y-86120000D02*
X182430000Y-87450000D01*
X182430000Y-84850000D02*
X182430000Y-46690000D01*
X182430000Y-84850000D02*
X179770000Y-84850000D01*
X182430000Y-46690000D02*
X179770000Y-46690000D01*
X179770000Y-84850000D02*
X179770000Y-46690000D01*
%TO.C,J1*%
X95870000Y-48770000D02*
X95870000Y-50100000D01*
X94540000Y-48770000D02*
X95870000Y-48770000D01*
X93270000Y-48770000D02*
X44950000Y-48770000D01*
X93270000Y-48770000D02*
X93270000Y-51370000D01*
X44950000Y-48770000D02*
X44950000Y-53970000D01*
X95870000Y-51370000D02*
X95870000Y-53970000D01*
X93270000Y-51370000D02*
X95870000Y-51370000D01*
X95870000Y-53970000D02*
X44950000Y-53970000D01*
%TD*%
M02*
