M48
; DRILL file {KiCad 8.0.6} date 2024-12-15T17:57:55+0100
; FORMAT={-:-/ absolute / metric / decimal}
; #@! TF.CreationDate,2024-12-15T17:57:55+01:00
; #@! TF.GenerationSoftware,Kicad,Pcbnew,8.0.6
; #@! TF.FileFunction,Plated,1,2,PTH
FMAT,2
METRIC
; #@! TA.AperFunction,Plated,PTH,ViaDrill
T1C0.300
; #@! TA.AperFunction,Plated,PTH,ComponentDrill
T2C0.758
; #@! TA.AperFunction,Plated,PTH,ComponentDrill
T3C0.760
; #@! TA.AperFunction,Plated,PTH,ComponentDrill
T4C0.800
; #@! TA.AperFunction,Plated,PTH,ComponentDrill
T5C0.914
; #@! TA.AperFunction,Plated,PTH,ComponentDrill
T6C1.000
; #@! TA.AperFunction,Plated,PTH,ComponentDrill
T7C2.700
%
G90
G05
T1
X51.3Y-58.1
X53.9Y-59.3
X64.06Y-55.1
X65.31Y-55.75
X66.6Y-56.38
X67.88Y-57.05
X69.14Y-57.72
X70.43Y-58.39
X71.7Y-59.03
X72.92Y-59.68
X74.22Y-60.33
X75.5Y-60.98
X76.76Y-61.63
X78.04Y-62.28
X79.3Y-62.94
X80.57Y-63.59
X83.26Y-64.24
X86.57Y-64.89
X91.85Y-65.55
X94.45Y-66.65
X96.8Y-67.5
X99.0Y-68.3
X103.1Y-65.6
X103.9Y-66.6
X104.8Y-67.5
X105.6Y-68.3
X165.0Y-68.1
X165.2Y-64.3
X165.7Y-68.8
X166.3Y-69.6
X166.6Y-64.3
X167.0Y-70.4
T2
X109.66Y-90.8
X112.2Y-90.8
X114.74Y-90.8
X117.28Y-90.8
X119.82Y-90.8
X122.36Y-90.8
X124.9Y-90.8
X127.44Y-90.8
X129.98Y-90.8
T3
X42.32Y-90.7
X44.86Y-90.7
X47.4Y-90.7
X49.94Y-90.7
X52.48Y-90.7
X55.02Y-90.7
X57.56Y-90.7
X60.1Y-90.7
X62.64Y-90.7
X65.18Y-90.7
X67.72Y-90.7
X73.7Y-90.7
X76.24Y-90.7
X78.78Y-90.7
X81.32Y-90.7
X83.86Y-90.7
X86.4Y-90.7
X88.94Y-90.7
X91.48Y-90.7
X94.02Y-90.7
X96.56Y-90.7
X99.1Y-90.7
T4
X46.27Y-75.19
X46.27Y-82.81
X48.81Y-75.19
X48.81Y-82.81
X51.35Y-75.19
X51.35Y-82.81
X53.89Y-75.19
X53.89Y-82.81
X56.43Y-75.19
X56.43Y-82.81
X58.97Y-75.19
X58.97Y-82.81
X61.51Y-75.19
X61.51Y-82.81
X64.05Y-75.19
X64.05Y-82.81
X66.59Y-75.19
X66.59Y-82.81
X69.13Y-75.19
X69.13Y-82.81
X72.32Y-75.2
X72.32Y-82.82
X74.86Y-75.2
X74.86Y-82.82
X77.4Y-75.2
X77.4Y-82.82
X79.94Y-75.2
X79.94Y-82.82
X82.48Y-75.2
X82.48Y-82.82
X85.02Y-75.2
X85.02Y-82.82
X87.56Y-75.2
X87.56Y-82.82
X90.1Y-75.2
X90.1Y-82.82
X92.64Y-75.2
X92.64Y-82.82
X95.18Y-75.2
X95.18Y-82.82
X104.57Y-75.29
X104.57Y-82.91
X107.11Y-75.29
X107.11Y-82.91
X109.65Y-75.29
X109.65Y-82.91
X112.19Y-75.29
X112.19Y-82.91
X114.73Y-75.29
X114.73Y-82.91
X117.27Y-75.29
X117.27Y-82.91
X119.81Y-75.29
X119.81Y-82.91
X122.35Y-75.29
X122.35Y-82.91
X124.89Y-75.29
X124.89Y-82.91
X127.43Y-75.29
X127.43Y-82.91
X145.368Y-47.172
X145.368Y-54.792
X149.417Y-47.172
X149.417Y-54.792
X153.468Y-47.172
X153.468Y-54.792
X157.517Y-47.172
X157.517Y-54.792
X166.517Y-47.273
X166.517Y-54.892
X170.317Y-47.273
X170.317Y-54.892
T5
X138.88Y-75.28
X138.88Y-82.9
X141.42Y-75.28
X141.42Y-82.9
X143.96Y-75.28
X143.96Y-82.9
X146.5Y-75.28
X146.5Y-82.9
X149.04Y-75.28
X149.04Y-82.9
X151.58Y-75.28
X151.58Y-82.9
X154.12Y-75.28
X154.12Y-82.9
X156.66Y-75.28
X156.66Y-82.9
X159.2Y-75.28
X159.2Y-82.9
X161.74Y-75.28
X161.74Y-82.9
T6
X46.28Y-50.1
X46.28Y-52.64
X48.82Y-50.1
X48.82Y-52.64
X51.36Y-50.1
X51.36Y-52.64
X53.9Y-50.1
X53.9Y-52.64
X56.44Y-50.1
X56.44Y-52.64
X58.98Y-50.1
X58.98Y-52.64
X61.52Y-50.1
X61.52Y-52.64
X64.06Y-50.1
X64.06Y-52.64
X66.6Y-50.1
X66.6Y-52.64
X69.14Y-50.1
X69.14Y-52.64
X71.68Y-50.1
X71.68Y-52.64
X74.22Y-50.1
X74.22Y-52.64
X76.76Y-50.1
X76.76Y-52.64
X79.3Y-50.1
X79.3Y-52.64
X81.84Y-50.1
X81.84Y-52.64
X84.38Y-50.1
X84.38Y-52.64
X86.92Y-50.1
X86.92Y-52.64
X89.46Y-50.1
X89.46Y-52.64
X92.0Y-50.1
X92.0Y-52.64
X94.54Y-50.1
X94.54Y-52.64
X148.897Y-63.182
X148.897Y-65.722
X151.438Y-63.182
X151.438Y-65.722
X153.977Y-63.182
X153.977Y-65.722
X156.517Y-63.182
X156.517Y-65.722
X159.058Y-63.182
X159.058Y-65.722
X161.597Y-63.182
X161.597Y-65.722
X181.1Y-48.02
X181.1Y-50.56
X181.1Y-53.1
X181.1Y-55.64
X181.1Y-58.18
X181.1Y-60.72
X181.1Y-63.26
X181.1Y-65.8
X181.1Y-68.34
X181.1Y-70.88
X181.1Y-73.42
X181.1Y-75.96
X181.1Y-78.5
X181.1Y-81.04
X181.1Y-83.58
X181.1Y-86.12
X192.0Y-48.04
X192.0Y-50.58
X192.0Y-53.12
X192.0Y-55.66
X192.0Y-58.2
X192.0Y-60.74
X192.0Y-63.28
X192.0Y-65.82
X192.0Y-75.96
X192.0Y-78.5
X192.0Y-81.04
X192.0Y-83.58
X192.0Y-86.12
T7
X43.9Y-41.0
X43.9Y-101.0
X193.9Y-41.0
X193.9Y-101.0
M30
