%TF.GenerationSoftware,KiCad,Pcbnew,8.0.6*%
%TF.CreationDate,2024-12-09T21:22:34+01:00*%
%TF.ProjectId,mic1-cpu,6d696331-2d63-4707-952e-6b696361645f,rev?*%
%TF.SameCoordinates,Original*%
%TF.FileFunction,Soldermask,Bot*%
%TF.FilePolarity,Negative*%
%FSLAX46Y46*%
G04 Gerber Fmt 4.6, Leading zero omitted, Abs format (unit mm)*
G04 Created by KiCad (PCBNEW 8.0.6) date 2024-12-09 21:22:34*
%MOMM*%
%LPD*%
G01*
G04 APERTURE LIST*
%ADD10C,1.600000*%
%ADD11O,1.600000X1.600000*%
%ADD12R,1.700000X1.700000*%
%ADD13O,1.700000X1.700000*%
%ADD14C,3.800000*%
%ADD15C,1.800000*%
%ADD16R,1.800000X1.800000*%
%ADD17R,1.600000X1.600000*%
%ADD18C,2.000000*%
%ADD19R,2.000000X1.440000*%
%ADD20O,2.000000X1.440000*%
%ADD21O,4.200000X2.000000*%
%ADD22O,2.000000X4.200000*%
%ADD23R,2.000000X4.600000*%
%ADD24R,2.400000X1.600000*%
%ADD25O,2.400000X1.600000*%
%ADD26C,1.192000*%
G04 APERTURE END LIST*
D10*
%TO.C,R6*%
X62390000Y-118400000D03*
D11*
X70010000Y-118400000D03*
%TD*%
D10*
%TO.C,R5*%
X62390000Y-113900000D03*
D11*
X70010000Y-113900000D03*
%TD*%
D12*
%TO.C,J6*%
X56775000Y-118612500D03*
D13*
X54235000Y-118612500D03*
%TD*%
D10*
%TO.C,C3*%
X122500000Y-47000000D03*
X120000000Y-47000000D03*
%TD*%
D12*
%TO.C,J1*%
X127120000Y-122560000D03*
D13*
X127120000Y-125100000D03*
X124580000Y-122560000D03*
X124580000Y-125100000D03*
X122040000Y-122560000D03*
X122040000Y-125100000D03*
X119500000Y-122560000D03*
X119500000Y-125100000D03*
X116960000Y-122560000D03*
X116960000Y-125100000D03*
X114420000Y-122560000D03*
X114420000Y-125100000D03*
X111880000Y-122560000D03*
X111880000Y-125100000D03*
X109340000Y-122560000D03*
X109340000Y-125100000D03*
X106800000Y-122560000D03*
X106800000Y-125100000D03*
X104260000Y-122560000D03*
X104260000Y-125100000D03*
X101720000Y-122560000D03*
X101720000Y-125100000D03*
X99180000Y-122560000D03*
X99180000Y-125100000D03*
X96640000Y-122560000D03*
X96640000Y-125100000D03*
X94100000Y-122560000D03*
X94100000Y-125100000D03*
X91560000Y-122560000D03*
X91560000Y-125100000D03*
X89020000Y-122560000D03*
X89020000Y-125100000D03*
X86480000Y-122560000D03*
X86480000Y-125100000D03*
X83940000Y-122560000D03*
X83940000Y-125100000D03*
X81400000Y-122560000D03*
X81400000Y-125100000D03*
X78860000Y-122560000D03*
X78860000Y-125100000D03*
%TD*%
D11*
%TO.C,R1*%
X58380000Y-43000000D03*
D10*
X66000000Y-43000000D03*
%TD*%
D11*
%TO.C,R4*%
X79000000Y-43000000D03*
D10*
X71380000Y-43000000D03*
%TD*%
%TO.C,C2*%
X92000000Y-47000000D03*
X89500000Y-47000000D03*
%TD*%
D11*
%TO.C,R2*%
X123000000Y-42500000D03*
D10*
X115380000Y-42500000D03*
%TD*%
%TO.C,C4*%
X39750000Y-67000000D03*
X42250000Y-67000000D03*
%TD*%
%TO.C,C1*%
X66000000Y-47000000D03*
X63500000Y-47000000D03*
%TD*%
D14*
%TO.C,Hole1*%
X35400000Y-123000000D03*
%TD*%
D15*
%TO.C,D1*%
X129265000Y-44000000D03*
D16*
X126725000Y-44000000D03*
%TD*%
D11*
%TO.C,R3*%
X92000000Y-43000000D03*
D10*
X84380000Y-43000000D03*
%TD*%
%TO.C,C5*%
X48500000Y-45500000D03*
D17*
X51000000Y-45500000D03*
%TD*%
D13*
%TO.C,J3*%
X51720000Y-114112500D03*
X54260000Y-114112500D03*
D12*
X56800000Y-114112500D03*
%TD*%
D18*
%TO.C,SW1*%
X44900000Y-112300000D03*
X38400000Y-112300000D03*
X44900000Y-107800000D03*
X38400000Y-107800000D03*
%TD*%
D15*
%TO.C,D2*%
X98265000Y-44500000D03*
D16*
X95725000Y-44500000D03*
%TD*%
D19*
%TO.C,IC3*%
X113607500Y-60510000D03*
D20*
X113607500Y-63050000D03*
X113607500Y-65590000D03*
X113607500Y-68130000D03*
X113607500Y-70670000D03*
X113607500Y-73210000D03*
X113607500Y-75750000D03*
X113607500Y-78290000D03*
X113607500Y-80830000D03*
X113607500Y-83370000D03*
X113607500Y-85910000D03*
X113607500Y-88450000D03*
X113607500Y-90990000D03*
X113607500Y-93530000D03*
X128847500Y-93530000D03*
X128847500Y-90990000D03*
X128847500Y-88450000D03*
X128847500Y-85910000D03*
X128847500Y-83370000D03*
X128847500Y-80830000D03*
X128847500Y-78290000D03*
X128847500Y-75750000D03*
X128847500Y-73210000D03*
X128847500Y-70670000D03*
X128847500Y-68130000D03*
X128847500Y-65590000D03*
X128847500Y-63050000D03*
X128847500Y-60510000D03*
%TD*%
D21*
%TO.C,J2*%
X45400000Y-61800000D03*
D22*
X42000000Y-57000000D03*
D23*
X48300000Y-57000000D03*
%TD*%
D24*
%TO.C,IC1*%
X57000000Y-51420000D03*
D25*
X57000000Y-53960000D03*
X57000000Y-56500000D03*
X57000000Y-59040000D03*
X57000000Y-61580000D03*
X57000000Y-64120000D03*
X57000000Y-66660000D03*
X57000000Y-69200000D03*
X57000000Y-71740000D03*
X57000000Y-74280000D03*
X57000000Y-76820000D03*
X57000000Y-79360000D03*
X57000000Y-81900000D03*
X57000000Y-84440000D03*
X57000000Y-86980000D03*
X57000000Y-89520000D03*
X57000000Y-92060000D03*
X57000000Y-94600000D03*
X57000000Y-97140000D03*
X57000000Y-99680000D03*
X72240000Y-99680000D03*
X72240000Y-97140000D03*
X72240000Y-94600000D03*
X72240000Y-92060000D03*
X72240000Y-89520000D03*
X72240000Y-86980000D03*
X72240000Y-84440000D03*
X72240000Y-81900000D03*
X72240000Y-79360000D03*
X72240000Y-76820000D03*
X72240000Y-74280000D03*
X72240000Y-71740000D03*
X72240000Y-69200000D03*
X72240000Y-66660000D03*
X72240000Y-64120000D03*
X72240000Y-61580000D03*
X72240000Y-59040000D03*
X72240000Y-56500000D03*
X72240000Y-53960000D03*
X72240000Y-51420000D03*
%TD*%
D14*
%TO.C,Hole2*%
X35500000Y-43000000D03*
%TD*%
D13*
%TO.C,J4*%
X43000000Y-47040000D03*
D12*
X43000000Y-44500000D03*
%TD*%
D13*
%TO.C,J5*%
X67300000Y-122535000D03*
D12*
X67300000Y-125075000D03*
%TD*%
D14*
%TO.C,Hole4*%
X135400000Y-123000000D03*
%TD*%
%TO.C,Hole3*%
X135500000Y-43000000D03*
%TD*%
D25*
%TO.C,IC2*%
X98500000Y-51420000D03*
X98500000Y-53960000D03*
X98500000Y-56500000D03*
X98500000Y-59040000D03*
X98500000Y-61580000D03*
X98500000Y-64120000D03*
X98500000Y-66660000D03*
X98500000Y-69200000D03*
X98500000Y-71740000D03*
X98500000Y-74280000D03*
X98500000Y-76820000D03*
X98500000Y-79360000D03*
X98500000Y-81900000D03*
X98500000Y-84440000D03*
X83260000Y-84440000D03*
X83260000Y-81900000D03*
X83260000Y-79360000D03*
X83260000Y-76820000D03*
X83260000Y-74280000D03*
X83260000Y-71740000D03*
X83260000Y-69200000D03*
X83260000Y-66660000D03*
X83260000Y-64120000D03*
X83260000Y-61580000D03*
X83260000Y-59040000D03*
X83260000Y-56500000D03*
X83260000Y-53960000D03*
D24*
X83260000Y-51420000D03*
%TD*%
D26*
%TO.C,Y1*%
X99000000Y-93500000D03*
X83760000Y-93500000D03*
X83760000Y-101120000D03*
X99000000Y-101120000D03*
%TD*%
D24*
%TO.C,IC4*%
X36880000Y-71300000D03*
D25*
X36880000Y-73840000D03*
X36880000Y-76380000D03*
X36880000Y-78920000D03*
X36880000Y-81460000D03*
X36880000Y-84000000D03*
X36880000Y-86540000D03*
X36880000Y-89080000D03*
X36880000Y-91620000D03*
X36880000Y-94160000D03*
X36880000Y-96700000D03*
X36880000Y-99240000D03*
X44500000Y-99240000D03*
X44500000Y-96700000D03*
X44500000Y-94160000D03*
X44500000Y-91620000D03*
X44500000Y-89080000D03*
X44500000Y-86540000D03*
X44500000Y-84000000D03*
X44500000Y-81460000D03*
X44500000Y-78920000D03*
X44500000Y-76380000D03*
X44500000Y-73840000D03*
X44500000Y-71300000D03*
%TD*%
M02*
