M48
; DRILL file {KiCad 8.0.6} date 2024-12-09T21:22:50+0100
; FORMAT={-:-/ absolute / inch / decimal}
; #@! TF.CreationDate,2024-12-09T21:22:50+01:00
; #@! TF.GenerationSoftware,Kicad,Pcbnew,8.0.6
; #@! TF.FileFunction,Plated,1,2,PTH
FMAT,2
INCH
; #@! TA.AperFunction,Plated,PTH,ViaDrill
T1C0.0118
; #@! TA.AperFunction,Plated,PTH,ComponentDrill
T2C0.0256
; #@! TA.AperFunction,Plated,PTH,ComponentDrill
T3C0.0315
; #@! TA.AperFunction,Plated,PTH,ComponentDrill
T4C0.0354
; #@! TA.AperFunction,Plated,PTH,ComponentDrill
T5C0.0394
; #@! TA.AperFunction,Plated,PTH,ComponentDrill
T6C0.0433
; #@! TA.AperFunction,Plated,PTH,ComponentDrill
T7C0.0866
%
G90
G05
T1
X1.5598Y-3.5748
X1.6614Y-3.6299
X1.6614Y-3.7598
X1.874Y-3.8583
X1.8996Y-3.9504
X1.9744Y-3.7047
X1.9764Y-4.1772
X2.0039Y-3.6071
X2.0079Y-4.1535
X2.0394Y-3.5079
X2.0394Y-4.126
X2.0709Y-3.4409
X2.0709Y-4.0984
X2.1043Y-3.3858
X2.1063Y-4.0748
X2.126Y-3.2047
X2.1299Y-3.7992
X2.1378Y-3.0748
X2.1496Y-3.3228
X2.1654Y-3.4252
X2.1654Y-3.878
X2.2382Y-4.0413
X2.3465Y-2.7205
X2.3465Y-2.7756
X2.378Y-2.0787
X2.3799Y-2.685
X2.4055Y-2.5827
X2.4331Y-2.4803
X2.4646Y-2.3819
X2.5118Y-2.2795
X2.5433Y-2.1811
X2.5787Y-2.5276
X2.6063Y-2.3425
X2.6535Y-4.0039
X2.6535Y-4.0945
X2.6673Y-3.9508
X2.6772Y-2.122
X2.6876Y-4.063
X2.7388Y-2.6227
X2.7795Y-4.1732
X2.7913Y-4.1299
X2.9252Y-2.9724
X2.937Y-2.4528
X3.0157Y-3.0906
X3.0709Y-2.6417
X3.1102Y-4.7402
X3.1142Y-2.8228
X3.1142Y-3.0512
X3.1378Y-2.7244
X3.1575Y-3.0
X3.2047Y-4.3465
X3.2087Y-2.1575
X3.2087Y-3.8189
X3.2677Y-4.1299
X3.3594Y-4.1732
X3.3858Y-4.5787
X3.4134Y-3.4921
X3.4331Y-4.6614
X3.4449Y-1.9961
X3.4882Y-4.4843
X3.5551Y-4.315
X3.6063Y-4.2874
X3.6102Y-3.5236
X3.6535Y-4.2559
X3.6654Y-2.0748
X3.6654Y-3.5472
X3.6929Y-1.9291
X3.7047Y-4.2205
X3.7402Y-3.5827
X3.7913Y-2.2717
X3.9488Y-3.3819
X3.9528Y-3.2244
X3.9724Y-3.1244
X3.9764Y-3.4055
X3.9882Y-4.1929
X4.0039Y-3.0236
X4.0039Y-3.4291
X4.0315Y-2.9291
X4.0315Y-3.4567
X4.0512Y-4.2126
X4.0827Y-2.5236
X4.1142Y-2.7244
X4.1457Y-3.9409
X4.1772Y-3.9173
X4.3386Y-2.5551
X4.3898Y-2.9803
X4.4016Y-2.8819
X4.4055Y-2.7795
X4.4094Y-2.6811
X4.4134Y-2.5315
X4.4173Y-2.5827
X4.626Y-3.0827
X4.6535Y-3.1811
X4.685Y-3.2835
X4.7087Y-3.1339
X4.7382Y-3.2343
X4.7559Y-4.0394
X4.7638Y-3.3307
X4.7953Y-3.4331
X4.8268Y-3.5827
X4.8386Y-3.4803
X4.8583Y-3.3819
X4.9528Y-2.1575
X5.0047Y-4.3307
T2
X3.2976Y-3.6811
X3.2976Y-3.9811
X3.8976Y-3.6811
X3.8976Y-3.9811
T3
X1.452Y-2.8071
X1.452Y-2.9071
X1.452Y-3.0071
X1.452Y-3.1071
X1.452Y-3.2071
X1.452Y-3.3071
X1.452Y-3.4071
X1.452Y-3.5071
X1.452Y-3.6071
X1.452Y-3.7071
X1.452Y-3.8071
X1.452Y-3.9071
X1.565Y-2.6378
X1.6634Y-2.6378
X1.752Y-2.8071
X1.752Y-2.9071
X1.752Y-3.0071
X1.752Y-3.1071
X1.752Y-3.2071
X1.752Y-3.3071
X1.752Y-3.4071
X1.752Y-3.5071
X1.752Y-3.6071
X1.752Y-3.7071
X1.752Y-3.8071
X1.752Y-3.9071
X1.9094Y-1.7913
X2.0079Y-1.7913
X2.2441Y-2.0244
X2.2441Y-2.1244
X2.2441Y-2.2244
X2.2441Y-2.3244
X2.2441Y-2.4244
X2.2441Y-2.5244
X2.2441Y-2.6244
X2.2441Y-2.7244
X2.2441Y-2.8244
X2.2441Y-2.9244
X2.2441Y-3.0244
X2.2441Y-3.1244
X2.2441Y-3.2244
X2.2441Y-3.3244
X2.2441Y-3.4244
X2.2441Y-3.5244
X2.2441Y-3.6244
X2.2441Y-3.7244
X2.2441Y-3.8244
X2.2441Y-3.9244
X2.2984Y-1.6929
X2.4563Y-4.4843
X2.4563Y-4.6614
X2.5Y-1.8504
X2.5984Y-1.6929
X2.5984Y-1.8504
X2.7563Y-4.4843
X2.7563Y-4.6614
X2.8102Y-1.6929
X2.8441Y-2.0244
X2.8441Y-2.1244
X2.8441Y-2.2244
X2.8441Y-2.3244
X2.8441Y-2.4244
X2.8441Y-2.5244
X2.8441Y-2.6244
X2.8441Y-2.7244
X2.8441Y-2.8244
X2.8441Y-2.9244
X2.8441Y-3.0244
X2.8441Y-3.1244
X2.8441Y-3.2244
X2.8441Y-3.3244
X2.8441Y-3.4244
X2.8441Y-3.5244
X2.8441Y-3.6244
X2.8441Y-3.7244
X2.8441Y-3.8244
X2.8441Y-3.9244
X3.1102Y-1.6929
X3.278Y-2.0244
X3.278Y-2.1244
X3.278Y-2.2244
X3.278Y-2.3244
X3.278Y-2.4244
X3.278Y-2.5244
X3.278Y-2.6244
X3.278Y-2.7244
X3.278Y-2.8244
X3.278Y-2.9244
X3.278Y-3.0244
X3.278Y-3.1244
X3.278Y-3.2244
X3.278Y-3.3244
X3.322Y-1.6929
X3.5236Y-1.8504
X3.622Y-1.6929
X3.622Y-1.8504
X3.878Y-2.0244
X3.878Y-2.1244
X3.878Y-2.2244
X3.878Y-2.3244
X3.878Y-2.4244
X3.878Y-2.5244
X3.878Y-2.6244
X3.878Y-2.7244
X3.878Y-2.8244
X3.878Y-2.9244
X3.878Y-3.0244
X3.878Y-3.1244
X3.878Y-3.2244
X3.878Y-3.3244
X4.5425Y-1.6732
X4.7244Y-1.8504
X4.8228Y-1.8504
X4.8425Y-1.6732
T4
X3.7687Y-1.752
X3.8687Y-1.752
X4.9892Y-1.7323
X5.0892Y-1.7323
T5
X1.6929Y-1.752
X1.6929Y-1.852
X2.0362Y-4.4926
X2.1352Y-4.6698
X2.1362Y-4.4926
X2.2352Y-4.6698
X2.2362Y-4.4926
X2.6496Y-4.8242
X2.6496Y-4.9242
X3.1047Y-4.8252
X3.1047Y-4.9252
X3.2047Y-4.8252
X3.2047Y-4.9252
X3.3047Y-4.8252
X3.3047Y-4.9252
X3.4047Y-4.8252
X3.4047Y-4.9252
X3.5047Y-4.8252
X3.5047Y-4.9252
X3.6047Y-4.8252
X3.6047Y-4.9252
X3.7047Y-4.8252
X3.7047Y-4.9252
X3.8047Y-4.8252
X3.8047Y-4.9252
X3.9047Y-4.8252
X3.9047Y-4.9252
X4.0047Y-4.8252
X4.0047Y-4.9252
X4.1047Y-4.8252
X4.1047Y-4.9252
X4.2047Y-4.8252
X4.2047Y-4.9252
X4.3047Y-4.8252
X4.3047Y-4.9252
X4.4047Y-4.8252
X4.4047Y-4.9252
X4.4727Y-2.3823
X4.4727Y-2.4823
X4.4727Y-2.5823
X4.4727Y-2.6823
X4.4727Y-2.7823
X4.4727Y-2.8823
X4.4727Y-2.9823
X4.4727Y-3.0823
X4.4727Y-3.1823
X4.4727Y-3.2823
X4.4727Y-3.3823
X4.4727Y-3.4823
X4.4727Y-3.5823
X4.4727Y-3.6823
X4.5047Y-4.8252
X4.5047Y-4.9252
X4.6047Y-4.8252
X4.6047Y-4.9252
X4.7047Y-4.8252
X4.7047Y-4.9252
X4.8047Y-4.8252
X4.8047Y-4.9252
X4.9047Y-4.8252
X4.9047Y-4.9252
X5.0047Y-4.8252
X5.0047Y-4.9252
X5.0727Y-2.3823
X5.0727Y-2.4823
X5.0727Y-2.5823
X5.0727Y-2.6823
X5.0727Y-2.7823
X5.0727Y-2.8823
X5.0727Y-2.9823
X5.0727Y-3.0823
X5.0727Y-3.1823
X5.0727Y-3.2823
X5.0727Y-3.3823
X5.0727Y-3.4823
X5.0727Y-3.5823
X5.0727Y-3.6823
T6
X1.5118Y-4.2441
X1.5118Y-4.4213
X1.7677Y-4.2441
X1.7677Y-4.4213
T7
X1.3937Y-4.8425
X1.3976Y-1.6929
X5.3307Y-4.8425
X5.3346Y-1.6929
T5
G00X1.6535Y-2.2008
M15
G01X1.6535Y-2.2874
M16
G05
G00X1.8307Y-2.4331
M15
G01X1.7441Y-2.4331
M16
G05
G00X1.9016Y-2.1929
M15
G01X1.9016Y-2.2953
M16
G05
M30
