M48
; DRILL file {KiCad 8.0.6} date 2024-12-15T12:44:02+0100
; FORMAT={-:-/ absolute / metric / decimal}
; #@! TF.CreationDate,2024-12-15T12:44:02+01:00
; #@! TF.GenerationSoftware,Kicad,Pcbnew,8.0.6
; #@! TF.FileFunction,Plated,1,2,PTH
FMAT,2
METRIC
; #@! TA.AperFunction,Plated,PTH,ViaDrill
T1C0.300
; #@! TA.AperFunction,Plated,PTH,ComponentDrill
T2C0.800
; #@! TA.AperFunction,Plated,PTH,ComponentDrill
T3C1.000
; #@! TA.AperFunction,Plated,PTH,ComponentDrill
T4C2.700
%
G90
G05
T1
X149.0Y-92.42
X150.3Y-91.1
X151.4Y-89.88
X152.6Y-88.6
X153.9Y-87.34
X155.1Y-86.1
X156.1Y-84.8
X157.3Y-83.5
X166.5Y-81.0
X167.15Y-82.26
X167.8Y-78.5
X168.6Y-79.72
X169.4Y-75.9
X170.1Y-77.18
X171.0Y-73.4
X171.7Y-74.64
X172.5Y-70.8
X173.4Y-72.1
X174.1Y-68.3
X174.9Y-69.56
X175.6Y-65.8
X176.3Y-67.02
X177.1Y-63.2
X177.9Y-64.48
X178.8Y-60.7
X179.6Y-61.94
X180.4Y-58.1
X181.05Y-59.4
X187.7Y-55.6
X188.7Y-56.86
X189.8Y-53.1
X190.9Y-54.32
X191.9Y-50.5
X192.9Y-51.78
X193.8Y-48.09
X194.6Y-49.24
T2
X88.95Y-104.36
X91.45Y-104.36
X107.7Y-103.3
X107.7Y-105.8
X125.3Y-104.2
X127.8Y-104.2
X161.6Y-104.3
X164.1Y-104.3
X197.65Y-104.3
X200.15Y-104.3
X208.1Y-110.4
X208.1Y-112.9
X233.8Y-104.3
X236.3Y-104.3
T3
X88.9Y-46.76
X88.9Y-49.3
X88.9Y-51.84
X88.9Y-54.38
X88.9Y-56.92
X88.9Y-59.46
X88.9Y-62.0
X88.9Y-64.54
X88.9Y-67.08
X88.9Y-69.62
X88.9Y-72.16
X88.9Y-74.7
X88.9Y-77.24
X88.9Y-79.78
X88.9Y-82.32
X88.9Y-84.86
X88.9Y-87.4
X88.9Y-89.94
X88.9Y-92.48
X88.9Y-95.02
X91.44Y-46.76
X91.44Y-49.3
X91.44Y-51.84
X91.44Y-54.38
X91.44Y-56.92
X91.44Y-59.46
X91.44Y-62.0
X91.44Y-64.54
X91.44Y-67.08
X91.44Y-69.62
X91.44Y-72.16
X91.44Y-74.7
X91.44Y-77.24
X91.44Y-79.78
X91.44Y-82.32
X91.44Y-84.86
X91.44Y-87.4
X91.44Y-89.94
X91.44Y-92.48
X91.44Y-95.02
X125.3Y-46.7
X125.3Y-49.24
X125.3Y-51.78
X125.3Y-54.32
X125.3Y-56.86
X125.3Y-59.4
X125.3Y-61.94
X125.3Y-64.48
X125.3Y-67.02
X125.3Y-69.56
X125.3Y-72.1
X125.3Y-74.64
X125.3Y-77.18
X125.3Y-79.72
X125.3Y-82.26
X125.3Y-84.8
X125.3Y-87.34
X125.3Y-89.88
X125.3Y-92.42
X125.3Y-94.96
X127.84Y-46.7
X127.84Y-49.24
X127.84Y-51.78
X127.84Y-54.32
X127.84Y-56.86
X127.84Y-59.4
X127.84Y-61.94
X127.84Y-64.48
X127.84Y-67.02
X127.84Y-69.56
X127.84Y-72.1
X127.84Y-74.64
X127.84Y-77.18
X127.84Y-79.72
X127.84Y-82.26
X127.84Y-84.8
X127.84Y-87.34
X127.84Y-89.88
X127.84Y-92.42
X127.84Y-94.96
X152.3Y-110.46
X152.3Y-113.0
X154.84Y-110.46
X154.84Y-113.0
X157.38Y-110.46
X157.38Y-113.0
X159.92Y-110.46
X159.92Y-113.0
X161.66Y-46.7
X161.66Y-49.24
X161.66Y-51.78
X161.66Y-54.32
X161.66Y-56.86
X161.66Y-59.4
X161.66Y-61.94
X161.66Y-64.48
X161.66Y-67.02
X161.66Y-69.56
X161.66Y-72.1
X161.66Y-74.64
X161.66Y-77.18
X161.66Y-79.72
X161.66Y-82.26
X161.66Y-84.8
X161.66Y-87.34
X161.66Y-89.88
X161.66Y-92.42
X161.66Y-94.96
X162.46Y-110.46
X162.46Y-113.0
X164.2Y-46.7
X164.2Y-49.24
X164.2Y-51.78
X164.2Y-54.32
X164.2Y-56.86
X164.2Y-59.4
X164.2Y-61.94
X164.2Y-64.48
X164.2Y-67.02
X164.2Y-69.56
X164.2Y-72.1
X164.2Y-74.64
X164.2Y-77.18
X164.2Y-79.72
X164.2Y-82.26
X164.2Y-84.8
X164.2Y-87.34
X164.2Y-89.88
X164.2Y-92.42
X164.2Y-94.96
X165.0Y-110.46
X165.0Y-113.0
X167.54Y-110.46
X167.54Y-113.0
X170.08Y-110.46
X170.08Y-113.0
X172.62Y-110.46
X172.62Y-113.0
X175.16Y-110.46
X175.16Y-113.0
X177.7Y-110.46
X177.7Y-113.0
X180.24Y-110.46
X180.24Y-113.0
X182.78Y-110.46
X182.78Y-113.0
X185.32Y-110.46
X185.32Y-113.0
X187.86Y-110.46
X187.86Y-113.0
X190.4Y-110.46
X190.4Y-113.0
X192.94Y-110.46
X192.94Y-113.0
X195.48Y-110.46
X195.48Y-113.0
X197.76Y-46.68
X197.76Y-49.22
X197.76Y-51.76
X197.76Y-54.3
X197.76Y-56.84
X197.76Y-59.38
X197.76Y-61.92
X197.76Y-64.46
X197.76Y-67.0
X197.76Y-69.54
X197.76Y-72.08
X197.76Y-74.62
X197.76Y-77.16
X197.76Y-79.7
X197.76Y-82.24
X197.76Y-84.78
X197.76Y-87.32
X197.76Y-89.86
X197.76Y-92.4
X197.76Y-94.94
X198.02Y-110.46
X198.02Y-113.0
X200.3Y-46.68
X200.3Y-49.22
X200.3Y-51.76
X200.3Y-54.3
X200.3Y-56.84
X200.3Y-59.38
X200.3Y-61.92
X200.3Y-64.46
X200.3Y-67.0
X200.3Y-69.54
X200.3Y-72.08
X200.3Y-74.62
X200.3Y-77.16
X200.3Y-79.7
X200.3Y-82.24
X200.3Y-84.78
X200.3Y-87.32
X200.3Y-89.86
X200.3Y-92.4
X200.3Y-94.94
X200.56Y-110.46
X200.56Y-113.0
X233.9Y-46.78
X233.9Y-49.32
X233.9Y-51.86
X233.9Y-54.4
X233.9Y-56.94
X233.9Y-59.48
X233.9Y-62.02
X233.9Y-64.56
X233.9Y-67.1
X233.9Y-69.64
X233.9Y-72.18
X233.9Y-74.72
X233.9Y-77.26
X233.9Y-79.8
X233.9Y-82.34
X233.9Y-84.88
X233.9Y-87.42
X233.9Y-89.96
X233.9Y-92.5
X233.9Y-95.04
X236.44Y-46.78
X236.44Y-49.32
X236.44Y-51.86
X236.44Y-54.4
X236.44Y-56.94
X236.44Y-59.48
X236.44Y-62.02
X236.44Y-64.56
X236.44Y-67.1
X236.44Y-69.64
X236.44Y-72.18
X236.44Y-74.72
X236.44Y-77.26
X236.44Y-79.8
X236.44Y-82.34
X236.44Y-84.88
X236.44Y-87.42
X236.44Y-89.96
X236.44Y-92.5
X236.44Y-95.04
T4
X86.8Y-38.0
X86.8Y-118.0
X236.8Y-38.0
X236.8Y-118.0
M30
