%TF.GenerationSoftware,KiCad,Pcbnew,8.0.6*%
%TF.CreationDate,2024-12-15T12:43:40+01:00*%
%TF.ProjectId,busboard,62757362-6f61-4726-942e-6b696361645f,1.0*%
%TF.SameCoordinates,Original*%
%TF.FileFunction,Copper,L2,Bot*%
%TF.FilePolarity,Positive*%
%FSLAX46Y46*%
G04 Gerber Fmt 4.6, Leading zero omitted, Abs format (unit mm)*
G04 Created by KiCad (PCBNEW 8.0.6) date 2024-12-15 12:43:40*
%MOMM*%
%LPD*%
G01*
G04 APERTURE LIST*
%TA.AperFunction,ComponentPad*%
%ADD10C,3.100000*%
%TD*%
%TA.AperFunction,ConnectorPad*%
%ADD11C,5.400000*%
%TD*%
%TA.AperFunction,ComponentPad*%
%ADD12R,1.700000X1.700000*%
%TD*%
%TA.AperFunction,ComponentPad*%
%ADD13O,1.700000X1.700000*%
%TD*%
%TA.AperFunction,ComponentPad*%
%ADD14C,1.600000*%
%TD*%
%TA.AperFunction,ComponentPad*%
%ADD15R,1.600000X1.600000*%
%TD*%
%TA.AperFunction,ViaPad*%
%ADD16C,0.700000*%
%TD*%
%TA.AperFunction,Conductor*%
%ADD17C,1.000000*%
%TD*%
%TA.AperFunction,Conductor*%
%ADD18C,0.200000*%
%TD*%
G04 APERTURE END LIST*
D10*
%TO.P,hole1,1*%
%TO.N,N/C*%
X236800000Y-38000000D03*
D11*
X236800000Y-38000000D03*
%TD*%
D12*
%TO.P,J3,1,Pin_1*%
%TO.N,VDD*%
X161660000Y-46700000D03*
D13*
%TO.P,J3,2,Pin_2*%
%TO.N,GND*%
X164200000Y-46700000D03*
%TO.P,J3,3,Pin_3*%
%TO.N,/D0*%
X161660000Y-49240000D03*
%TO.P,J3,4,Pin_4*%
%TO.N,/D1*%
X164200000Y-49240000D03*
%TO.P,J3,5,Pin_5*%
%TO.N,/D2*%
X161660000Y-51780000D03*
%TO.P,J3,6,Pin_6*%
%TO.N,/D3*%
X164200000Y-51780000D03*
%TO.P,J3,7,Pin_7*%
%TO.N,/D4*%
X161660000Y-54320000D03*
%TO.P,J3,8,Pin_8*%
%TO.N,/D5*%
X164200000Y-54320000D03*
%TO.P,J3,9,Pin_9*%
%TO.N,/D6*%
X161660000Y-56860000D03*
%TO.P,J3,10,Pin_10*%
%TO.N,/D7*%
X164200000Y-56860000D03*
%TO.P,J3,11,Pin_11*%
%TO.N,/A0*%
X161660000Y-59400000D03*
%TO.P,J3,12,Pin_12*%
%TO.N,/A1*%
X164200000Y-59400000D03*
%TO.P,J3,13,Pin_13*%
%TO.N,/A2*%
X161660000Y-61940000D03*
%TO.P,J3,14,Pin_14*%
%TO.N,/A3*%
X164200000Y-61940000D03*
%TO.P,J3,15,Pin_15*%
%TO.N,/A4*%
X161660000Y-64480000D03*
%TO.P,J3,16,Pin_16*%
%TO.N,/A5*%
X164200000Y-64480000D03*
%TO.P,J3,17,Pin_17*%
%TO.N,/A6*%
X161660000Y-67020000D03*
%TO.P,J3,18,Pin_18*%
%TO.N,/A7*%
X164200000Y-67020000D03*
%TO.P,J3,19,Pin_19*%
%TO.N,/A8*%
X161660000Y-69560000D03*
%TO.P,J3,20,Pin_20*%
%TO.N,/A9*%
X164200000Y-69560000D03*
%TO.P,J3,21,Pin_21*%
%TO.N,/A10*%
X161660000Y-72100000D03*
%TO.P,J3,22,Pin_22*%
%TO.N,/A11*%
X164200000Y-72100000D03*
%TO.P,J3,23,Pin_23*%
%TO.N,/A12*%
X161660000Y-74640000D03*
%TO.P,J3,24,Pin_24*%
%TO.N,/A13*%
X164200000Y-74640000D03*
%TO.P,J3,25,Pin_25*%
%TO.N,/A14*%
X161660000Y-77180000D03*
%TO.P,J3,26,Pin_26*%
%TO.N,/A15*%
X164200000Y-77180000D03*
%TO.P,J3,27,Pin_27*%
%TO.N,CSIO1*%
X161660000Y-79720000D03*
%TO.P,J3,28,Pin_28*%
%TO.N,CSIO2*%
X164200000Y-79720000D03*
%TO.P,J3,29,Pin_29*%
%TO.N,CSIO3*%
X161660000Y-82260000D03*
%TO.P,J3,30,Pin_30*%
%TO.N,CSIO4*%
X164200000Y-82260000D03*
%TO.P,J3,31,Pin_31*%
%TO.N,~{IRQ}*%
X161660000Y-84800000D03*
%TO.P,J3,32,Pin_32*%
%TO.N,~{NMI}*%
X164200000Y-84800000D03*
%TO.P,J3,33,Pin_33*%
%TO.N,RESB*%
X161660000Y-87340000D03*
%TO.P,J3,34,Pin_34*%
%TO.N,RDY*%
X164200000Y-87340000D03*
%TO.P,J3,35,Pin_35*%
%TO.N,SYNC*%
X161660000Y-89880000D03*
%TO.P,J3,36,Pin_36*%
%TO.N,BE*%
X164200000Y-89880000D03*
%TO.P,J3,37,Pin_37*%
%TO.N,CSIO5*%
X161660000Y-92420000D03*
%TO.P,J3,38,Pin_38*%
%TO.N,CLK*%
X164200000Y-92420000D03*
%TO.P,J3,39,Pin_39*%
%TO.N,GND*%
X161660000Y-94960000D03*
%TO.P,J3,40,Pin_40*%
%TO.N,VDD*%
X164200000Y-94960000D03*
%TD*%
D12*
%TO.P,J1,1,Pin_1*%
%TO.N,VDD*%
X88900000Y-46760000D03*
D13*
%TO.P,J1,2,Pin_2*%
%TO.N,GND*%
X91440000Y-46760000D03*
%TO.P,J1,3,Pin_3*%
%TO.N,/D0*%
X88900000Y-49300000D03*
%TO.P,J1,4,Pin_4*%
%TO.N,/D1*%
X91440000Y-49300000D03*
%TO.P,J1,5,Pin_5*%
%TO.N,/D2*%
X88900000Y-51840000D03*
%TO.P,J1,6,Pin_6*%
%TO.N,/D3*%
X91440000Y-51840000D03*
%TO.P,J1,7,Pin_7*%
%TO.N,/D4*%
X88900000Y-54380000D03*
%TO.P,J1,8,Pin_8*%
%TO.N,/D5*%
X91440000Y-54380000D03*
%TO.P,J1,9,Pin_9*%
%TO.N,/D6*%
X88900000Y-56920000D03*
%TO.P,J1,10,Pin_10*%
%TO.N,/D7*%
X91440000Y-56920000D03*
%TO.P,J1,11,Pin_11*%
%TO.N,/A0*%
X88900000Y-59460000D03*
%TO.P,J1,12,Pin_12*%
%TO.N,/A1*%
X91440000Y-59460000D03*
%TO.P,J1,13,Pin_13*%
%TO.N,/A2*%
X88900000Y-62000000D03*
%TO.P,J1,14,Pin_14*%
%TO.N,/A3*%
X91440000Y-62000000D03*
%TO.P,J1,15,Pin_15*%
%TO.N,/A4*%
X88900000Y-64540000D03*
%TO.P,J1,16,Pin_16*%
%TO.N,/A5*%
X91440000Y-64540000D03*
%TO.P,J1,17,Pin_17*%
%TO.N,/A6*%
X88900000Y-67080000D03*
%TO.P,J1,18,Pin_18*%
%TO.N,/A7*%
X91440000Y-67080000D03*
%TO.P,J1,19,Pin_19*%
%TO.N,/A8*%
X88900000Y-69620000D03*
%TO.P,J1,20,Pin_20*%
%TO.N,/A9*%
X91440000Y-69620000D03*
%TO.P,J1,21,Pin_21*%
%TO.N,/A10*%
X88900000Y-72160000D03*
%TO.P,J1,22,Pin_22*%
%TO.N,/A11*%
X91440000Y-72160000D03*
%TO.P,J1,23,Pin_23*%
%TO.N,/A12*%
X88900000Y-74700000D03*
%TO.P,J1,24,Pin_24*%
%TO.N,/A13*%
X91440000Y-74700000D03*
%TO.P,J1,25,Pin_25*%
%TO.N,/A14*%
X88900000Y-77240000D03*
%TO.P,J1,26,Pin_26*%
%TO.N,/A15*%
X91440000Y-77240000D03*
%TO.P,J1,27,Pin_27*%
%TO.N,CSIO1*%
X88900000Y-79780000D03*
%TO.P,J1,28,Pin_28*%
%TO.N,CSIO2*%
X91440000Y-79780000D03*
%TO.P,J1,29,Pin_29*%
%TO.N,CSIO3*%
X88900000Y-82320000D03*
%TO.P,J1,30,Pin_30*%
%TO.N,CSIO4*%
X91440000Y-82320000D03*
%TO.P,J1,31,Pin_31*%
%TO.N,~{IRQ}*%
X88900000Y-84860000D03*
%TO.P,J1,32,Pin_32*%
%TO.N,~{NMI}*%
X91440000Y-84860000D03*
%TO.P,J1,33,Pin_33*%
%TO.N,RESB*%
X88900000Y-87400000D03*
%TO.P,J1,34,Pin_34*%
%TO.N,RDY*%
X91440000Y-87400000D03*
%TO.P,J1,35,Pin_35*%
%TO.N,SYNC*%
X88900000Y-89940000D03*
%TO.P,J1,36,Pin_36*%
%TO.N,BE*%
X91440000Y-89940000D03*
%TO.P,J1,37,Pin_37*%
%TO.N,CSIO5*%
X88900000Y-92480000D03*
%TO.P,J1,38,Pin_38*%
%TO.N,CLK*%
X91440000Y-92480000D03*
%TO.P,J1,39,Pin_39*%
%TO.N,GND*%
X88900000Y-95020000D03*
%TO.P,J1,40,Pin_40*%
%TO.N,VDD*%
X91440000Y-95020000D03*
%TD*%
D10*
%TO.P,hole1,1*%
%TO.N,N/C*%
X86800000Y-118000000D03*
D11*
X86800000Y-118000000D03*
%TD*%
D12*
%TO.P,J6,1,Pin_1*%
%TO.N,VDD*%
X200560000Y-110460000D03*
D13*
%TO.P,J6,2,Pin_2*%
%TO.N,GND*%
X200560000Y-113000000D03*
%TO.P,J6,3,Pin_3*%
%TO.N,/D0*%
X198020000Y-110460000D03*
%TO.P,J6,4,Pin_4*%
%TO.N,/D1*%
X198020000Y-113000000D03*
%TO.P,J6,5,Pin_5*%
%TO.N,/D2*%
X195480000Y-110460000D03*
%TO.P,J6,6,Pin_6*%
%TO.N,/D3*%
X195480000Y-113000000D03*
%TO.P,J6,7,Pin_7*%
%TO.N,/D4*%
X192940000Y-110460000D03*
%TO.P,J6,8,Pin_8*%
%TO.N,/D5*%
X192940000Y-113000000D03*
%TO.P,J6,9,Pin_9*%
%TO.N,/D6*%
X190400000Y-110460000D03*
%TO.P,J6,10,Pin_10*%
%TO.N,/D7*%
X190400000Y-113000000D03*
%TO.P,J6,11,Pin_11*%
%TO.N,/A0*%
X187860000Y-110460000D03*
%TO.P,J6,12,Pin_12*%
%TO.N,/A1*%
X187860000Y-113000000D03*
%TO.P,J6,13,Pin_13*%
%TO.N,/A2*%
X185320000Y-110460000D03*
%TO.P,J6,14,Pin_14*%
%TO.N,/A3*%
X185320000Y-113000000D03*
%TO.P,J6,15,Pin_15*%
%TO.N,/A4*%
X182780000Y-110460000D03*
%TO.P,J6,16,Pin_16*%
%TO.N,/A5*%
X182780000Y-113000000D03*
%TO.P,J6,17,Pin_17*%
%TO.N,/A6*%
X180240000Y-110460000D03*
%TO.P,J6,18,Pin_18*%
%TO.N,/A7*%
X180240000Y-113000000D03*
%TO.P,J6,19,Pin_19*%
%TO.N,/A8*%
X177700000Y-110460000D03*
%TO.P,J6,20,Pin_20*%
%TO.N,/A9*%
X177700000Y-113000000D03*
%TO.P,J6,21,Pin_21*%
%TO.N,/A10*%
X175160000Y-110460000D03*
%TO.P,J6,22,Pin_22*%
%TO.N,/A11*%
X175160000Y-113000000D03*
%TO.P,J6,23,Pin_23*%
%TO.N,/A12*%
X172620000Y-110460000D03*
%TO.P,J6,24,Pin_24*%
%TO.N,/A13*%
X172620000Y-113000000D03*
%TO.P,J6,25,Pin_25*%
%TO.N,/A14*%
X170080000Y-110460000D03*
%TO.P,J6,26,Pin_26*%
%TO.N,/A15*%
X170080000Y-113000000D03*
%TO.P,J6,27,Pin_27*%
%TO.N,CSIO1*%
X167540000Y-110460000D03*
%TO.P,J6,28,Pin_28*%
%TO.N,CSIO2*%
X167540000Y-113000000D03*
%TO.P,J6,29,Pin_29*%
%TO.N,CSIO3*%
X165000000Y-110460000D03*
%TO.P,J6,30,Pin_30*%
%TO.N,CSIO4*%
X165000000Y-113000000D03*
%TO.P,J6,31,Pin_31*%
%TO.N,~{IRQ}*%
X162460000Y-110460000D03*
%TO.P,J6,32,Pin_32*%
%TO.N,~{NMI}*%
X162460000Y-113000000D03*
%TO.P,J6,33,Pin_33*%
%TO.N,RESB*%
X159920000Y-110460000D03*
%TO.P,J6,34,Pin_34*%
%TO.N,RDY*%
X159920000Y-113000000D03*
%TO.P,J6,35,Pin_35*%
%TO.N,SYNC*%
X157380000Y-110460000D03*
%TO.P,J6,36,Pin_36*%
%TO.N,BE*%
X157380000Y-113000000D03*
%TO.P,J6,37,Pin_37*%
%TO.N,CSIO5*%
X154840000Y-110460000D03*
%TO.P,J6,38,Pin_38*%
%TO.N,CLK*%
X154840000Y-113000000D03*
%TO.P,J6,39,Pin_39*%
%TO.N,GND*%
X152300000Y-110460000D03*
%TO.P,J6,40,Pin_40*%
%TO.N,VDD*%
X152300000Y-113000000D03*
%TD*%
D10*
%TO.P,hole1,1*%
%TO.N,N/C*%
X86800000Y-38000000D03*
D11*
X86800000Y-38000000D03*
%TD*%
D14*
%TO.P,C6,1*%
%TO.N,VDD*%
X208100000Y-110400000D03*
%TO.P,C6,2*%
%TO.N,GND*%
X208100000Y-112900000D03*
%TD*%
%TO.P,C2,1*%
%TO.N,VDD*%
X91450000Y-104360000D03*
%TO.P,C2,2*%
%TO.N,GND*%
X88950000Y-104360000D03*
%TD*%
D12*
%TO.P,J5,1,Pin_1*%
%TO.N,VDD*%
X233900000Y-46780000D03*
D13*
%TO.P,J5,2,Pin_2*%
%TO.N,GND*%
X236440000Y-46780000D03*
%TO.P,J5,3,Pin_3*%
%TO.N,/D0*%
X233900000Y-49320000D03*
%TO.P,J5,4,Pin_4*%
%TO.N,/D1*%
X236440000Y-49320000D03*
%TO.P,J5,5,Pin_5*%
%TO.N,/D2*%
X233900000Y-51860000D03*
%TO.P,J5,6,Pin_6*%
%TO.N,/D3*%
X236440000Y-51860000D03*
%TO.P,J5,7,Pin_7*%
%TO.N,/D4*%
X233900000Y-54400000D03*
%TO.P,J5,8,Pin_8*%
%TO.N,/D5*%
X236440000Y-54400000D03*
%TO.P,J5,9,Pin_9*%
%TO.N,/D6*%
X233900000Y-56940000D03*
%TO.P,J5,10,Pin_10*%
%TO.N,/D7*%
X236440000Y-56940000D03*
%TO.P,J5,11,Pin_11*%
%TO.N,/A0*%
X233900000Y-59480000D03*
%TO.P,J5,12,Pin_12*%
%TO.N,/A1*%
X236440000Y-59480000D03*
%TO.P,J5,13,Pin_13*%
%TO.N,/A2*%
X233900000Y-62020000D03*
%TO.P,J5,14,Pin_14*%
%TO.N,/A3*%
X236440000Y-62020000D03*
%TO.P,J5,15,Pin_15*%
%TO.N,/A4*%
X233900000Y-64560000D03*
%TO.P,J5,16,Pin_16*%
%TO.N,/A5*%
X236440000Y-64560000D03*
%TO.P,J5,17,Pin_17*%
%TO.N,/A6*%
X233900000Y-67100000D03*
%TO.P,J5,18,Pin_18*%
%TO.N,/A7*%
X236440000Y-67100000D03*
%TO.P,J5,19,Pin_19*%
%TO.N,/A8*%
X233900000Y-69640000D03*
%TO.P,J5,20,Pin_20*%
%TO.N,/A9*%
X236440000Y-69640000D03*
%TO.P,J5,21,Pin_21*%
%TO.N,/A10*%
X233900000Y-72180000D03*
%TO.P,J5,22,Pin_22*%
%TO.N,/A11*%
X236440000Y-72180000D03*
%TO.P,J5,23,Pin_23*%
%TO.N,/A12*%
X233900000Y-74720000D03*
%TO.P,J5,24,Pin_24*%
%TO.N,/A13*%
X236440000Y-74720000D03*
%TO.P,J5,25,Pin_25*%
%TO.N,/A14*%
X233900000Y-77260000D03*
%TO.P,J5,26,Pin_26*%
%TO.N,/A15*%
X236440000Y-77260000D03*
%TO.P,J5,27,Pin_27*%
%TO.N,CSIO1*%
X233900000Y-79800000D03*
%TO.P,J5,28,Pin_28*%
%TO.N,CSIO2*%
X236440000Y-79800000D03*
%TO.P,J5,29,Pin_29*%
%TO.N,CSIO3*%
X233900000Y-82340000D03*
%TO.P,J5,30,Pin_30*%
%TO.N,CSIO4*%
X236440000Y-82340000D03*
%TO.P,J5,31,Pin_31*%
%TO.N,~{IRQ}*%
X233900000Y-84880000D03*
%TO.P,J5,32,Pin_32*%
%TO.N,~{NMI}*%
X236440000Y-84880000D03*
%TO.P,J5,33,Pin_33*%
%TO.N,RESB*%
X233900000Y-87420000D03*
%TO.P,J5,34,Pin_34*%
%TO.N,RDY*%
X236440000Y-87420000D03*
%TO.P,J5,35,Pin_35*%
%TO.N,SYNC*%
X233900000Y-89960000D03*
%TO.P,J5,36,Pin_36*%
%TO.N,BE*%
X236440000Y-89960000D03*
%TO.P,J5,37,Pin_37*%
%TO.N,CSIO5*%
X233900000Y-92500000D03*
%TO.P,J5,38,Pin_38*%
%TO.N,CLK*%
X236440000Y-92500000D03*
%TO.P,J5,39,Pin_39*%
%TO.N,GND*%
X233900000Y-95040000D03*
%TO.P,J5,40,Pin_40*%
%TO.N,VDD*%
X236440000Y-95040000D03*
%TD*%
D10*
%TO.P,hole1,1*%
%TO.N,N/C*%
X236800000Y-118000000D03*
D11*
X236800000Y-118000000D03*
%TD*%
D14*
%TO.P,C5,1*%
%TO.N,VDD*%
X200150000Y-104300000D03*
%TO.P,C5,2*%
%TO.N,GND*%
X197650000Y-104300000D03*
%TD*%
%TO.P,C7,1*%
%TO.N,VDD*%
X236300000Y-104300000D03*
%TO.P,C7,2*%
%TO.N,GND*%
X233800000Y-104300000D03*
%TD*%
D12*
%TO.P,J4,1,Pin_1*%
%TO.N,VDD*%
X197760000Y-46680000D03*
D13*
%TO.P,J4,2,Pin_2*%
%TO.N,GND*%
X200300000Y-46680000D03*
%TO.P,J4,3,Pin_3*%
%TO.N,/D0*%
X197760000Y-49220000D03*
%TO.P,J4,4,Pin_4*%
%TO.N,/D1*%
X200300000Y-49220000D03*
%TO.P,J4,5,Pin_5*%
%TO.N,/D2*%
X197760000Y-51760000D03*
%TO.P,J4,6,Pin_6*%
%TO.N,/D3*%
X200300000Y-51760000D03*
%TO.P,J4,7,Pin_7*%
%TO.N,/D4*%
X197760000Y-54300000D03*
%TO.P,J4,8,Pin_8*%
%TO.N,/D5*%
X200300000Y-54300000D03*
%TO.P,J4,9,Pin_9*%
%TO.N,/D6*%
X197760000Y-56840000D03*
%TO.P,J4,10,Pin_10*%
%TO.N,/D7*%
X200300000Y-56840000D03*
%TO.P,J4,11,Pin_11*%
%TO.N,/A0*%
X197760000Y-59380000D03*
%TO.P,J4,12,Pin_12*%
%TO.N,/A1*%
X200300000Y-59380000D03*
%TO.P,J4,13,Pin_13*%
%TO.N,/A2*%
X197760000Y-61920000D03*
%TO.P,J4,14,Pin_14*%
%TO.N,/A3*%
X200300000Y-61920000D03*
%TO.P,J4,15,Pin_15*%
%TO.N,/A4*%
X197760000Y-64460000D03*
%TO.P,J4,16,Pin_16*%
%TO.N,/A5*%
X200300000Y-64460000D03*
%TO.P,J4,17,Pin_17*%
%TO.N,/A6*%
X197760000Y-67000000D03*
%TO.P,J4,18,Pin_18*%
%TO.N,/A7*%
X200300000Y-67000000D03*
%TO.P,J4,19,Pin_19*%
%TO.N,/A8*%
X197760000Y-69540000D03*
%TO.P,J4,20,Pin_20*%
%TO.N,/A9*%
X200300000Y-69540000D03*
%TO.P,J4,21,Pin_21*%
%TO.N,/A10*%
X197760000Y-72080000D03*
%TO.P,J4,22,Pin_22*%
%TO.N,/A11*%
X200300000Y-72080000D03*
%TO.P,J4,23,Pin_23*%
%TO.N,/A12*%
X197760000Y-74620000D03*
%TO.P,J4,24,Pin_24*%
%TO.N,/A13*%
X200300000Y-74620000D03*
%TO.P,J4,25,Pin_25*%
%TO.N,/A14*%
X197760000Y-77160000D03*
%TO.P,J4,26,Pin_26*%
%TO.N,/A15*%
X200300000Y-77160000D03*
%TO.P,J4,27,Pin_27*%
%TO.N,CSIO1*%
X197760000Y-79700000D03*
%TO.P,J4,28,Pin_28*%
%TO.N,CSIO2*%
X200300000Y-79700000D03*
%TO.P,J4,29,Pin_29*%
%TO.N,CSIO3*%
X197760000Y-82240000D03*
%TO.P,J4,30,Pin_30*%
%TO.N,CSIO4*%
X200300000Y-82240000D03*
%TO.P,J4,31,Pin_31*%
%TO.N,~{IRQ}*%
X197760000Y-84780000D03*
%TO.P,J4,32,Pin_32*%
%TO.N,~{NMI}*%
X200300000Y-84780000D03*
%TO.P,J4,33,Pin_33*%
%TO.N,RESB*%
X197760000Y-87320000D03*
%TO.P,J4,34,Pin_34*%
%TO.N,RDY*%
X200300000Y-87320000D03*
%TO.P,J4,35,Pin_35*%
%TO.N,SYNC*%
X197760000Y-89860000D03*
%TO.P,J4,36,Pin_36*%
%TO.N,BE*%
X200300000Y-89860000D03*
%TO.P,J4,37,Pin_37*%
%TO.N,CSIO5*%
X197760000Y-92400000D03*
%TO.P,J4,38,Pin_38*%
%TO.N,CLK*%
X200300000Y-92400000D03*
%TO.P,J4,39,Pin_39*%
%TO.N,GND*%
X197760000Y-94940000D03*
%TO.P,J4,40,Pin_40*%
%TO.N,VDD*%
X200300000Y-94940000D03*
%TD*%
D14*
%TO.P,C3,1*%
%TO.N,VDD*%
X127800000Y-104200000D03*
%TO.P,C3,2*%
%TO.N,GND*%
X125300000Y-104200000D03*
%TD*%
D12*
%TO.P,J2,1,Pin_1*%
%TO.N,VDD*%
X125300000Y-46700000D03*
D13*
%TO.P,J2,2,Pin_2*%
%TO.N,GND*%
X127840000Y-46700000D03*
%TO.P,J2,3,Pin_3*%
%TO.N,/D0*%
X125300000Y-49240000D03*
%TO.P,J2,4,Pin_4*%
%TO.N,/D1*%
X127840000Y-49240000D03*
%TO.P,J2,5,Pin_5*%
%TO.N,/D2*%
X125300000Y-51780000D03*
%TO.P,J2,6,Pin_6*%
%TO.N,/D3*%
X127840000Y-51780000D03*
%TO.P,J2,7,Pin_7*%
%TO.N,/D4*%
X125300000Y-54320000D03*
%TO.P,J2,8,Pin_8*%
%TO.N,/D5*%
X127840000Y-54320000D03*
%TO.P,J2,9,Pin_9*%
%TO.N,/D6*%
X125300000Y-56860000D03*
%TO.P,J2,10,Pin_10*%
%TO.N,/D7*%
X127840000Y-56860000D03*
%TO.P,J2,11,Pin_11*%
%TO.N,/A0*%
X125300000Y-59400000D03*
%TO.P,J2,12,Pin_12*%
%TO.N,/A1*%
X127840000Y-59400000D03*
%TO.P,J2,13,Pin_13*%
%TO.N,/A2*%
X125300000Y-61940000D03*
%TO.P,J2,14,Pin_14*%
%TO.N,/A3*%
X127840000Y-61940000D03*
%TO.P,J2,15,Pin_15*%
%TO.N,/A4*%
X125300000Y-64480000D03*
%TO.P,J2,16,Pin_16*%
%TO.N,/A5*%
X127840000Y-64480000D03*
%TO.P,J2,17,Pin_17*%
%TO.N,/A6*%
X125300000Y-67020000D03*
%TO.P,J2,18,Pin_18*%
%TO.N,/A7*%
X127840000Y-67020000D03*
%TO.P,J2,19,Pin_19*%
%TO.N,/A8*%
X125300000Y-69560000D03*
%TO.P,J2,20,Pin_20*%
%TO.N,/A9*%
X127840000Y-69560000D03*
%TO.P,J2,21,Pin_21*%
%TO.N,/A10*%
X125300000Y-72100000D03*
%TO.P,J2,22,Pin_22*%
%TO.N,/A11*%
X127840000Y-72100000D03*
%TO.P,J2,23,Pin_23*%
%TO.N,/A12*%
X125300000Y-74640000D03*
%TO.P,J2,24,Pin_24*%
%TO.N,/A13*%
X127840000Y-74640000D03*
%TO.P,J2,25,Pin_25*%
%TO.N,/A14*%
X125300000Y-77180000D03*
%TO.P,J2,26,Pin_26*%
%TO.N,/A15*%
X127840000Y-77180000D03*
%TO.P,J2,27,Pin_27*%
%TO.N,CSIO1*%
X125300000Y-79720000D03*
%TO.P,J2,28,Pin_28*%
%TO.N,CSIO2*%
X127840000Y-79720000D03*
%TO.P,J2,29,Pin_29*%
%TO.N,CSIO3*%
X125300000Y-82260000D03*
%TO.P,J2,30,Pin_30*%
%TO.N,CSIO4*%
X127840000Y-82260000D03*
%TO.P,J2,31,Pin_31*%
%TO.N,~{IRQ}*%
X125300000Y-84800000D03*
%TO.P,J2,32,Pin_32*%
%TO.N,~{NMI}*%
X127840000Y-84800000D03*
%TO.P,J2,33,Pin_33*%
%TO.N,RESB*%
X125300000Y-87340000D03*
%TO.P,J2,34,Pin_34*%
%TO.N,RDY*%
X127840000Y-87340000D03*
%TO.P,J2,35,Pin_35*%
%TO.N,SYNC*%
X125300000Y-89880000D03*
%TO.P,J2,36,Pin_36*%
%TO.N,BE*%
X127840000Y-89880000D03*
%TO.P,J2,37,Pin_37*%
%TO.N,CSIO5*%
X125300000Y-92420000D03*
%TO.P,J2,38,Pin_38*%
%TO.N,CLK*%
X127840000Y-92420000D03*
%TO.P,J2,39,Pin_39*%
%TO.N,GND*%
X125300000Y-94960000D03*
%TO.P,J2,40,Pin_40*%
%TO.N,VDD*%
X127840000Y-94960000D03*
%TD*%
D15*
%TO.P,C1,1*%
%TO.N,VDD*%
X107700000Y-103300000D03*
D14*
%TO.P,C1,2*%
%TO.N,GND*%
X107700000Y-105800000D03*
%TD*%
%TO.P,C4,1*%
%TO.N,VDD*%
X164100000Y-104300000D03*
%TO.P,C4,2*%
%TO.N,GND*%
X161600000Y-104300000D03*
%TD*%
D16*
%TO.N,/A5*%
X177900000Y-64480000D03*
%TO.N,~{IRQ}*%
X157300000Y-83500000D03*
%TO.N,/A9*%
X174900000Y-69560000D03*
%TO.N,~{NMI}*%
X156100000Y-84800000D03*
%TO.N,CSIO4*%
X167150000Y-82260000D03*
%TO.N,/D4*%
X189800000Y-53100000D03*
%TO.N,/A7*%
X176300000Y-67020000D03*
%TO.N,/A4*%
X177100000Y-63200000D03*
%TO.N,/D5*%
X190900000Y-54320000D03*
%TO.N,/D6*%
X187700000Y-55600000D03*
%TO.N,/D3*%
X192900000Y-51780000D03*
%TO.N,/A3*%
X179600000Y-61940000D03*
%TO.N,RESB*%
X155100000Y-86100000D03*
%TO.N,/A11*%
X173400000Y-72100000D03*
%TO.N,/D1*%
X194600000Y-49240000D03*
%TO.N,/A12*%
X171000000Y-73400000D03*
%TO.N,/A2*%
X178800000Y-60700000D03*
%TO.N,/D0*%
X193800000Y-48090000D03*
%TO.N,RDY*%
X153900000Y-87340000D03*
%TO.N,/A8*%
X174100000Y-68300000D03*
%TO.N,/A10*%
X172500000Y-70800000D03*
%TO.N,/A1*%
X181050000Y-59400000D03*
%TO.N,/A13*%
X171700000Y-74640000D03*
%TO.N,/A15*%
X170100000Y-77180000D03*
%TO.N,CSIO2*%
X168600000Y-79720000D03*
%TO.N,BE*%
X151400000Y-89880000D03*
%TO.N,/A14*%
X169400000Y-75900000D03*
%TO.N,SYNC*%
X152600000Y-88600000D03*
%TO.N,CLK*%
X149000000Y-92420000D03*
%TO.N,CSIO1*%
X167800000Y-78500000D03*
%TO.N,/A6*%
X175600000Y-65800000D03*
%TO.N,CSIO5*%
X150300000Y-91100000D03*
%TO.N,/D2*%
X191900000Y-50500000D03*
%TO.N,/A0*%
X180400000Y-58100000D03*
%TO.N,/D7*%
X188700000Y-56860000D03*
%TO.N,CSIO3*%
X166500000Y-81000000D03*
%TD*%
D17*
%TO.N,VDD*%
X164100000Y-104300000D02*
X164100000Y-106000000D01*
X164100000Y-104300000D02*
X192600000Y-104300000D01*
X200150000Y-104300000D02*
X205200000Y-104300000D01*
X129400000Y-104200000D02*
X127800000Y-104200000D01*
X192600000Y-104300000D02*
X194700000Y-106400000D01*
X131700000Y-106500000D02*
X129400000Y-104200000D01*
X208100000Y-107200000D02*
X208100000Y-110400000D01*
X199500000Y-106400000D02*
X200150000Y-105750000D01*
X205200000Y-104300000D02*
X208100000Y-107200000D01*
X194700000Y-106400000D02*
X199500000Y-106400000D01*
X164100000Y-106000000D02*
X163600000Y-106500000D01*
X163600000Y-106500000D02*
X131700000Y-106500000D01*
X200150000Y-105750000D02*
X200150000Y-104300000D01*
%TO.N,GND*%
X128800000Y-43000000D02*
X163000000Y-43000000D01*
X197450000Y-100000000D02*
X197650000Y-100200000D01*
X200300000Y-44300000D02*
X200300000Y-46680000D01*
X200560000Y-113000000D02*
X208000000Y-113000000D01*
X127860000Y-43940000D02*
X128800000Y-43000000D01*
X161600000Y-95020000D02*
X161660000Y-94960000D01*
X88950000Y-95070000D02*
X88900000Y-95020000D01*
X197650000Y-100200000D02*
X232700000Y-100200000D01*
X235400000Y-43000000D02*
X236440000Y-44040000D01*
X197750000Y-94950000D02*
X197760000Y-94940000D01*
X106600000Y-106900000D02*
X107700000Y-105800000D01*
X124900000Y-106900000D02*
X125300000Y-106500000D01*
X197650000Y-100200000D02*
X197650000Y-95050000D01*
X197650000Y-104300000D02*
X197650000Y-100200000D01*
X165400000Y-43000000D02*
X199000000Y-43000000D01*
X91440000Y-46760000D02*
X91440000Y-44260000D01*
X239080000Y-46780000D02*
X239900000Y-47600000D01*
X88950000Y-104360000D02*
X88950000Y-95070000D01*
X161600000Y-100000000D02*
X125600000Y-100000000D01*
X164200000Y-44200000D02*
X164200000Y-46700000D01*
X92700000Y-43000000D02*
X126900000Y-43000000D01*
X208000000Y-113000000D02*
X208100000Y-112900000D01*
X152300000Y-110460000D02*
X129260000Y-110460000D01*
X228600000Y-112900000D02*
X208100000Y-112900000D01*
X233800000Y-107700000D02*
X228600000Y-112900000D01*
X88950000Y-106850000D02*
X88900000Y-106900000D01*
X164200000Y-44200000D02*
X165400000Y-43000000D01*
X233800000Y-95140000D02*
X233900000Y-95040000D01*
X127840000Y-43940000D02*
X127840000Y-46700000D01*
X129260000Y-110460000D02*
X125300000Y-106500000D01*
X125300000Y-106500000D02*
X125300000Y-104200000D01*
X239900000Y-98200000D02*
X239700000Y-98400000D01*
X236440000Y-44040000D02*
X236440000Y-46780000D01*
X161600000Y-100000000D02*
X161600000Y-95020000D01*
X239700000Y-98400000D02*
X236700000Y-98400000D01*
X91440000Y-44260000D02*
X92700000Y-43000000D01*
X125600000Y-100000000D02*
X125300000Y-100300000D01*
X236700000Y-98400000D02*
X233800000Y-101300000D01*
X125300000Y-104200000D02*
X125300000Y-100300000D01*
X201600000Y-43000000D02*
X235400000Y-43000000D01*
X163000000Y-43000000D02*
X164200000Y-44200000D01*
X125300000Y-100300000D02*
X125300000Y-94960000D01*
X197650000Y-95050000D02*
X197760000Y-94940000D01*
X233800000Y-104300000D02*
X233800000Y-101300000D01*
X88950000Y-104360000D02*
X88950000Y-106850000D01*
X88900000Y-106900000D02*
X106600000Y-106900000D01*
X125350000Y-95010000D02*
X125300000Y-94960000D01*
X161600000Y-104300000D02*
X161600000Y-100000000D01*
X126900000Y-43000000D02*
X127840000Y-43940000D01*
X239900000Y-47600000D02*
X239900000Y-98200000D01*
X232700000Y-100200000D02*
X233800000Y-101300000D01*
X199000000Y-43000000D02*
X200300000Y-44300000D01*
X233800000Y-101300000D02*
X233800000Y-95140000D01*
X127840000Y-43940000D02*
X127860000Y-43940000D01*
X233800000Y-104300000D02*
X233800000Y-107700000D01*
X161600000Y-100000000D02*
X197450000Y-100000000D01*
X236440000Y-46780000D02*
X239080000Y-46780000D01*
X233850000Y-95090000D02*
X233900000Y-95040000D01*
X200300000Y-44300000D02*
X201600000Y-43000000D01*
X106600000Y-106900000D02*
X124900000Y-106900000D01*
D18*
%TO.N,/A5*%
X159080000Y-64480000D02*
X160400000Y-65800000D01*
X196500000Y-65700000D02*
X198600000Y-65700000D01*
X122890000Y-64540000D02*
X124050000Y-65700000D01*
X235200000Y-65800000D02*
X236440000Y-64560000D01*
X127840000Y-64480000D02*
X159080000Y-64480000D01*
X199840000Y-64460000D02*
X200300000Y-64460000D01*
X162400000Y-65800000D02*
X163720000Y-64480000D01*
X127320000Y-64480000D02*
X127840000Y-64480000D01*
X124050000Y-65700000D02*
X126100000Y-65700000D01*
X231260000Y-64460000D02*
X232600000Y-65800000D01*
X198600000Y-65700000D02*
X199840000Y-64460000D01*
X160400000Y-65800000D02*
X162400000Y-65800000D01*
X200300000Y-64460000D02*
X231260000Y-64460000D01*
X195280000Y-64480000D02*
X196500000Y-65700000D01*
X177900000Y-64480000D02*
X195280000Y-64480000D01*
X91440000Y-64540000D02*
X122890000Y-64540000D01*
X232600000Y-65800000D02*
X235200000Y-65800000D01*
X164200000Y-64480000D02*
X177900000Y-64480000D01*
X163720000Y-64480000D02*
X164200000Y-64480000D01*
X126100000Y-65700000D02*
X127320000Y-64480000D01*
%TO.N,~{IRQ}*%
X125865686Y-84800000D02*
X125300000Y-84800000D01*
X195138960Y-83500000D02*
X196418960Y-84780000D01*
X196418960Y-84780000D02*
X197760000Y-84780000D01*
X197760000Y-84780000D02*
X198320000Y-84780000D01*
X90160000Y-83600000D02*
X122897919Y-83600000D01*
X122897919Y-83600000D02*
X124097919Y-84800000D01*
X88900000Y-84860000D02*
X90160000Y-83600000D01*
X124097919Y-84800000D02*
X125300000Y-84800000D01*
X231250000Y-83500000D02*
X232630000Y-84880000D01*
X157300000Y-83500000D02*
X127165686Y-83500000D01*
X163400000Y-83500000D02*
X195138960Y-83500000D01*
X161660000Y-84800000D02*
X160400000Y-84800000D01*
X160400000Y-84800000D02*
X159100000Y-83500000D01*
X161660000Y-84800000D02*
X162100000Y-84800000D01*
X199600000Y-83500000D02*
X231250000Y-83500000D01*
X159100000Y-83500000D02*
X157300000Y-83500000D01*
X198320000Y-84780000D02*
X199600000Y-83500000D01*
X232630000Y-84880000D02*
X233900000Y-84880000D01*
X127165686Y-83500000D02*
X125865686Y-84800000D01*
X162100000Y-84800000D02*
X163400000Y-83500000D01*
%TO.N,/A9*%
X159160000Y-69560000D02*
X160400000Y-70800000D01*
X160400000Y-70800000D02*
X162400000Y-70800000D01*
X198600000Y-70800000D02*
X199860000Y-69540000D01*
X200300000Y-69540000D02*
X231240000Y-69540000D01*
X196450000Y-70800000D02*
X198600000Y-70800000D01*
X124050000Y-70800000D02*
X126000000Y-70800000D01*
X195210000Y-69560000D02*
X196450000Y-70800000D01*
X163640000Y-69560000D02*
X164200000Y-69560000D01*
X231240000Y-69540000D02*
X232600000Y-70900000D01*
X232600000Y-70900000D02*
X235180000Y-70900000D01*
X127840000Y-69560000D02*
X159160000Y-69560000D01*
X174900000Y-69560000D02*
X195210000Y-69560000D01*
X126000000Y-70800000D02*
X127240000Y-69560000D01*
X235180000Y-70900000D02*
X236440000Y-69640000D01*
X122870000Y-69620000D02*
X124050000Y-70800000D01*
X162400000Y-70800000D02*
X163640000Y-69560000D01*
X91440000Y-69620000D02*
X122870000Y-69620000D01*
X199860000Y-69540000D02*
X200300000Y-69540000D01*
X127240000Y-69560000D02*
X127840000Y-69560000D01*
X164200000Y-69560000D02*
X174900000Y-69560000D01*
%TO.N,~{NMI}*%
X196500000Y-86100000D02*
X198600000Y-86100000D01*
X232600000Y-86200000D02*
X235120000Y-86200000D01*
X235120000Y-86200000D02*
X236440000Y-84880000D01*
X156100000Y-84800000D02*
X159100000Y-84800000D01*
X198600000Y-86100000D02*
X199920000Y-84780000D01*
X126200000Y-86100000D02*
X127500000Y-84800000D01*
X164200000Y-84800000D02*
X195200000Y-84800000D01*
X159100000Y-84800000D02*
X160400000Y-86100000D01*
X127500000Y-84800000D02*
X127840000Y-84800000D01*
X199920000Y-84780000D02*
X200300000Y-84780000D01*
X122860000Y-84860000D02*
X124100000Y-86100000D01*
X160400000Y-86100000D02*
X162500000Y-86100000D01*
X163800000Y-84800000D02*
X164200000Y-84800000D01*
X124100000Y-86100000D02*
X126200000Y-86100000D01*
X91440000Y-84860000D02*
X122860000Y-84860000D01*
X162500000Y-86100000D02*
X163800000Y-84800000D01*
X127840000Y-84800000D02*
X156100000Y-84800000D01*
X195200000Y-84800000D02*
X196500000Y-86100000D01*
X231180000Y-84780000D02*
X232600000Y-86200000D01*
X200300000Y-84780000D02*
X231180000Y-84780000D01*
%TO.N,CSIO4*%
X127840000Y-82260000D02*
X159160000Y-82260000D01*
X231140000Y-82240000D02*
X232500000Y-83600000D01*
X159160000Y-82260000D02*
X160400000Y-83500000D01*
X127340000Y-82260000D02*
X127840000Y-82260000D01*
X199960000Y-82240000D02*
X200300000Y-82240000D01*
X122720000Y-82320000D02*
X123900000Y-83500000D01*
X164200000Y-82260000D02*
X167150000Y-82260000D01*
X195260000Y-82260000D02*
X196500000Y-83500000D01*
X196500000Y-83500000D02*
X198700000Y-83500000D01*
X200300000Y-82240000D02*
X231140000Y-82240000D01*
X91440000Y-82320000D02*
X122720000Y-82320000D01*
X163740000Y-82260000D02*
X164200000Y-82260000D01*
X160400000Y-83500000D02*
X162500000Y-83500000D01*
X235180000Y-83600000D02*
X236440000Y-82340000D01*
X126100000Y-83500000D02*
X127340000Y-82260000D01*
X123900000Y-83500000D02*
X126100000Y-83500000D01*
X232500000Y-83600000D02*
X235180000Y-83600000D01*
X162500000Y-83500000D02*
X163740000Y-82260000D01*
X167150000Y-82260000D02*
X195260000Y-82260000D01*
X198700000Y-83500000D02*
X199960000Y-82240000D01*
%TO.N,/D4*%
X88900000Y-54380000D02*
X90180000Y-53100000D01*
X127000000Y-53100000D02*
X125780000Y-54320000D01*
X163500000Y-53100000D02*
X162280000Y-54320000D01*
X231248960Y-53000000D02*
X232648960Y-54400000D01*
X196400000Y-54300000D02*
X197760000Y-54300000D01*
X189800000Y-53100000D02*
X163500000Y-53100000D01*
X191750000Y-53100000D02*
X189800000Y-53100000D01*
X90180000Y-53100000D02*
X122800000Y-53100000D01*
X191800000Y-53150000D02*
X191750000Y-53100000D01*
X161660000Y-54320000D02*
X160320000Y-54320000D01*
X124020000Y-54320000D02*
X125300000Y-54320000D01*
X232648960Y-54400000D02*
X233900000Y-54400000D01*
X191850000Y-53100000D02*
X195200000Y-53100000D01*
X125780000Y-54320000D02*
X125300000Y-54320000D01*
X199600000Y-53000000D02*
X231248960Y-53000000D01*
X159100000Y-53100000D02*
X127000000Y-53100000D01*
X197760000Y-54300000D02*
X198300000Y-54300000D01*
X162280000Y-54320000D02*
X161660000Y-54320000D01*
X195200000Y-53100000D02*
X196400000Y-54300000D01*
X160320000Y-54320000D02*
X159100000Y-53100000D01*
X122800000Y-53100000D02*
X124020000Y-54320000D01*
X198300000Y-54300000D02*
X199600000Y-53000000D01*
X191800000Y-53150000D02*
X191850000Y-53100000D01*
%TO.N,/A7*%
X196500000Y-68300000D02*
X198400000Y-68300000D01*
X198400000Y-68300000D02*
X199700000Y-67000000D01*
X159120000Y-67020000D02*
X160400000Y-68300000D01*
X127280000Y-67020000D02*
X127840000Y-67020000D01*
X176300000Y-67020000D02*
X195220000Y-67020000D01*
X163780000Y-67020000D02*
X164200000Y-67020000D01*
X162500000Y-68300000D02*
X163780000Y-67020000D01*
X126000000Y-68300000D02*
X127280000Y-67020000D01*
X91440000Y-67080000D02*
X122780000Y-67080000D01*
X124000000Y-68300000D02*
X126000000Y-68300000D01*
X195220000Y-67020000D02*
X196500000Y-68300000D01*
X232600000Y-68400000D02*
X235140000Y-68400000D01*
X235140000Y-68400000D02*
X236440000Y-67100000D01*
X199700000Y-67000000D02*
X200300000Y-67000000D01*
X122780000Y-67080000D02*
X124000000Y-68300000D01*
X127840000Y-67020000D02*
X159120000Y-67020000D01*
X164200000Y-67020000D02*
X176300000Y-67020000D01*
X200300000Y-67000000D02*
X231200000Y-67000000D01*
X231200000Y-67000000D02*
X232600000Y-68400000D01*
X160400000Y-68300000D02*
X162500000Y-68300000D01*
%TO.N,/A4*%
X177100000Y-63200000D02*
X195200000Y-63200000D01*
X90140000Y-63300000D02*
X122900000Y-63300000D01*
X160380000Y-64480000D02*
X159100000Y-63200000D01*
X127200000Y-63200000D02*
X125920000Y-64480000D01*
X125920000Y-64480000D02*
X125300000Y-64480000D01*
X198240000Y-64460000D02*
X199500000Y-63200000D01*
X195200000Y-63200000D02*
X196460000Y-64460000D01*
X232660000Y-64560000D02*
X233900000Y-64560000D01*
X124080000Y-64480000D02*
X125300000Y-64480000D01*
X199500000Y-63200000D02*
X231300000Y-63200000D01*
X231300000Y-63200000D02*
X232660000Y-64560000D01*
X162220000Y-64480000D02*
X163500000Y-63200000D01*
X161660000Y-64480000D02*
X162220000Y-64480000D01*
X159100000Y-63200000D02*
X127200000Y-63200000D01*
X163500000Y-63200000D02*
X177100000Y-63200000D01*
X122900000Y-63300000D02*
X124080000Y-64480000D01*
X161660000Y-64480000D02*
X160380000Y-64480000D01*
X88900000Y-64540000D02*
X90140000Y-63300000D01*
X196460000Y-64460000D02*
X197760000Y-64460000D01*
X197760000Y-64460000D02*
X198240000Y-64460000D01*
%TO.N,/D5*%
X198600000Y-55600000D02*
X199900000Y-54300000D01*
X164200000Y-54320000D02*
X190900000Y-54320000D01*
X91440000Y-54380000D02*
X122780000Y-54380000D01*
X196500000Y-55600000D02*
X198600000Y-55600000D01*
X124000000Y-55600000D02*
X126100000Y-55600000D01*
X159120000Y-54320000D02*
X160400000Y-55600000D01*
X160400000Y-55600000D02*
X162400000Y-55600000D01*
X127380000Y-54320000D02*
X127840000Y-54320000D01*
X163680000Y-54320000D02*
X164200000Y-54320000D01*
X126100000Y-55600000D02*
X127380000Y-54320000D01*
X127840000Y-54320000D02*
X159120000Y-54320000D01*
X122780000Y-54380000D02*
X124000000Y-55600000D01*
X162400000Y-55600000D02*
X163680000Y-54320000D01*
X199900000Y-54300000D02*
X200300000Y-54300000D01*
X200300000Y-54300000D02*
X231300000Y-54300000D01*
X235140000Y-55700000D02*
X236440000Y-54400000D01*
X232700000Y-55700000D02*
X235140000Y-55700000D01*
X190900000Y-54320000D02*
X195220000Y-54320000D01*
X231300000Y-54300000D02*
X232700000Y-55700000D01*
X195220000Y-54320000D02*
X196500000Y-55600000D01*
%TO.N,/D6*%
X88900000Y-56920000D02*
X90120000Y-55700000D01*
X187700000Y-55600000D02*
X190400000Y-55600000D01*
X127062843Y-55600000D02*
X125802843Y-56860000D01*
X124060000Y-56860000D02*
X125300000Y-56860000D01*
X90120000Y-55700000D02*
X122900000Y-55700000D01*
X195200000Y-55600000D02*
X196440000Y-56840000D01*
X161660000Y-56860000D02*
X160457919Y-56860000D01*
X163400000Y-55600000D02*
X187700000Y-55600000D01*
X199600000Y-55600000D02*
X231357919Y-55600000D01*
X162140000Y-56860000D02*
X163400000Y-55600000D01*
X232697919Y-56940000D02*
X233900000Y-56940000D01*
X197760000Y-56840000D02*
X198360000Y-56840000D01*
X122900000Y-55700000D02*
X124060000Y-56860000D01*
X190400000Y-55600000D02*
X195200000Y-55600000D01*
X159197919Y-55600000D02*
X127062843Y-55600000D01*
X125802843Y-56860000D02*
X125300000Y-56860000D01*
X160457919Y-56860000D02*
X159197919Y-55600000D01*
X161660000Y-56860000D02*
X162140000Y-56860000D01*
X231357919Y-55600000D02*
X232697919Y-56940000D01*
X198360000Y-56840000D02*
X199600000Y-55600000D01*
X196440000Y-56840000D02*
X197760000Y-56840000D01*
%TO.N,/D3*%
X163820000Y-51780000D02*
X164200000Y-51780000D01*
X196500000Y-53000000D02*
X198500000Y-53000000D01*
X124050000Y-53000000D02*
X126200000Y-53000000D01*
X195280000Y-51780000D02*
X196500000Y-53000000D01*
X126200000Y-53000000D02*
X127420000Y-51780000D01*
X199740000Y-51760000D02*
X200300000Y-51760000D01*
X127420000Y-51780000D02*
X127840000Y-51780000D01*
X232600000Y-53100000D02*
X235200000Y-53100000D01*
X164200000Y-51780000D02*
X192900000Y-51780000D01*
X127840000Y-51780000D02*
X159180000Y-51780000D01*
X122890000Y-51840000D02*
X124050000Y-53000000D01*
X198500000Y-53000000D02*
X199740000Y-51760000D01*
X162600000Y-53000000D02*
X163820000Y-51780000D01*
X231260000Y-51760000D02*
X232600000Y-53100000D01*
X91440000Y-51840000D02*
X122890000Y-51840000D01*
X235200000Y-53100000D02*
X236440000Y-51860000D01*
X159180000Y-51780000D02*
X160400000Y-53000000D01*
X160400000Y-53000000D02*
X162600000Y-53000000D01*
X192900000Y-51780000D02*
X195280000Y-51780000D01*
X200300000Y-51760000D02*
X231260000Y-51760000D01*
%TO.N,/A3*%
X198500000Y-63200000D02*
X199780000Y-61920000D01*
X199780000Y-61920000D02*
X200300000Y-61920000D01*
X159240000Y-61940000D02*
X160500000Y-63200000D01*
X164200000Y-61940000D02*
X179600000Y-61940000D01*
X196450000Y-63200000D02*
X198500000Y-63200000D01*
X122900000Y-62000000D02*
X124100000Y-63200000D01*
X126100000Y-63200000D02*
X127360000Y-61940000D01*
X231220000Y-61920000D02*
X232600000Y-63300000D01*
X127840000Y-61940000D02*
X159240000Y-61940000D01*
X160500000Y-63200000D02*
X162500000Y-63200000D01*
X232600000Y-63300000D02*
X235160000Y-63300000D01*
X235160000Y-63300000D02*
X236440000Y-62020000D01*
X91440000Y-62000000D02*
X122900000Y-62000000D01*
X179600000Y-61940000D02*
X195190000Y-61940000D01*
X124100000Y-63200000D02*
X126100000Y-63200000D01*
X162500000Y-63200000D02*
X163760000Y-61940000D01*
X127360000Y-61940000D02*
X127840000Y-61940000D01*
X163760000Y-61940000D02*
X164200000Y-61940000D01*
X200300000Y-61920000D02*
X231220000Y-61920000D01*
X195190000Y-61940000D02*
X196450000Y-63200000D01*
%TO.N,RESB*%
X198380000Y-87320000D02*
X199600000Y-86100000D01*
X231200000Y-86100000D02*
X232520000Y-87420000D01*
X195300000Y-86100000D02*
X196520000Y-87320000D01*
X163400000Y-86100000D02*
X195300000Y-86100000D01*
X122732843Y-86100000D02*
X123972843Y-87340000D01*
X88900000Y-87400000D02*
X90200000Y-86100000D01*
X127100000Y-86100000D02*
X125860000Y-87340000D01*
X196520000Y-87320000D02*
X197760000Y-87320000D01*
X162160000Y-87340000D02*
X163400000Y-86100000D01*
X161660000Y-87340000D02*
X160298960Y-87340000D01*
X123972843Y-87340000D02*
X125300000Y-87340000D01*
X125860000Y-87340000D02*
X125300000Y-87340000D01*
X159058960Y-86100000D02*
X155100000Y-86100000D01*
X160298960Y-87340000D02*
X159058960Y-86100000D01*
X161660000Y-87340000D02*
X162160000Y-87340000D01*
X155100000Y-86100000D02*
X127100000Y-86100000D01*
X90200000Y-86100000D02*
X122732843Y-86100000D01*
X197760000Y-87320000D02*
X198380000Y-87320000D01*
X199600000Y-86100000D02*
X231200000Y-86100000D01*
X232520000Y-87420000D02*
X233900000Y-87420000D01*
%TO.N,/A11*%
X124050000Y-73400000D02*
X125900000Y-73400000D01*
X163900000Y-72100000D02*
X164200000Y-72100000D01*
X232600000Y-73400000D02*
X235220000Y-73400000D01*
X162600000Y-73400000D02*
X163900000Y-72100000D01*
X159100000Y-72100000D02*
X160400000Y-73400000D01*
X127840000Y-72100000D02*
X159100000Y-72100000D01*
X173400000Y-72100000D02*
X195300000Y-72100000D01*
X164200000Y-72100000D02*
X173400000Y-72100000D01*
X195300000Y-72100000D02*
X196500000Y-73300000D01*
X199720000Y-72080000D02*
X200300000Y-72080000D01*
X231280000Y-72080000D02*
X232600000Y-73400000D01*
X91440000Y-72160000D02*
X122810000Y-72160000D01*
X196500000Y-73300000D02*
X198500000Y-73300000D01*
X198500000Y-73300000D02*
X199720000Y-72080000D01*
X122810000Y-72160000D02*
X124050000Y-73400000D01*
X127200000Y-72100000D02*
X127840000Y-72100000D01*
X125900000Y-73400000D02*
X127200000Y-72100000D01*
X160400000Y-73400000D02*
X162600000Y-73400000D01*
X200300000Y-72080000D02*
X231280000Y-72080000D01*
X235220000Y-73400000D02*
X236440000Y-72180000D01*
%TO.N,/D1*%
X199880000Y-49220000D02*
X200300000Y-49220000D01*
X160350000Y-50500000D02*
X162400000Y-50500000D01*
X163660000Y-49240000D02*
X164200000Y-49240000D01*
X231220000Y-49220000D02*
X232600000Y-50600000D01*
X127840000Y-49240000D02*
X159090000Y-49240000D01*
X200300000Y-49220000D02*
X231220000Y-49220000D01*
X91540000Y-49400000D02*
X122900000Y-49400000D01*
X235160000Y-50600000D02*
X236440000Y-49320000D01*
X196500000Y-50500000D02*
X198600000Y-50500000D01*
X164200000Y-49240000D02*
X195240000Y-49240000D01*
X198600000Y-50500000D02*
X199880000Y-49220000D01*
X195240000Y-49240000D02*
X196500000Y-50500000D01*
X122900000Y-49400000D02*
X124000000Y-50500000D01*
X162400000Y-50500000D02*
X163660000Y-49240000D01*
X232600000Y-50600000D02*
X235160000Y-50600000D01*
X91440000Y-49300000D02*
X91540000Y-49400000D01*
X159090000Y-49240000D02*
X160350000Y-50500000D01*
X124000000Y-50500000D02*
X126100000Y-50500000D01*
X126100000Y-50500000D02*
X127360000Y-49240000D01*
X127360000Y-49240000D02*
X127840000Y-49240000D01*
%TO.N,/A12*%
X232620000Y-74720000D02*
X233900000Y-74720000D01*
X197760000Y-74620000D02*
X198180000Y-74620000D01*
X88900000Y-74700000D02*
X90200000Y-73400000D01*
X161660000Y-74640000D02*
X160340000Y-74640000D01*
X171000000Y-73400000D02*
X195200000Y-73400000D01*
X231200000Y-73300000D02*
X232620000Y-74720000D01*
X198180000Y-74620000D02*
X199500000Y-73300000D01*
X159100000Y-73400000D02*
X126900000Y-73400000D01*
X90200000Y-73400000D02*
X122892157Y-73400000D01*
X196420000Y-74620000D02*
X197760000Y-74620000D01*
X163500000Y-73400000D02*
X162260000Y-74640000D01*
X126900000Y-73400000D02*
X125660000Y-74640000D01*
X162260000Y-74640000D02*
X161660000Y-74640000D01*
X195200000Y-73400000D02*
X196420000Y-74620000D01*
X124132157Y-74640000D02*
X125300000Y-74640000D01*
X199500000Y-73300000D02*
X231200000Y-73300000D01*
X160340000Y-74640000D02*
X159100000Y-73400000D01*
X122892157Y-73400000D02*
X124132157Y-74640000D01*
X171000000Y-73400000D02*
X163500000Y-73400000D01*
X125660000Y-74640000D02*
X125300000Y-74640000D01*
%TO.N,/A2*%
X199400000Y-60700000D02*
X231300000Y-60700000D01*
X88900000Y-62000000D02*
X90200000Y-60700000D01*
X122800000Y-60700000D02*
X124040000Y-61940000D01*
X161660000Y-61940000D02*
X160457919Y-61940000D01*
X90200000Y-60700000D02*
X122800000Y-60700000D01*
X196420000Y-61920000D02*
X197760000Y-61920000D01*
X159217919Y-60700000D02*
X127000000Y-60700000D01*
X124040000Y-61940000D02*
X125300000Y-61940000D01*
X178800000Y-60700000D02*
X163400000Y-60700000D01*
X231300000Y-60700000D02*
X232620000Y-62020000D01*
X178800000Y-60700000D02*
X195200000Y-60700000D01*
X198180000Y-61920000D02*
X199400000Y-60700000D01*
X197760000Y-61920000D02*
X198180000Y-61920000D01*
X195200000Y-60700000D02*
X196420000Y-61920000D01*
X160457919Y-61940000D02*
X159217919Y-60700000D01*
X163400000Y-60700000D02*
X162160000Y-61940000D01*
X232620000Y-62020000D02*
X233900000Y-62020000D01*
X162160000Y-61940000D02*
X161660000Y-61940000D01*
X127000000Y-60700000D02*
X125760000Y-61940000D01*
X125760000Y-61940000D02*
X125300000Y-61940000D01*
%TO.N,/D0*%
X194600000Y-48090000D02*
X195290000Y-48090000D01*
X88900000Y-49300000D02*
X90290000Y-47910000D01*
X198180000Y-49220000D02*
X199400000Y-48000000D01*
X125760000Y-49240000D02*
X125300000Y-49240000D01*
X162810000Y-48090000D02*
X161660000Y-49240000D01*
X90290000Y-47910000D02*
X122610000Y-47910000D01*
X196420000Y-49220000D02*
X197760000Y-49220000D01*
X194600000Y-48090000D02*
X193800000Y-48090000D01*
X127100000Y-47900000D02*
X125760000Y-49240000D01*
X161660000Y-49240000D02*
X160340000Y-49240000D01*
X159000000Y-47900000D02*
X127100000Y-47900000D01*
X197760000Y-49220000D02*
X198180000Y-49220000D01*
X199400000Y-48000000D02*
X231300000Y-48000000D01*
X232620000Y-49320000D02*
X233900000Y-49320000D01*
X160340000Y-49240000D02*
X159000000Y-47900000D01*
X123940000Y-49240000D02*
X125300000Y-49240000D01*
X195290000Y-48090000D02*
X196420000Y-49220000D01*
X122610000Y-47910000D02*
X123940000Y-49240000D01*
X231300000Y-48000000D02*
X232620000Y-49320000D01*
X193800000Y-48090000D02*
X162810000Y-48090000D01*
%TO.N,RDY*%
X160400000Y-88600000D02*
X162500000Y-88600000D01*
X162500000Y-88600000D02*
X163760000Y-87340000D01*
X231170000Y-87320000D02*
X232550000Y-88700000D01*
X163760000Y-87340000D02*
X164200000Y-87340000D01*
X198600000Y-88600000D02*
X199880000Y-87320000D01*
X122800000Y-87400000D02*
X124000000Y-88600000D01*
X127840000Y-87340000D02*
X159140000Y-87340000D01*
X124000000Y-88600000D02*
X126200000Y-88600000D01*
X126200000Y-88600000D02*
X127460000Y-87340000D01*
X235160000Y-88700000D02*
X236440000Y-87420000D01*
X127460000Y-87340000D02*
X127840000Y-87340000D01*
X232550000Y-88700000D02*
X235160000Y-88700000D01*
X200300000Y-87320000D02*
X231170000Y-87320000D01*
X196400000Y-88600000D02*
X198600000Y-88600000D01*
X159140000Y-87340000D02*
X160400000Y-88600000D01*
X199880000Y-87320000D02*
X200300000Y-87320000D01*
X164200000Y-87340000D02*
X195140000Y-87340000D01*
X195140000Y-87340000D02*
X196400000Y-88600000D01*
X91440000Y-87400000D02*
X122800000Y-87400000D01*
%TO.N,/A8*%
X161660000Y-69560000D02*
X160308960Y-69560000D01*
X124060000Y-69560000D02*
X125300000Y-69560000D01*
X90120000Y-68400000D02*
X122900000Y-68400000D01*
X232540000Y-69640000D02*
X233900000Y-69640000D01*
X196440000Y-69540000D02*
X197760000Y-69540000D01*
X161660000Y-69560000D02*
X162140000Y-69560000D01*
X198260000Y-69540000D02*
X199500000Y-68300000D01*
X125865686Y-69560000D02*
X125300000Y-69560000D01*
X127125686Y-68300000D02*
X125865686Y-69560000D01*
X88900000Y-69620000D02*
X90120000Y-68400000D01*
X231200000Y-68300000D02*
X232540000Y-69640000D01*
X195200000Y-68300000D02*
X196440000Y-69540000D01*
X162140000Y-69560000D02*
X163400000Y-68300000D01*
X197760000Y-69540000D02*
X198260000Y-69540000D01*
X160308960Y-69560000D02*
X159048960Y-68300000D01*
X199500000Y-68300000D02*
X231200000Y-68300000D01*
X159048960Y-68300000D02*
X127125686Y-68300000D01*
X174100000Y-68300000D02*
X195200000Y-68300000D01*
X163400000Y-68300000D02*
X174100000Y-68300000D01*
X122900000Y-68400000D02*
X124060000Y-69560000D01*
%TO.N,/A10*%
X125865686Y-72100000D02*
X125300000Y-72100000D01*
X163400000Y-70800000D02*
X172500000Y-70800000D01*
X195200000Y-70800000D02*
X196480000Y-72080000D01*
X161660000Y-72100000D02*
X160400000Y-72100000D01*
X159100000Y-70800000D02*
X127165686Y-70800000D01*
X232630000Y-72180000D02*
X233900000Y-72180000D01*
X161660000Y-72100000D02*
X162100000Y-72100000D01*
X196480000Y-72080000D02*
X197760000Y-72080000D01*
X90160000Y-70900000D02*
X122892157Y-70900000D01*
X160400000Y-72100000D02*
X159100000Y-70800000D01*
X231250000Y-70800000D02*
X232630000Y-72180000D01*
X88900000Y-72160000D02*
X90160000Y-70900000D01*
X198220000Y-72080000D02*
X199500000Y-70800000D01*
X127165686Y-70800000D02*
X125865686Y-72100000D01*
X122892157Y-70900000D02*
X124092157Y-72100000D01*
X197760000Y-72080000D02*
X198220000Y-72080000D01*
X162100000Y-72100000D02*
X163400000Y-70800000D01*
X172500000Y-70800000D02*
X195200000Y-70800000D01*
X124092157Y-72100000D02*
X125300000Y-72100000D01*
X199500000Y-70800000D02*
X231250000Y-70800000D01*
%TO.N,/A1*%
X164200000Y-59400000D02*
X187700000Y-59400000D01*
X187700000Y-59400000D02*
X195200000Y-59400000D01*
X200300000Y-59380000D02*
X231230000Y-59380000D01*
X231230000Y-59380000D02*
X232550000Y-60700000D01*
X91440000Y-59460000D02*
X122810000Y-59460000D01*
X124050000Y-60700000D02*
X126100000Y-60700000D01*
X126100000Y-60700000D02*
X127400000Y-59400000D01*
X160300000Y-60700000D02*
X162400000Y-60700000D01*
X163700000Y-59400000D02*
X164200000Y-59400000D01*
X159000000Y-59400000D02*
X160300000Y-60700000D01*
X199720000Y-59380000D02*
X200300000Y-59380000D01*
X195200000Y-59400000D02*
X196400000Y-60600000D01*
X127400000Y-59400000D02*
X127840000Y-59400000D01*
X198500000Y-60600000D02*
X199720000Y-59380000D01*
X232550000Y-60700000D02*
X235220000Y-60700000D01*
X127840000Y-59400000D02*
X159000000Y-59400000D01*
X196400000Y-60600000D02*
X198500000Y-60600000D01*
X162400000Y-60700000D02*
X163700000Y-59400000D01*
X122810000Y-59460000D02*
X124050000Y-60700000D01*
X235220000Y-60700000D02*
X236440000Y-59480000D01*
%TO.N,/A13*%
X124100000Y-75900000D02*
X126100000Y-75900000D01*
X199880000Y-74620000D02*
X200300000Y-74620000D01*
X195240000Y-74640000D02*
X196500000Y-75900000D01*
X196500000Y-75900000D02*
X198600000Y-75900000D01*
X159140000Y-74640000D02*
X160400000Y-75900000D01*
X122900000Y-74700000D02*
X124100000Y-75900000D01*
X127360000Y-74640000D02*
X127840000Y-74640000D01*
X126100000Y-75900000D02*
X127360000Y-74640000D01*
X200300000Y-74620000D02*
X231220000Y-74620000D01*
X127840000Y-74640000D02*
X159140000Y-74640000D01*
X160400000Y-75900000D02*
X162600000Y-75900000D01*
X198600000Y-75900000D02*
X199880000Y-74620000D01*
X231220000Y-74620000D02*
X232600000Y-76000000D01*
X163860000Y-74640000D02*
X164200000Y-74640000D01*
X162600000Y-75900000D02*
X163860000Y-74640000D01*
X91440000Y-74700000D02*
X122900000Y-74700000D01*
X232600000Y-76000000D02*
X235160000Y-76000000D01*
X235160000Y-76000000D02*
X236440000Y-74720000D01*
X164200000Y-74640000D02*
X195240000Y-74640000D01*
%TO.N,/A15*%
X195230000Y-77180000D02*
X196450000Y-78400000D01*
X127840000Y-77180000D02*
X159130000Y-77180000D01*
X127420000Y-77180000D02*
X127840000Y-77180000D01*
X122740000Y-77240000D02*
X124000000Y-78500000D01*
X231260000Y-77160000D02*
X232600000Y-78500000D01*
X159130000Y-77180000D02*
X160350000Y-78400000D01*
X91440000Y-77240000D02*
X122740000Y-77240000D01*
X235200000Y-78500000D02*
X236440000Y-77260000D01*
X163720000Y-77180000D02*
X164200000Y-77180000D01*
X198600000Y-78400000D02*
X199840000Y-77160000D01*
X162500000Y-78400000D02*
X163720000Y-77180000D01*
X126100000Y-78500000D02*
X127420000Y-77180000D01*
X232600000Y-78500000D02*
X235200000Y-78500000D01*
X199840000Y-77160000D02*
X200300000Y-77160000D01*
X200300000Y-77160000D02*
X231260000Y-77160000D01*
X124000000Y-78500000D02*
X126100000Y-78500000D01*
X160350000Y-78400000D02*
X162500000Y-78400000D01*
X164200000Y-77180000D02*
X195230000Y-77180000D01*
X196450000Y-78400000D02*
X198600000Y-78400000D01*
%TO.N,CSIO2*%
X200300000Y-79700000D02*
X231250000Y-79700000D01*
X232650000Y-81100000D02*
X235140000Y-81100000D01*
X198500000Y-81000000D02*
X199800000Y-79700000D01*
X162400000Y-81000000D02*
X163680000Y-79720000D01*
X127840000Y-79720000D02*
X159120000Y-79720000D01*
X235140000Y-81100000D02*
X236440000Y-79800000D01*
X126200000Y-81000000D02*
X127480000Y-79720000D01*
X195170000Y-79720000D02*
X196450000Y-81000000D01*
X124100000Y-81000000D02*
X126200000Y-81000000D01*
X122880000Y-79780000D02*
X124100000Y-81000000D01*
X199800000Y-79700000D02*
X200300000Y-79700000D01*
X164200000Y-79720000D02*
X195170000Y-79720000D01*
X91440000Y-79780000D02*
X122880000Y-79780000D01*
X163680000Y-79720000D02*
X164200000Y-79720000D01*
X127480000Y-79720000D02*
X127840000Y-79720000D01*
X231250000Y-79700000D02*
X232650000Y-81100000D01*
X196450000Y-81000000D02*
X198500000Y-81000000D01*
X159120000Y-79720000D02*
X160400000Y-81000000D01*
X160400000Y-81000000D02*
X162400000Y-81000000D01*
%TO.N,BE*%
X127840000Y-89880000D02*
X159180000Y-89880000D01*
X162500000Y-91100000D02*
X163720000Y-89880000D01*
X159180000Y-89880000D02*
X160400000Y-91100000D01*
X164200000Y-89880000D02*
X195230000Y-89880000D01*
X122765000Y-89940000D02*
X123925000Y-91100000D01*
X160400000Y-91100000D02*
X162500000Y-91100000D01*
X198600000Y-91100000D02*
X199840000Y-89860000D01*
X232550000Y-91200000D02*
X235200000Y-91200000D01*
X199840000Y-89860000D02*
X200300000Y-89860000D01*
X235200000Y-91200000D02*
X236440000Y-89960000D01*
X196450000Y-91100000D02*
X198600000Y-91100000D01*
X200300000Y-89860000D02*
X231210000Y-89860000D01*
X127320000Y-89880000D02*
X127840000Y-89880000D01*
X91440000Y-89940000D02*
X122765000Y-89940000D01*
X163720000Y-89880000D02*
X164200000Y-89880000D01*
X126100000Y-91100000D02*
X127320000Y-89880000D01*
X123925000Y-91100000D02*
X126100000Y-91100000D01*
X195230000Y-89880000D02*
X196450000Y-91100000D01*
X231210000Y-89860000D02*
X232550000Y-91200000D01*
%TO.N,/A14*%
X169400000Y-75900000D02*
X195200000Y-75900000D01*
X159100000Y-75900000D02*
X127100000Y-75900000D01*
X169400000Y-75900000D02*
X163500000Y-75900000D01*
X160380000Y-77180000D02*
X159100000Y-75900000D01*
X161660000Y-77180000D02*
X160380000Y-77180000D01*
X88900000Y-77240000D02*
X90140000Y-76000000D01*
X196460000Y-77160000D02*
X197760000Y-77160000D01*
X197760000Y-77160000D02*
X198240000Y-77160000D01*
X124080000Y-77180000D02*
X125300000Y-77180000D01*
X90140000Y-76000000D02*
X122900000Y-76000000D01*
X198240000Y-77160000D02*
X199500000Y-75900000D01*
X127100000Y-75900000D02*
X125820000Y-77180000D01*
X199500000Y-75900000D02*
X231200000Y-75900000D01*
X162220000Y-77180000D02*
X161660000Y-77180000D01*
X125820000Y-77180000D02*
X125300000Y-77180000D01*
X195200000Y-75900000D02*
X196460000Y-77160000D01*
X163500000Y-75900000D02*
X162220000Y-77180000D01*
X232560000Y-77260000D02*
X233900000Y-77260000D01*
X231200000Y-75900000D02*
X232560000Y-77260000D01*
X122900000Y-76000000D02*
X124080000Y-77180000D01*
%TO.N,SYNC*%
X196460000Y-89860000D02*
X197760000Y-89860000D01*
X162220000Y-89880000D02*
X163500000Y-88600000D01*
X163500000Y-88600000D02*
X195200000Y-88600000D01*
X90140000Y-88700000D02*
X122900000Y-88700000D01*
X124080000Y-89880000D02*
X125300000Y-89880000D01*
X122900000Y-88700000D02*
X124080000Y-89880000D01*
X161660000Y-89880000D02*
X162220000Y-89880000D01*
X199500000Y-88600000D02*
X231000000Y-88600000D01*
X88900000Y-89940000D02*
X90140000Y-88700000D01*
X231000000Y-88600000D02*
X232360000Y-89960000D01*
X152600000Y-88600000D02*
X127300000Y-88600000D01*
X161660000Y-89880000D02*
X160280000Y-89880000D01*
X198240000Y-89860000D02*
X199500000Y-88600000D01*
X126020000Y-89880000D02*
X125300000Y-89880000D01*
X232360000Y-89960000D02*
X233900000Y-89960000D01*
X195200000Y-88600000D02*
X196460000Y-89860000D01*
X159000000Y-88600000D02*
X152600000Y-88600000D01*
X160280000Y-89880000D02*
X159000000Y-88600000D01*
X127300000Y-88600000D02*
X126020000Y-89880000D01*
X197760000Y-89860000D02*
X198240000Y-89860000D01*
%TO.N,CLK*%
X200300000Y-92400000D02*
X231200000Y-92400000D01*
X126560000Y-93700000D02*
X127840000Y-92420000D01*
X195220000Y-92420000D02*
X196500000Y-93700000D01*
X122780000Y-92480000D02*
X124000000Y-93700000D01*
X124000000Y-93700000D02*
X126560000Y-93700000D01*
X232600000Y-93800000D02*
X235140000Y-93800000D01*
X127840000Y-92420000D02*
X159120000Y-92420000D01*
X159120000Y-92420000D02*
X160400000Y-93700000D01*
X163880000Y-92420000D02*
X164200000Y-92420000D01*
X199000000Y-93700000D02*
X200300000Y-92400000D01*
X164200000Y-92420000D02*
X195220000Y-92420000D01*
X235140000Y-93800000D02*
X236440000Y-92500000D01*
X196500000Y-93700000D02*
X199000000Y-93700000D01*
X160400000Y-93700000D02*
X162600000Y-93700000D01*
X162600000Y-93700000D02*
X163880000Y-92420000D01*
X91440000Y-92480000D02*
X122780000Y-92480000D01*
X231200000Y-92400000D02*
X232600000Y-93800000D01*
%TO.N,CSIO1*%
X160457919Y-79720000D02*
X159237919Y-78500000D01*
X197760000Y-79700000D02*
X198200000Y-79700000D01*
X162080000Y-79720000D02*
X161660000Y-79720000D01*
X125880000Y-79720000D02*
X125300000Y-79720000D01*
X90180000Y-78500000D02*
X122782843Y-78500000D01*
X196500000Y-79700000D02*
X197760000Y-79700000D01*
X88900000Y-79780000D02*
X90180000Y-78500000D01*
X195300000Y-78500000D02*
X196500000Y-79700000D01*
X124002843Y-79720000D02*
X125300000Y-79720000D01*
X232650000Y-79800000D02*
X233900000Y-79800000D01*
X231250000Y-78400000D02*
X232650000Y-79800000D01*
X159237919Y-78500000D02*
X127100000Y-78500000D01*
X167800000Y-78500000D02*
X163300000Y-78500000D01*
X163300000Y-78500000D02*
X162080000Y-79720000D01*
X127100000Y-78500000D02*
X125880000Y-79720000D01*
X198200000Y-79700000D02*
X199500000Y-78400000D01*
X167800000Y-78500000D02*
X195300000Y-78500000D01*
X161660000Y-79720000D02*
X160457919Y-79720000D01*
X122782843Y-78500000D02*
X124002843Y-79720000D01*
X199500000Y-78400000D02*
X231250000Y-78400000D01*
%TO.N,/A6*%
X232600000Y-67100000D02*
X233900000Y-67100000D01*
X160420000Y-67020000D02*
X159192843Y-65792843D01*
X162180000Y-67020000D02*
X163400000Y-65800000D01*
X199600000Y-65700000D02*
X231200000Y-65700000D01*
X88900000Y-67080000D02*
X90180000Y-65800000D01*
X122800000Y-65800000D02*
X124020000Y-67020000D01*
X198300000Y-67000000D02*
X199600000Y-65700000D01*
X231200000Y-65700000D02*
X232600000Y-67100000D01*
X125865686Y-67020000D02*
X125300000Y-67020000D01*
X90180000Y-65800000D02*
X122800000Y-65800000D01*
X161660000Y-67020000D02*
X162180000Y-67020000D01*
X195200000Y-65800000D02*
X196400000Y-67000000D01*
X197760000Y-67000000D02*
X198300000Y-67000000D01*
X175600000Y-65800000D02*
X195200000Y-65800000D01*
X163400000Y-65800000D02*
X175600000Y-65800000D01*
X127092843Y-65792843D02*
X125865686Y-67020000D01*
X124020000Y-67020000D02*
X125300000Y-67020000D01*
X161660000Y-67020000D02*
X160420000Y-67020000D01*
X196400000Y-67000000D02*
X197760000Y-67000000D01*
X159192843Y-65792843D02*
X127092843Y-65792843D01*
%TO.N,CSIO5*%
X196550000Y-92400000D02*
X197760000Y-92400000D01*
X160320000Y-92420000D02*
X159000000Y-91100000D01*
X88900000Y-92480000D02*
X90180000Y-91200000D01*
X161660000Y-92420000D02*
X160320000Y-92420000D01*
X162180000Y-92420000D02*
X163400000Y-91200000D01*
X231200000Y-91100000D02*
X232600000Y-92500000D01*
X163400000Y-91200000D02*
X195350000Y-91200000D01*
X125865686Y-92420000D02*
X125300000Y-92420000D01*
X197760000Y-92400000D02*
X198200000Y-92400000D01*
X198200000Y-92400000D02*
X199500000Y-91100000D01*
X122829657Y-91200000D02*
X124049657Y-92420000D01*
X127185686Y-91100000D02*
X125865686Y-92420000D01*
X150300000Y-91100000D02*
X127185686Y-91100000D01*
X161660000Y-92420000D02*
X162180000Y-92420000D01*
X90180000Y-91200000D02*
X122829657Y-91200000D01*
X159000000Y-91100000D02*
X150300000Y-91100000D01*
X195350000Y-91200000D02*
X196550000Y-92400000D01*
X232600000Y-92500000D02*
X233900000Y-92500000D01*
X199500000Y-91100000D02*
X231200000Y-91100000D01*
X124049657Y-92420000D02*
X125300000Y-92420000D01*
%TO.N,/D2*%
X231200000Y-50500000D02*
X232560000Y-51860000D01*
X125820000Y-51780000D02*
X125300000Y-51780000D01*
X122700000Y-50600000D02*
X123880000Y-51780000D01*
X196460000Y-51760000D02*
X197760000Y-51760000D01*
X198340000Y-51760000D02*
X199600000Y-50500000D01*
X199600000Y-50500000D02*
X231200000Y-50500000D01*
X159088959Y-50500000D02*
X127100000Y-50500000D01*
X161660000Y-51780000D02*
X160368959Y-51780000D01*
X191900000Y-50500000D02*
X163500000Y-50500000D01*
X90140000Y-50600000D02*
X122700000Y-50600000D01*
X127100000Y-50500000D02*
X125820000Y-51780000D01*
X193250000Y-50500000D02*
X191900000Y-50500000D01*
X232560000Y-51860000D02*
X233900000Y-51860000D01*
X88900000Y-51840000D02*
X90140000Y-50600000D01*
X163500000Y-50500000D02*
X162220000Y-51780000D01*
X195200000Y-50500000D02*
X196460000Y-51760000D01*
X162220000Y-51780000D02*
X161660000Y-51780000D01*
X193250000Y-50500000D02*
X195200000Y-50500000D01*
X123880000Y-51780000D02*
X125300000Y-51780000D01*
X197760000Y-51760000D02*
X198340000Y-51760000D01*
X160368959Y-51780000D02*
X159088959Y-50500000D01*
%TO.N,/A0*%
X90160000Y-58200000D02*
X122767157Y-58200000D01*
X122767157Y-58200000D02*
X123967157Y-59400000D01*
X127165686Y-58100000D02*
X125865686Y-59400000D01*
X159078960Y-58100000D02*
X127165686Y-58100000D01*
X232580000Y-59480000D02*
X233900000Y-59480000D01*
X195200000Y-58100000D02*
X196480000Y-59380000D01*
X188600000Y-58100000D02*
X180400000Y-58100000D01*
X231200000Y-58100000D02*
X232580000Y-59480000D01*
X161660000Y-59400000D02*
X160378960Y-59400000D01*
X163400000Y-58100000D02*
X162100000Y-59400000D01*
X160378960Y-59400000D02*
X159078960Y-58100000D01*
X180400000Y-58100000D02*
X163400000Y-58100000D01*
X196480000Y-59380000D02*
X197760000Y-59380000D01*
X88900000Y-59460000D02*
X90160000Y-58200000D01*
X199500000Y-58100000D02*
X231200000Y-58100000D01*
X125865686Y-59400000D02*
X125300000Y-59400000D01*
X198220000Y-59380000D02*
X199500000Y-58100000D01*
X188600000Y-58100000D02*
X195200000Y-58100000D01*
X123967157Y-59400000D02*
X125300000Y-59400000D01*
X162100000Y-59400000D02*
X161660000Y-59400000D01*
X197760000Y-59380000D02*
X198220000Y-59380000D01*
%TO.N,/D7*%
X199860000Y-56840000D02*
X200300000Y-56840000D01*
X163740000Y-56860000D02*
X164200000Y-56860000D01*
X198600000Y-58100000D02*
X199860000Y-56840000D01*
X126100000Y-58100000D02*
X127340000Y-56860000D01*
X235180000Y-58200000D02*
X236440000Y-56940000D01*
X196450000Y-58100000D02*
X198600000Y-58100000D01*
X91440000Y-56920000D02*
X122920000Y-56920000D01*
X159160000Y-56860000D02*
X160400000Y-58100000D01*
X189500000Y-56860000D02*
X195210000Y-56860000D01*
X160400000Y-58100000D02*
X162500000Y-58100000D01*
X127840000Y-56860000D02*
X159160000Y-56860000D01*
X231240000Y-56840000D02*
X232600000Y-58200000D01*
X162500000Y-58100000D02*
X163740000Y-56860000D01*
X124100000Y-58100000D02*
X126100000Y-58100000D01*
X127340000Y-56860000D02*
X127840000Y-56860000D01*
X164200000Y-56860000D02*
X189500000Y-56860000D01*
X122920000Y-56920000D02*
X124100000Y-58100000D01*
X200300000Y-56840000D02*
X231240000Y-56840000D01*
X232600000Y-58200000D02*
X235180000Y-58200000D01*
X195210000Y-56860000D02*
X196450000Y-58100000D01*
%TO.N,CSIO3*%
X231182843Y-81000000D02*
X232522843Y-82340000D01*
X232522843Y-82340000D02*
X233900000Y-82340000D01*
X127000000Y-81000000D02*
X125740000Y-82260000D01*
X197760000Y-82240000D02*
X198160000Y-82240000D01*
X90120000Y-81100000D02*
X122917157Y-81100000D01*
X124077157Y-82260000D02*
X125300000Y-82260000D01*
X162140000Y-82260000D02*
X161660000Y-82260000D01*
X160460000Y-82260000D02*
X159200000Y-81000000D01*
X196540000Y-82240000D02*
X197760000Y-82240000D01*
X199400000Y-81000000D02*
X231182843Y-81000000D01*
X198160000Y-82240000D02*
X199400000Y-81000000D01*
X166500000Y-81000000D02*
X163400000Y-81000000D01*
X166500000Y-81000000D02*
X195300000Y-81000000D01*
X195300000Y-81000000D02*
X196540000Y-82240000D01*
X163400000Y-81000000D02*
X162140000Y-82260000D01*
X122917157Y-81100000D02*
X124077157Y-82260000D01*
X125740000Y-82260000D02*
X125300000Y-82260000D01*
X88900000Y-82320000D02*
X90120000Y-81100000D01*
X159200000Y-81000000D02*
X127000000Y-81000000D01*
X161660000Y-82260000D02*
X160460000Y-82260000D01*
%TD*%
M02*
