%TF.GenerationSoftware,KiCad,Pcbnew,8.0.6*%
%TF.CreationDate,2024-12-15T12:43:40+01:00*%
%TF.ProjectId,busboard,62757362-6f61-4726-942e-6b696361645f,1.0*%
%TF.SameCoordinates,Original*%
%TF.FileFunction,Copper,L1,Top*%
%TF.FilePolarity,Positive*%
%FSLAX46Y46*%
G04 Gerber Fmt 4.6, Leading zero omitted, Abs format (unit mm)*
G04 Created by KiCad (PCBNEW 8.0.6) date 2024-12-15 12:43:40*
%MOMM*%
%LPD*%
G01*
G04 APERTURE LIST*
%TA.AperFunction,ComponentPad*%
%ADD10C,3.100000*%
%TD*%
%TA.AperFunction,ConnectorPad*%
%ADD11C,5.400000*%
%TD*%
%TA.AperFunction,ComponentPad*%
%ADD12R,1.700000X1.700000*%
%TD*%
%TA.AperFunction,ComponentPad*%
%ADD13O,1.700000X1.700000*%
%TD*%
%TA.AperFunction,ComponentPad*%
%ADD14C,1.600000*%
%TD*%
%TA.AperFunction,ComponentPad*%
%ADD15R,1.600000X1.600000*%
%TD*%
%TA.AperFunction,ViaPad*%
%ADD16C,0.700000*%
%TD*%
%TA.AperFunction,Conductor*%
%ADD17C,1.000000*%
%TD*%
%TA.AperFunction,Conductor*%
%ADD18C,0.200000*%
%TD*%
G04 APERTURE END LIST*
D10*
%TO.P,hole1,1*%
%TO.N,N/C*%
X236800000Y-38000000D03*
D11*
X236800000Y-38000000D03*
%TD*%
D12*
%TO.P,J3,1,Pin_1*%
%TO.N,VDD*%
X161660000Y-46700000D03*
D13*
%TO.P,J3,2,Pin_2*%
%TO.N,GND*%
X164200000Y-46700000D03*
%TO.P,J3,3,Pin_3*%
%TO.N,/D0*%
X161660000Y-49240000D03*
%TO.P,J3,4,Pin_4*%
%TO.N,/D1*%
X164200000Y-49240000D03*
%TO.P,J3,5,Pin_5*%
%TO.N,/D2*%
X161660000Y-51780000D03*
%TO.P,J3,6,Pin_6*%
%TO.N,/D3*%
X164200000Y-51780000D03*
%TO.P,J3,7,Pin_7*%
%TO.N,/D4*%
X161660000Y-54320000D03*
%TO.P,J3,8,Pin_8*%
%TO.N,/D5*%
X164200000Y-54320000D03*
%TO.P,J3,9,Pin_9*%
%TO.N,/D6*%
X161660000Y-56860000D03*
%TO.P,J3,10,Pin_10*%
%TO.N,/D7*%
X164200000Y-56860000D03*
%TO.P,J3,11,Pin_11*%
%TO.N,/A0*%
X161660000Y-59400000D03*
%TO.P,J3,12,Pin_12*%
%TO.N,/A1*%
X164200000Y-59400000D03*
%TO.P,J3,13,Pin_13*%
%TO.N,/A2*%
X161660000Y-61940000D03*
%TO.P,J3,14,Pin_14*%
%TO.N,/A3*%
X164200000Y-61940000D03*
%TO.P,J3,15,Pin_15*%
%TO.N,/A4*%
X161660000Y-64480000D03*
%TO.P,J3,16,Pin_16*%
%TO.N,/A5*%
X164200000Y-64480000D03*
%TO.P,J3,17,Pin_17*%
%TO.N,/A6*%
X161660000Y-67020000D03*
%TO.P,J3,18,Pin_18*%
%TO.N,/A7*%
X164200000Y-67020000D03*
%TO.P,J3,19,Pin_19*%
%TO.N,/A8*%
X161660000Y-69560000D03*
%TO.P,J3,20,Pin_20*%
%TO.N,/A9*%
X164200000Y-69560000D03*
%TO.P,J3,21,Pin_21*%
%TO.N,/A10*%
X161660000Y-72100000D03*
%TO.P,J3,22,Pin_22*%
%TO.N,/A11*%
X164200000Y-72100000D03*
%TO.P,J3,23,Pin_23*%
%TO.N,/A12*%
X161660000Y-74640000D03*
%TO.P,J3,24,Pin_24*%
%TO.N,/A13*%
X164200000Y-74640000D03*
%TO.P,J3,25,Pin_25*%
%TO.N,/A14*%
X161660000Y-77180000D03*
%TO.P,J3,26,Pin_26*%
%TO.N,/A15*%
X164200000Y-77180000D03*
%TO.P,J3,27,Pin_27*%
%TO.N,CSIO1*%
X161660000Y-79720000D03*
%TO.P,J3,28,Pin_28*%
%TO.N,CSIO2*%
X164200000Y-79720000D03*
%TO.P,J3,29,Pin_29*%
%TO.N,CSIO3*%
X161660000Y-82260000D03*
%TO.P,J3,30,Pin_30*%
%TO.N,CSIO4*%
X164200000Y-82260000D03*
%TO.P,J3,31,Pin_31*%
%TO.N,~{IRQ}*%
X161660000Y-84800000D03*
%TO.P,J3,32,Pin_32*%
%TO.N,~{NMI}*%
X164200000Y-84800000D03*
%TO.P,J3,33,Pin_33*%
%TO.N,RESB*%
X161660000Y-87340000D03*
%TO.P,J3,34,Pin_34*%
%TO.N,RDY*%
X164200000Y-87340000D03*
%TO.P,J3,35,Pin_35*%
%TO.N,SYNC*%
X161660000Y-89880000D03*
%TO.P,J3,36,Pin_36*%
%TO.N,BE*%
X164200000Y-89880000D03*
%TO.P,J3,37,Pin_37*%
%TO.N,CSIO5*%
X161660000Y-92420000D03*
%TO.P,J3,38,Pin_38*%
%TO.N,CLK*%
X164200000Y-92420000D03*
%TO.P,J3,39,Pin_39*%
%TO.N,GND*%
X161660000Y-94960000D03*
%TO.P,J3,40,Pin_40*%
%TO.N,VDD*%
X164200000Y-94960000D03*
%TD*%
D12*
%TO.P,J1,1,Pin_1*%
%TO.N,VDD*%
X88900000Y-46760000D03*
D13*
%TO.P,J1,2,Pin_2*%
%TO.N,GND*%
X91440000Y-46760000D03*
%TO.P,J1,3,Pin_3*%
%TO.N,/D0*%
X88900000Y-49300000D03*
%TO.P,J1,4,Pin_4*%
%TO.N,/D1*%
X91440000Y-49300000D03*
%TO.P,J1,5,Pin_5*%
%TO.N,/D2*%
X88900000Y-51840000D03*
%TO.P,J1,6,Pin_6*%
%TO.N,/D3*%
X91440000Y-51840000D03*
%TO.P,J1,7,Pin_7*%
%TO.N,/D4*%
X88900000Y-54380000D03*
%TO.P,J1,8,Pin_8*%
%TO.N,/D5*%
X91440000Y-54380000D03*
%TO.P,J1,9,Pin_9*%
%TO.N,/D6*%
X88900000Y-56920000D03*
%TO.P,J1,10,Pin_10*%
%TO.N,/D7*%
X91440000Y-56920000D03*
%TO.P,J1,11,Pin_11*%
%TO.N,/A0*%
X88900000Y-59460000D03*
%TO.P,J1,12,Pin_12*%
%TO.N,/A1*%
X91440000Y-59460000D03*
%TO.P,J1,13,Pin_13*%
%TO.N,/A2*%
X88900000Y-62000000D03*
%TO.P,J1,14,Pin_14*%
%TO.N,/A3*%
X91440000Y-62000000D03*
%TO.P,J1,15,Pin_15*%
%TO.N,/A4*%
X88900000Y-64540000D03*
%TO.P,J1,16,Pin_16*%
%TO.N,/A5*%
X91440000Y-64540000D03*
%TO.P,J1,17,Pin_17*%
%TO.N,/A6*%
X88900000Y-67080000D03*
%TO.P,J1,18,Pin_18*%
%TO.N,/A7*%
X91440000Y-67080000D03*
%TO.P,J1,19,Pin_19*%
%TO.N,/A8*%
X88900000Y-69620000D03*
%TO.P,J1,20,Pin_20*%
%TO.N,/A9*%
X91440000Y-69620000D03*
%TO.P,J1,21,Pin_21*%
%TO.N,/A10*%
X88900000Y-72160000D03*
%TO.P,J1,22,Pin_22*%
%TO.N,/A11*%
X91440000Y-72160000D03*
%TO.P,J1,23,Pin_23*%
%TO.N,/A12*%
X88900000Y-74700000D03*
%TO.P,J1,24,Pin_24*%
%TO.N,/A13*%
X91440000Y-74700000D03*
%TO.P,J1,25,Pin_25*%
%TO.N,/A14*%
X88900000Y-77240000D03*
%TO.P,J1,26,Pin_26*%
%TO.N,/A15*%
X91440000Y-77240000D03*
%TO.P,J1,27,Pin_27*%
%TO.N,CSIO1*%
X88900000Y-79780000D03*
%TO.P,J1,28,Pin_28*%
%TO.N,CSIO2*%
X91440000Y-79780000D03*
%TO.P,J1,29,Pin_29*%
%TO.N,CSIO3*%
X88900000Y-82320000D03*
%TO.P,J1,30,Pin_30*%
%TO.N,CSIO4*%
X91440000Y-82320000D03*
%TO.P,J1,31,Pin_31*%
%TO.N,~{IRQ}*%
X88900000Y-84860000D03*
%TO.P,J1,32,Pin_32*%
%TO.N,~{NMI}*%
X91440000Y-84860000D03*
%TO.P,J1,33,Pin_33*%
%TO.N,RESB*%
X88900000Y-87400000D03*
%TO.P,J1,34,Pin_34*%
%TO.N,RDY*%
X91440000Y-87400000D03*
%TO.P,J1,35,Pin_35*%
%TO.N,SYNC*%
X88900000Y-89940000D03*
%TO.P,J1,36,Pin_36*%
%TO.N,BE*%
X91440000Y-89940000D03*
%TO.P,J1,37,Pin_37*%
%TO.N,CSIO5*%
X88900000Y-92480000D03*
%TO.P,J1,38,Pin_38*%
%TO.N,CLK*%
X91440000Y-92480000D03*
%TO.P,J1,39,Pin_39*%
%TO.N,GND*%
X88900000Y-95020000D03*
%TO.P,J1,40,Pin_40*%
%TO.N,VDD*%
X91440000Y-95020000D03*
%TD*%
D10*
%TO.P,hole1,1*%
%TO.N,N/C*%
X86800000Y-118000000D03*
D11*
X86800000Y-118000000D03*
%TD*%
D12*
%TO.P,J6,1,Pin_1*%
%TO.N,VDD*%
X200560000Y-110460000D03*
D13*
%TO.P,J6,2,Pin_2*%
%TO.N,GND*%
X200560000Y-113000000D03*
%TO.P,J6,3,Pin_3*%
%TO.N,/D0*%
X198020000Y-110460000D03*
%TO.P,J6,4,Pin_4*%
%TO.N,/D1*%
X198020000Y-113000000D03*
%TO.P,J6,5,Pin_5*%
%TO.N,/D2*%
X195480000Y-110460000D03*
%TO.P,J6,6,Pin_6*%
%TO.N,/D3*%
X195480000Y-113000000D03*
%TO.P,J6,7,Pin_7*%
%TO.N,/D4*%
X192940000Y-110460000D03*
%TO.P,J6,8,Pin_8*%
%TO.N,/D5*%
X192940000Y-113000000D03*
%TO.P,J6,9,Pin_9*%
%TO.N,/D6*%
X190400000Y-110460000D03*
%TO.P,J6,10,Pin_10*%
%TO.N,/D7*%
X190400000Y-113000000D03*
%TO.P,J6,11,Pin_11*%
%TO.N,/A0*%
X187860000Y-110460000D03*
%TO.P,J6,12,Pin_12*%
%TO.N,/A1*%
X187860000Y-113000000D03*
%TO.P,J6,13,Pin_13*%
%TO.N,/A2*%
X185320000Y-110460000D03*
%TO.P,J6,14,Pin_14*%
%TO.N,/A3*%
X185320000Y-113000000D03*
%TO.P,J6,15,Pin_15*%
%TO.N,/A4*%
X182780000Y-110460000D03*
%TO.P,J6,16,Pin_16*%
%TO.N,/A5*%
X182780000Y-113000000D03*
%TO.P,J6,17,Pin_17*%
%TO.N,/A6*%
X180240000Y-110460000D03*
%TO.P,J6,18,Pin_18*%
%TO.N,/A7*%
X180240000Y-113000000D03*
%TO.P,J6,19,Pin_19*%
%TO.N,/A8*%
X177700000Y-110460000D03*
%TO.P,J6,20,Pin_20*%
%TO.N,/A9*%
X177700000Y-113000000D03*
%TO.P,J6,21,Pin_21*%
%TO.N,/A10*%
X175160000Y-110460000D03*
%TO.P,J6,22,Pin_22*%
%TO.N,/A11*%
X175160000Y-113000000D03*
%TO.P,J6,23,Pin_23*%
%TO.N,/A12*%
X172620000Y-110460000D03*
%TO.P,J6,24,Pin_24*%
%TO.N,/A13*%
X172620000Y-113000000D03*
%TO.P,J6,25,Pin_25*%
%TO.N,/A14*%
X170080000Y-110460000D03*
%TO.P,J6,26,Pin_26*%
%TO.N,/A15*%
X170080000Y-113000000D03*
%TO.P,J6,27,Pin_27*%
%TO.N,CSIO1*%
X167540000Y-110460000D03*
%TO.P,J6,28,Pin_28*%
%TO.N,CSIO2*%
X167540000Y-113000000D03*
%TO.P,J6,29,Pin_29*%
%TO.N,CSIO3*%
X165000000Y-110460000D03*
%TO.P,J6,30,Pin_30*%
%TO.N,CSIO4*%
X165000000Y-113000000D03*
%TO.P,J6,31,Pin_31*%
%TO.N,~{IRQ}*%
X162460000Y-110460000D03*
%TO.P,J6,32,Pin_32*%
%TO.N,~{NMI}*%
X162460000Y-113000000D03*
%TO.P,J6,33,Pin_33*%
%TO.N,RESB*%
X159920000Y-110460000D03*
%TO.P,J6,34,Pin_34*%
%TO.N,RDY*%
X159920000Y-113000000D03*
%TO.P,J6,35,Pin_35*%
%TO.N,SYNC*%
X157380000Y-110460000D03*
%TO.P,J6,36,Pin_36*%
%TO.N,BE*%
X157380000Y-113000000D03*
%TO.P,J6,37,Pin_37*%
%TO.N,CSIO5*%
X154840000Y-110460000D03*
%TO.P,J6,38,Pin_38*%
%TO.N,CLK*%
X154840000Y-113000000D03*
%TO.P,J6,39,Pin_39*%
%TO.N,GND*%
X152300000Y-110460000D03*
%TO.P,J6,40,Pin_40*%
%TO.N,VDD*%
X152300000Y-113000000D03*
%TD*%
D10*
%TO.P,hole1,1*%
%TO.N,N/C*%
X86800000Y-38000000D03*
D11*
X86800000Y-38000000D03*
%TD*%
D14*
%TO.P,C6,1*%
%TO.N,VDD*%
X208100000Y-110400000D03*
%TO.P,C6,2*%
%TO.N,GND*%
X208100000Y-112900000D03*
%TD*%
%TO.P,C2,1*%
%TO.N,VDD*%
X91450000Y-104360000D03*
%TO.P,C2,2*%
%TO.N,GND*%
X88950000Y-104360000D03*
%TD*%
D12*
%TO.P,J5,1,Pin_1*%
%TO.N,VDD*%
X233900000Y-46780000D03*
D13*
%TO.P,J5,2,Pin_2*%
%TO.N,GND*%
X236440000Y-46780000D03*
%TO.P,J5,3,Pin_3*%
%TO.N,/D0*%
X233900000Y-49320000D03*
%TO.P,J5,4,Pin_4*%
%TO.N,/D1*%
X236440000Y-49320000D03*
%TO.P,J5,5,Pin_5*%
%TO.N,/D2*%
X233900000Y-51860000D03*
%TO.P,J5,6,Pin_6*%
%TO.N,/D3*%
X236440000Y-51860000D03*
%TO.P,J5,7,Pin_7*%
%TO.N,/D4*%
X233900000Y-54400000D03*
%TO.P,J5,8,Pin_8*%
%TO.N,/D5*%
X236440000Y-54400000D03*
%TO.P,J5,9,Pin_9*%
%TO.N,/D6*%
X233900000Y-56940000D03*
%TO.P,J5,10,Pin_10*%
%TO.N,/D7*%
X236440000Y-56940000D03*
%TO.P,J5,11,Pin_11*%
%TO.N,/A0*%
X233900000Y-59480000D03*
%TO.P,J5,12,Pin_12*%
%TO.N,/A1*%
X236440000Y-59480000D03*
%TO.P,J5,13,Pin_13*%
%TO.N,/A2*%
X233900000Y-62020000D03*
%TO.P,J5,14,Pin_14*%
%TO.N,/A3*%
X236440000Y-62020000D03*
%TO.P,J5,15,Pin_15*%
%TO.N,/A4*%
X233900000Y-64560000D03*
%TO.P,J5,16,Pin_16*%
%TO.N,/A5*%
X236440000Y-64560000D03*
%TO.P,J5,17,Pin_17*%
%TO.N,/A6*%
X233900000Y-67100000D03*
%TO.P,J5,18,Pin_18*%
%TO.N,/A7*%
X236440000Y-67100000D03*
%TO.P,J5,19,Pin_19*%
%TO.N,/A8*%
X233900000Y-69640000D03*
%TO.P,J5,20,Pin_20*%
%TO.N,/A9*%
X236440000Y-69640000D03*
%TO.P,J5,21,Pin_21*%
%TO.N,/A10*%
X233900000Y-72180000D03*
%TO.P,J5,22,Pin_22*%
%TO.N,/A11*%
X236440000Y-72180000D03*
%TO.P,J5,23,Pin_23*%
%TO.N,/A12*%
X233900000Y-74720000D03*
%TO.P,J5,24,Pin_24*%
%TO.N,/A13*%
X236440000Y-74720000D03*
%TO.P,J5,25,Pin_25*%
%TO.N,/A14*%
X233900000Y-77260000D03*
%TO.P,J5,26,Pin_26*%
%TO.N,/A15*%
X236440000Y-77260000D03*
%TO.P,J5,27,Pin_27*%
%TO.N,CSIO1*%
X233900000Y-79800000D03*
%TO.P,J5,28,Pin_28*%
%TO.N,CSIO2*%
X236440000Y-79800000D03*
%TO.P,J5,29,Pin_29*%
%TO.N,CSIO3*%
X233900000Y-82340000D03*
%TO.P,J5,30,Pin_30*%
%TO.N,CSIO4*%
X236440000Y-82340000D03*
%TO.P,J5,31,Pin_31*%
%TO.N,~{IRQ}*%
X233900000Y-84880000D03*
%TO.P,J5,32,Pin_32*%
%TO.N,~{NMI}*%
X236440000Y-84880000D03*
%TO.P,J5,33,Pin_33*%
%TO.N,RESB*%
X233900000Y-87420000D03*
%TO.P,J5,34,Pin_34*%
%TO.N,RDY*%
X236440000Y-87420000D03*
%TO.P,J5,35,Pin_35*%
%TO.N,SYNC*%
X233900000Y-89960000D03*
%TO.P,J5,36,Pin_36*%
%TO.N,BE*%
X236440000Y-89960000D03*
%TO.P,J5,37,Pin_37*%
%TO.N,CSIO5*%
X233900000Y-92500000D03*
%TO.P,J5,38,Pin_38*%
%TO.N,CLK*%
X236440000Y-92500000D03*
%TO.P,J5,39,Pin_39*%
%TO.N,GND*%
X233900000Y-95040000D03*
%TO.P,J5,40,Pin_40*%
%TO.N,VDD*%
X236440000Y-95040000D03*
%TD*%
D10*
%TO.P,hole1,1*%
%TO.N,N/C*%
X236800000Y-118000000D03*
D11*
X236800000Y-118000000D03*
%TD*%
D14*
%TO.P,C5,1*%
%TO.N,VDD*%
X200150000Y-104300000D03*
%TO.P,C5,2*%
%TO.N,GND*%
X197650000Y-104300000D03*
%TD*%
%TO.P,C7,1*%
%TO.N,VDD*%
X236300000Y-104300000D03*
%TO.P,C7,2*%
%TO.N,GND*%
X233800000Y-104300000D03*
%TD*%
D12*
%TO.P,J4,1,Pin_1*%
%TO.N,VDD*%
X197760000Y-46680000D03*
D13*
%TO.P,J4,2,Pin_2*%
%TO.N,GND*%
X200300000Y-46680000D03*
%TO.P,J4,3,Pin_3*%
%TO.N,/D0*%
X197760000Y-49220000D03*
%TO.P,J4,4,Pin_4*%
%TO.N,/D1*%
X200300000Y-49220000D03*
%TO.P,J4,5,Pin_5*%
%TO.N,/D2*%
X197760000Y-51760000D03*
%TO.P,J4,6,Pin_6*%
%TO.N,/D3*%
X200300000Y-51760000D03*
%TO.P,J4,7,Pin_7*%
%TO.N,/D4*%
X197760000Y-54300000D03*
%TO.P,J4,8,Pin_8*%
%TO.N,/D5*%
X200300000Y-54300000D03*
%TO.P,J4,9,Pin_9*%
%TO.N,/D6*%
X197760000Y-56840000D03*
%TO.P,J4,10,Pin_10*%
%TO.N,/D7*%
X200300000Y-56840000D03*
%TO.P,J4,11,Pin_11*%
%TO.N,/A0*%
X197760000Y-59380000D03*
%TO.P,J4,12,Pin_12*%
%TO.N,/A1*%
X200300000Y-59380000D03*
%TO.P,J4,13,Pin_13*%
%TO.N,/A2*%
X197760000Y-61920000D03*
%TO.P,J4,14,Pin_14*%
%TO.N,/A3*%
X200300000Y-61920000D03*
%TO.P,J4,15,Pin_15*%
%TO.N,/A4*%
X197760000Y-64460000D03*
%TO.P,J4,16,Pin_16*%
%TO.N,/A5*%
X200300000Y-64460000D03*
%TO.P,J4,17,Pin_17*%
%TO.N,/A6*%
X197760000Y-67000000D03*
%TO.P,J4,18,Pin_18*%
%TO.N,/A7*%
X200300000Y-67000000D03*
%TO.P,J4,19,Pin_19*%
%TO.N,/A8*%
X197760000Y-69540000D03*
%TO.P,J4,20,Pin_20*%
%TO.N,/A9*%
X200300000Y-69540000D03*
%TO.P,J4,21,Pin_21*%
%TO.N,/A10*%
X197760000Y-72080000D03*
%TO.P,J4,22,Pin_22*%
%TO.N,/A11*%
X200300000Y-72080000D03*
%TO.P,J4,23,Pin_23*%
%TO.N,/A12*%
X197760000Y-74620000D03*
%TO.P,J4,24,Pin_24*%
%TO.N,/A13*%
X200300000Y-74620000D03*
%TO.P,J4,25,Pin_25*%
%TO.N,/A14*%
X197760000Y-77160000D03*
%TO.P,J4,26,Pin_26*%
%TO.N,/A15*%
X200300000Y-77160000D03*
%TO.P,J4,27,Pin_27*%
%TO.N,CSIO1*%
X197760000Y-79700000D03*
%TO.P,J4,28,Pin_28*%
%TO.N,CSIO2*%
X200300000Y-79700000D03*
%TO.P,J4,29,Pin_29*%
%TO.N,CSIO3*%
X197760000Y-82240000D03*
%TO.P,J4,30,Pin_30*%
%TO.N,CSIO4*%
X200300000Y-82240000D03*
%TO.P,J4,31,Pin_31*%
%TO.N,~{IRQ}*%
X197760000Y-84780000D03*
%TO.P,J4,32,Pin_32*%
%TO.N,~{NMI}*%
X200300000Y-84780000D03*
%TO.P,J4,33,Pin_33*%
%TO.N,RESB*%
X197760000Y-87320000D03*
%TO.P,J4,34,Pin_34*%
%TO.N,RDY*%
X200300000Y-87320000D03*
%TO.P,J4,35,Pin_35*%
%TO.N,SYNC*%
X197760000Y-89860000D03*
%TO.P,J4,36,Pin_36*%
%TO.N,BE*%
X200300000Y-89860000D03*
%TO.P,J4,37,Pin_37*%
%TO.N,CSIO5*%
X197760000Y-92400000D03*
%TO.P,J4,38,Pin_38*%
%TO.N,CLK*%
X200300000Y-92400000D03*
%TO.P,J4,39,Pin_39*%
%TO.N,GND*%
X197760000Y-94940000D03*
%TO.P,J4,40,Pin_40*%
%TO.N,VDD*%
X200300000Y-94940000D03*
%TD*%
D14*
%TO.P,C3,1*%
%TO.N,VDD*%
X127800000Y-104200000D03*
%TO.P,C3,2*%
%TO.N,GND*%
X125300000Y-104200000D03*
%TD*%
D12*
%TO.P,J2,1,Pin_1*%
%TO.N,VDD*%
X125300000Y-46700000D03*
D13*
%TO.P,J2,2,Pin_2*%
%TO.N,GND*%
X127840000Y-46700000D03*
%TO.P,J2,3,Pin_3*%
%TO.N,/D0*%
X125300000Y-49240000D03*
%TO.P,J2,4,Pin_4*%
%TO.N,/D1*%
X127840000Y-49240000D03*
%TO.P,J2,5,Pin_5*%
%TO.N,/D2*%
X125300000Y-51780000D03*
%TO.P,J2,6,Pin_6*%
%TO.N,/D3*%
X127840000Y-51780000D03*
%TO.P,J2,7,Pin_7*%
%TO.N,/D4*%
X125300000Y-54320000D03*
%TO.P,J2,8,Pin_8*%
%TO.N,/D5*%
X127840000Y-54320000D03*
%TO.P,J2,9,Pin_9*%
%TO.N,/D6*%
X125300000Y-56860000D03*
%TO.P,J2,10,Pin_10*%
%TO.N,/D7*%
X127840000Y-56860000D03*
%TO.P,J2,11,Pin_11*%
%TO.N,/A0*%
X125300000Y-59400000D03*
%TO.P,J2,12,Pin_12*%
%TO.N,/A1*%
X127840000Y-59400000D03*
%TO.P,J2,13,Pin_13*%
%TO.N,/A2*%
X125300000Y-61940000D03*
%TO.P,J2,14,Pin_14*%
%TO.N,/A3*%
X127840000Y-61940000D03*
%TO.P,J2,15,Pin_15*%
%TO.N,/A4*%
X125300000Y-64480000D03*
%TO.P,J2,16,Pin_16*%
%TO.N,/A5*%
X127840000Y-64480000D03*
%TO.P,J2,17,Pin_17*%
%TO.N,/A6*%
X125300000Y-67020000D03*
%TO.P,J2,18,Pin_18*%
%TO.N,/A7*%
X127840000Y-67020000D03*
%TO.P,J2,19,Pin_19*%
%TO.N,/A8*%
X125300000Y-69560000D03*
%TO.P,J2,20,Pin_20*%
%TO.N,/A9*%
X127840000Y-69560000D03*
%TO.P,J2,21,Pin_21*%
%TO.N,/A10*%
X125300000Y-72100000D03*
%TO.P,J2,22,Pin_22*%
%TO.N,/A11*%
X127840000Y-72100000D03*
%TO.P,J2,23,Pin_23*%
%TO.N,/A12*%
X125300000Y-74640000D03*
%TO.P,J2,24,Pin_24*%
%TO.N,/A13*%
X127840000Y-74640000D03*
%TO.P,J2,25,Pin_25*%
%TO.N,/A14*%
X125300000Y-77180000D03*
%TO.P,J2,26,Pin_26*%
%TO.N,/A15*%
X127840000Y-77180000D03*
%TO.P,J2,27,Pin_27*%
%TO.N,CSIO1*%
X125300000Y-79720000D03*
%TO.P,J2,28,Pin_28*%
%TO.N,CSIO2*%
X127840000Y-79720000D03*
%TO.P,J2,29,Pin_29*%
%TO.N,CSIO3*%
X125300000Y-82260000D03*
%TO.P,J2,30,Pin_30*%
%TO.N,CSIO4*%
X127840000Y-82260000D03*
%TO.P,J2,31,Pin_31*%
%TO.N,~{IRQ}*%
X125300000Y-84800000D03*
%TO.P,J2,32,Pin_32*%
%TO.N,~{NMI}*%
X127840000Y-84800000D03*
%TO.P,J2,33,Pin_33*%
%TO.N,RESB*%
X125300000Y-87340000D03*
%TO.P,J2,34,Pin_34*%
%TO.N,RDY*%
X127840000Y-87340000D03*
%TO.P,J2,35,Pin_35*%
%TO.N,SYNC*%
X125300000Y-89880000D03*
%TO.P,J2,36,Pin_36*%
%TO.N,BE*%
X127840000Y-89880000D03*
%TO.P,J2,37,Pin_37*%
%TO.N,CSIO5*%
X125300000Y-92420000D03*
%TO.P,J2,38,Pin_38*%
%TO.N,CLK*%
X127840000Y-92420000D03*
%TO.P,J2,39,Pin_39*%
%TO.N,GND*%
X125300000Y-94960000D03*
%TO.P,J2,40,Pin_40*%
%TO.N,VDD*%
X127840000Y-94960000D03*
%TD*%
D15*
%TO.P,C1,1*%
%TO.N,VDD*%
X107700000Y-103300000D03*
D14*
%TO.P,C1,2*%
%TO.N,GND*%
X107700000Y-105800000D03*
%TD*%
%TO.P,C4,1*%
%TO.N,VDD*%
X164100000Y-104300000D03*
%TO.P,C4,2*%
%TO.N,GND*%
X161600000Y-104300000D03*
%TD*%
D16*
%TO.N,/A5*%
X177900000Y-64480000D03*
%TO.N,~{IRQ}*%
X157300000Y-83500000D03*
%TO.N,/A9*%
X174900000Y-69560000D03*
%TO.N,~{NMI}*%
X156100000Y-84800000D03*
%TO.N,CSIO4*%
X167150000Y-82260000D03*
%TO.N,/D4*%
X189800000Y-53100000D03*
%TO.N,/A7*%
X176300000Y-67020000D03*
%TO.N,/A4*%
X177100000Y-63200000D03*
%TO.N,/D5*%
X190900000Y-54320000D03*
%TO.N,/D6*%
X187700000Y-55600000D03*
%TO.N,/D3*%
X192900000Y-51780000D03*
%TO.N,/A3*%
X179600000Y-61940000D03*
%TO.N,RESB*%
X155100000Y-86100000D03*
%TO.N,/A11*%
X173400000Y-72100000D03*
%TO.N,/D1*%
X194600000Y-49240000D03*
%TO.N,/A12*%
X171000000Y-73400000D03*
%TO.N,/A2*%
X178800000Y-60700000D03*
%TO.N,/D0*%
X193800000Y-48090000D03*
%TO.N,RDY*%
X153900000Y-87340000D03*
%TO.N,/A8*%
X174100000Y-68300000D03*
%TO.N,/A10*%
X172500000Y-70800000D03*
%TO.N,/A1*%
X181050000Y-59400000D03*
%TO.N,/A13*%
X171700000Y-74640000D03*
%TO.N,/A15*%
X170100000Y-77180000D03*
%TO.N,CSIO2*%
X168600000Y-79720000D03*
%TO.N,BE*%
X151400000Y-89880000D03*
%TO.N,/A14*%
X169400000Y-75900000D03*
%TO.N,SYNC*%
X152600000Y-88600000D03*
%TO.N,CLK*%
X149000000Y-92420000D03*
%TO.N,CSIO1*%
X167800000Y-78500000D03*
%TO.N,/A6*%
X175600000Y-65800000D03*
%TO.N,CSIO5*%
X150300000Y-91100000D03*
%TO.N,/D2*%
X191900000Y-50500000D03*
%TO.N,/A0*%
X180400000Y-58100000D03*
%TO.N,/D7*%
X188700000Y-56860000D03*
%TO.N,CSIO3*%
X166500000Y-81000000D03*
%TD*%
D17*
%TO.N,VDD*%
X127850000Y-101200000D02*
X127800000Y-101250000D01*
X164100000Y-95060000D02*
X164200000Y-94960000D01*
X198520000Y-43000000D02*
X232400000Y-43000000D01*
X127850000Y-101200000D02*
X127850000Y-94970000D01*
X91450000Y-104360000D02*
X91450000Y-100100000D01*
X127800000Y-104200000D02*
X127800000Y-106100000D01*
X125300000Y-46700000D02*
X125300000Y-43700000D01*
X134700000Y-113000000D02*
X152300000Y-113000000D01*
X96940000Y-104360000D02*
X98000000Y-103300000D01*
X232400000Y-43000000D02*
X233900000Y-44500000D01*
X236300000Y-104300000D02*
X236300000Y-95180000D01*
X200150000Y-95090000D02*
X200300000Y-94940000D01*
X88900000Y-46760000D02*
X88900000Y-44100000D01*
X233500000Y-110400000D02*
X208100000Y-110400000D01*
X208040000Y-110460000D02*
X208100000Y-110400000D01*
X85700000Y-47300000D02*
X85700000Y-99700000D01*
X125300000Y-46700000D02*
X125300000Y-44200000D01*
X85700000Y-99700000D02*
X86100000Y-100100000D01*
X91450000Y-95030000D02*
X91440000Y-95020000D01*
X162500000Y-43000000D02*
X197000000Y-43000000D01*
X125300000Y-44200000D02*
X126500000Y-43000000D01*
X197760000Y-43760000D02*
X197760000Y-46680000D01*
X127800000Y-101250000D02*
X127800000Y-104200000D01*
X98000000Y-103300000D02*
X107700000Y-103300000D01*
X197760000Y-43760000D02*
X198520000Y-43000000D01*
X127800000Y-106100000D02*
X134700000Y-113000000D01*
X120100000Y-103300000D02*
X122150000Y-101250000D01*
X86100000Y-100100000D02*
X91450000Y-100100000D01*
X160900000Y-43000000D02*
X161660000Y-43760000D01*
X200150000Y-104300000D02*
X200150000Y-95090000D01*
X161740000Y-43760000D02*
X162500000Y-43000000D01*
X161660000Y-43760000D02*
X161740000Y-43760000D01*
X90000000Y-43000000D02*
X124600000Y-43000000D01*
X200150000Y-104300000D02*
X200300000Y-104150000D01*
X91440000Y-103800000D02*
X91500000Y-103860000D01*
X164100000Y-104300000D02*
X164100000Y-95060000D01*
X161660000Y-43760000D02*
X161660000Y-46700000D01*
X126500000Y-43000000D02*
X160900000Y-43000000D01*
X197000000Y-43000000D02*
X197760000Y-43760000D01*
X233900000Y-44500000D02*
X233900000Y-46780000D01*
X127850000Y-94970000D02*
X127840000Y-94960000D01*
X200560000Y-110460000D02*
X208040000Y-110460000D01*
X236300000Y-107600000D02*
X233500000Y-110400000D01*
X107700000Y-103300000D02*
X120100000Y-103300000D01*
X91450000Y-100100000D02*
X91450000Y-95030000D01*
X122150000Y-101250000D02*
X127800000Y-101250000D01*
X124600000Y-43000000D02*
X125300000Y-43700000D01*
X88900000Y-44100000D02*
X85700000Y-47300000D01*
X91450000Y-104360000D02*
X96940000Y-104360000D01*
X236300000Y-95180000D02*
X236440000Y-95040000D01*
X236300000Y-104300000D02*
X236300000Y-107600000D01*
X88900000Y-44100000D02*
X90000000Y-43000000D01*
D18*
%TO.N,/A5*%
X182780000Y-113000000D02*
X184100000Y-111680000D01*
X184100000Y-108800000D02*
X177900000Y-102600000D01*
X177900000Y-102600000D02*
X177900000Y-64480000D01*
X184100000Y-111680000D02*
X184100000Y-108800000D01*
%TO.N,~{IRQ}*%
X162460000Y-108660000D02*
X157300000Y-103500000D01*
X162460000Y-110460000D02*
X162460000Y-108660000D01*
X157300000Y-103500000D02*
X157300000Y-83500000D01*
%TO.N,/A9*%
X174900000Y-104700000D02*
X174900000Y-69560000D01*
X178900000Y-111800000D02*
X178900000Y-108700000D01*
X177700000Y-113000000D02*
X178900000Y-111800000D01*
X178900000Y-108700000D02*
X174900000Y-104700000D01*
%TO.N,~{NMI}*%
X156100000Y-103600000D02*
X156100000Y-84800000D01*
X161200000Y-111740000D02*
X161200000Y-108700000D01*
X162460000Y-113000000D02*
X161200000Y-111740000D01*
X161200000Y-108700000D02*
X156100000Y-103600000D01*
%TO.N,CSIO4*%
X167150000Y-82260000D02*
X167200000Y-82310000D01*
X166150000Y-111850000D02*
X165000000Y-113000000D01*
X167200000Y-107550000D02*
X166150000Y-108600000D01*
X167200000Y-82310000D02*
X167200000Y-107550000D01*
X166150000Y-108600000D02*
X166150000Y-111850000D01*
%TO.N,/D4*%
X192940000Y-110460000D02*
X192940000Y-108640000D01*
X192940000Y-108640000D02*
X189800000Y-105500000D01*
X189800000Y-105500000D02*
X189800000Y-53100000D01*
%TO.N,/A7*%
X181500000Y-108800000D02*
X176300000Y-103600000D01*
X181500000Y-111740000D02*
X181500000Y-108800000D01*
X176300000Y-103600000D02*
X176300000Y-67020000D01*
X180240000Y-113000000D02*
X181500000Y-111740000D01*
%TO.N,/A4*%
X177100000Y-103000000D02*
X177100000Y-63200000D01*
X182780000Y-108680000D02*
X177100000Y-103000000D01*
X182780000Y-110460000D02*
X182780000Y-108680000D01*
%TO.N,/D5*%
X194200000Y-108600000D02*
X190900000Y-105300000D01*
X192940000Y-113000000D02*
X194200000Y-111740000D01*
X190900000Y-105300000D02*
X190900000Y-54320000D01*
X194200000Y-111740000D02*
X194200000Y-108600000D01*
%TO.N,/D6*%
X187700000Y-106000000D02*
X187700000Y-55600000D01*
X190400000Y-108700000D02*
X187700000Y-106000000D01*
X190400000Y-110460000D02*
X190400000Y-108700000D01*
%TO.N,/D3*%
X196700000Y-108800000D02*
X192900000Y-105000000D01*
X195480000Y-113000000D02*
X196700000Y-111780000D01*
X196700000Y-111780000D02*
X196700000Y-108800000D01*
X192900000Y-105000000D02*
X192900000Y-51780000D01*
%TO.N,/A3*%
X179600000Y-101800000D02*
X179600000Y-61940000D01*
X186600000Y-111720000D02*
X186600000Y-108800000D01*
X185320000Y-113000000D02*
X186600000Y-111720000D01*
X186600000Y-108800000D02*
X179600000Y-101800000D01*
%TO.N,RESB*%
X159920000Y-110460000D02*
X159920000Y-108720000D01*
X155100000Y-103900000D02*
X155100000Y-86100000D01*
X159920000Y-108720000D02*
X155100000Y-103900000D01*
%TO.N,/A11*%
X176400000Y-111760000D02*
X176400000Y-108800000D01*
X173400000Y-105800000D02*
X173400000Y-72100000D01*
X175160000Y-113000000D02*
X176400000Y-111760000D01*
X176400000Y-108800000D02*
X173400000Y-105800000D01*
%TO.N,/D1*%
X199170000Y-111850000D02*
X199170000Y-108670000D01*
X194600000Y-104100000D02*
X194600000Y-49240000D01*
X198020000Y-113000000D02*
X199170000Y-111850000D01*
X199170000Y-108670000D02*
X194600000Y-104100000D01*
%TO.N,/A12*%
X171000000Y-107000000D02*
X172620000Y-108620000D01*
X172620000Y-108620000D02*
X172620000Y-110460000D01*
X171000000Y-73400000D02*
X171000000Y-107000000D01*
%TO.N,/A2*%
X178800000Y-60700000D02*
X178800000Y-102100000D01*
X178800000Y-102100000D02*
X185320000Y-108620000D01*
X185320000Y-108620000D02*
X185320000Y-110460000D01*
%TO.N,/D0*%
X198020000Y-108720000D02*
X193800000Y-104500000D01*
X193800000Y-104500000D02*
X193800000Y-48090000D01*
X198020000Y-110460000D02*
X198020000Y-108720000D01*
%TO.N,RDY*%
X158600000Y-111680000D02*
X158600000Y-108700000D01*
X153900000Y-104000000D02*
X153900000Y-87340000D01*
X159920000Y-113000000D02*
X158600000Y-111680000D01*
X158600000Y-108700000D02*
X153900000Y-104000000D01*
%TO.N,/A8*%
X177700000Y-108700000D02*
X174100000Y-105100000D01*
X174100000Y-105100000D02*
X174100000Y-68300000D01*
X177700000Y-110460000D02*
X177700000Y-108700000D01*
%TO.N,/A10*%
X175200000Y-108700000D02*
X172500000Y-106000000D01*
X175160000Y-110460000D02*
X175200000Y-110420000D01*
X172500000Y-106000000D02*
X172500000Y-70800000D01*
X175200000Y-110420000D02*
X175200000Y-108700000D01*
%TO.N,/A1*%
X187860000Y-113000000D02*
X189100000Y-111760000D01*
X189100000Y-108800000D02*
X181050000Y-100750000D01*
X189100000Y-111760000D02*
X189100000Y-108800000D01*
X181050000Y-100750000D02*
X181050000Y-59400000D01*
%TO.N,/A13*%
X173850000Y-111770000D02*
X172620000Y-113000000D01*
X171700000Y-106475000D02*
X173850000Y-108625000D01*
X173850000Y-108625000D02*
X173850000Y-111770000D01*
X171700000Y-74640000D02*
X171700000Y-106475000D01*
%TO.N,/A15*%
X171350000Y-108550000D02*
X171350000Y-111730000D01*
X171350000Y-111730000D02*
X170080000Y-113000000D01*
X170100000Y-107300000D02*
X171350000Y-108550000D01*
X170100000Y-77180000D02*
X170100000Y-107300000D01*
%TO.N,CSIO2*%
X168800000Y-111740000D02*
X167540000Y-113000000D01*
X168800000Y-108650000D02*
X168800000Y-111740000D01*
X168600000Y-79720000D02*
X168600000Y-108450000D01*
X168600000Y-108450000D02*
X168800000Y-108650000D01*
%TO.N,BE*%
X156100000Y-111720000D02*
X156100000Y-108800000D01*
X156100000Y-108800000D02*
X151400000Y-104100000D01*
X157380000Y-113000000D02*
X156100000Y-111720000D01*
X151400000Y-104100000D02*
X151400000Y-89880000D01*
%TO.N,/A14*%
X169400000Y-75900000D02*
X169400000Y-108000000D01*
X169400000Y-108000000D02*
X170080000Y-108680000D01*
X170080000Y-108680000D02*
X170080000Y-110460000D01*
%TO.N,SYNC*%
X157380000Y-110460000D02*
X157380000Y-108680000D01*
X152600000Y-103900000D02*
X152600000Y-88600000D01*
X157380000Y-108680000D02*
X152600000Y-103900000D01*
%TO.N,CLK*%
X153600000Y-108800000D02*
X149000000Y-104200000D01*
X154840000Y-113000000D02*
X153600000Y-111760000D01*
X149000000Y-104200000D02*
X149000000Y-92420000D01*
X153600000Y-111760000D02*
X153600000Y-108800000D01*
%TO.N,CSIO1*%
X167550000Y-110450000D02*
X167540000Y-110460000D01*
X167550000Y-108650000D02*
X167550000Y-110450000D01*
X167800000Y-78500000D02*
X167800000Y-108400000D01*
X167800000Y-108400000D02*
X167550000Y-108650000D01*
%TO.N,/A6*%
X180240000Y-108640000D02*
X175600000Y-104000000D01*
X175600000Y-104000000D02*
X175600000Y-65800000D01*
X180240000Y-110460000D02*
X180240000Y-108640000D01*
%TO.N,CSIO5*%
X150300000Y-104100000D02*
X150300000Y-91100000D01*
X154840000Y-110460000D02*
X154840000Y-108640000D01*
X154840000Y-108640000D02*
X150300000Y-104100000D01*
%TO.N,/D2*%
X195480000Y-110460000D02*
X195480000Y-108680000D01*
X195480000Y-108680000D02*
X191900000Y-105100000D01*
X191900000Y-105100000D02*
X191900000Y-50500000D01*
%TO.N,/A0*%
X187860000Y-108760000D02*
X180400000Y-101300000D01*
X180400000Y-101300000D02*
X180400000Y-58100000D01*
X187860000Y-110460000D02*
X187860000Y-108760000D01*
%TO.N,/D7*%
X188700000Y-105800000D02*
X188700000Y-56860000D01*
X191700000Y-108800000D02*
X188700000Y-105800000D01*
X190400000Y-113000000D02*
X191700000Y-111700000D01*
X191700000Y-111700000D02*
X191700000Y-108800000D01*
%TO.N,CSIO3*%
X165000000Y-108600000D02*
X165000000Y-110460000D01*
X166500000Y-81000000D02*
X166500000Y-107100000D01*
X166500000Y-107100000D02*
X165000000Y-108600000D01*
%TD*%
M02*
